<?xml version="1.0" standalone="no"?>
<!DOCTYPE svg PUBLIC "-//W3C//DTD SVG 1.1//EN" "http://www.w3.org/Graphics/SVG/1.1/DTD/svg11.dtd">
<svg width="250.79187079185633mm" height="212.00000000000037mm"
 viewBox="0 0 250.79187079185633 212.00000000000037"
 xmlns="http://www.w3.org/2000/svg" version="1.1"
 xmlns:xlink="http://www.w3.org/1999/xlink">
<desc>Output from Flights of Ideas SVG Sketchup Plugin</desc>

  <path id="face0-cut"
 style="fill:none;stroke:#0000FF;stroke-width:1;stroke-miterlimit:4;stroke-dasharray:none;stroke-linejoin:round;stroke-linecap:round"
        d="M 237.04187079185735,31.2500000000002 L 240.79187079185562,17.999999999999062 L 232.7918707918556,10.0 L 17.999999999999083,10.0 L 10.0,18.000000000000824 L 13.750000000001041,31.250000000000256 L 13.749999999768225,180.7500000000749 L 10.000000000000856,194.0000000001411 L 18.000000000141434,202.00000000000037 L 31.250000000075524,198.24999999976765 L 219.54187079185664,198.25000000000117 L 232.79187079185732,202.00000000000037 L 240.79187079185633,193.99999999999974 L 237.0418707918557,180.75000000000003 L 237.04187079185735,31.2500000000002 M 34.24000000000045,55.919999999999874 L 33.78706667107099,55.860370196005846 L 33.36500000000044,55.685544456622694 L 33.002563132923974,55.40743686707643 L 32.72445554337766,55.044999999999874 L 32.549629803994534,54.62293332892946 L 32.49000000000037,54.17000000000013 L 32.549629803994534,53.7170666710706 L 32.72445554337766,53.294999999999845 L 33.002563132923925,52.93256313292318 L 33.36500000000035,52.65445554337714 L 33.787066671070946,52.479629803993845 L 34.24000000000042,52.41999999999982 L 34.69293332892984,52.479629803994214 L 35.11500000000041,52.654455543377054 L 35.47743686707683,52.93256313292355 L 35.7555444566232,53.29499999999979 L 35.93037019600631,53.717066671070484 L 35.990000000000364,54.169999999999675 L 35.93037019600631,54.622933328929236 L 35.7555444566232,55.04499999999982 L 35.477436867076875,55.40743686707631 L 35.11500000000045,55.68554445662258 L 34.69293332892984,55.86037019600562 L 34.24000000000045,55.919999999999874 M 33.78706667107108,187.94037019600555 L 33.36500000000049,187.76554445662245 L 33.002563132923974,187.48743686707607 L 32.7244555433777,187.1249999999997 L 32.549629803994584,186.70293332892916 L 32.490000000000464,186.24999999999963 L 32.549629803994634,185.79706667107033 L 32.7244555433777,185.37499999999963 L 33.002563132923974,185.01256313292313 L 33.36500000000044,184.73445554337692 L 33.78706667107103,184.55962980399383 L 34.24000000000045,184.4999999999997 L 34.692933328929854,184.5596298039939 L 35.11500000000045,184.73445554337692 L 35.47743686707692,185.01256313292325 L 35.75554445662326,185.37499999999974 L 35.93037019600638,185.79706667107027 L 35.99000000000045,186.24999999999963 L 35.93037019600635,186.7029333289291 L 35.75554445662321,187.12499999999957 L 35.47743686707692,187.48743686707613 L 35.11500000000038,187.7655444566224 L 34.692933328929904,187.9403701960056 L 34.24000000000042,187.99999999999963 L 33.78706667107108,187.94037019600555 M 190.84499999999977,187.76554445662245 L 190.48256313292327,187.48743686707613 L 190.20445554337695,187.1249999999997 L 190.0296298039939,186.7029333289291 L 189.96999999999974,186.24999999999963 L 190.0296298039939,185.79706667107027 L 190.20445554337695,185.37499999999974 L 190.48256313292327,185.01256313292325 L 190.84499999999974,184.73445554337687 L 191.26706667107032,184.55962980399383 L 191.7199999999997,184.49999999999974 L 192.17293332892916,184.55962980399383 L 192.59499999999971,184.73445554337692 L 192.9574368670762,185.01256313292325 L 193.23554445662248,185.3749999999997 L 193.4103701960056,185.7970666710702 L 193.46999999999971,186.24999999999963 L 193.41037019600557,186.7029333289291 L 193.23554445662248,187.1249999999997 L 192.95743686707624,187.48743686707613 L 192.59499999999971,187.76554445662245 L 192.17293332892913,187.94037019600555 L 191.7199999999997,187.9999999999997 L 191.2670666710703,187.94037019600555 L 190.84499999999977,187.76554445662245 M 168.79187079185672,197.00000000000048 L 168.79187079185678,194.00000000000054 L 178.79187079185684,194.00000000000054 L 178.79187079185684,197.00000000000043 L 168.79187079185672,197.00000000000048 M 82.00000000000038,193.9999999999994 L 82.00000000000041,196.9999999999993 L 72.00000000000047,196.99999999999935 L 72.00000000000057,193.99999999999952 L 82.00000000000038,193.9999999999994 M 18.897476977192532,17.6600401101162 L 18.72265123780942,18.082106781186894 L 18.444543648263053,18.444543648262766 L 18.082106781186585,18.722651237810226 L 17.66004011011604,18.897476977192213 L 17.20710678118656,18.95710678118587 L 16.75417345225649,18.897476977192298 L 16.3321067811859,18.722651237810084 L 15.969669914109478,18.444543648262595 L 15.6915623245632,18.08210678118661 L 15.516736585180134,17.66004011011563 L 15.457106781185963,17.207106781186496 L 15.516736585180176,16.754173452256936 L 15.691562324563339,16.33210678118678 L 15.969669914109659,15.969669914110227 L 16.332106781186127,15.691562324563506 L 16.754173452256673,15.516736585181434 L 17.207106781186152,15.457106781186866 L 17.660040110115542,15.516736585180524 L 18.082106781186134,15.691562324564558 L 18.444543648262556,15.969669914110284 L 18.722651237808833,16.332106781187065 L 18.897476977191904,16.75417345225688 L 18.957106781186024,17.207106781186468 L 18.897476977192532,17.6600401101162 M 18.439576690024957,196.03527718678853 L 18.076028664019965,196.31193066456777 L 17.653265047662323,196.48506425074802 L 17.200096482756667,196.54287917754775 L 16.747405658105084,196.48143545324925 L 16.32604270530039,196.304920366123 L 15.964722813241181,196.02536312765156 L 15.688069335461918,195.66181510164662 L 15.514935749281623,195.2390514852889 L 15.457120822481873,194.78588292038322 L 15.518564546780393,194.33319209573162 L 15.695079633906609,193.9118291429269 L 15.974636872378078,193.55050925086775 L 16.33818489838302,193.27385577308846 L 16.760948514740754,193.1007221869082 L 17.214117079646275,193.04290726010854 L 17.666807904297947,193.10435098440698 L 18.088170857102504,193.28086607153315 L 18.449490749161807,193.56042331000467 L 18.72614422694116,193.9239713360096 L 18.89927781312123,194.34673495236714 L 18.957092739921023,194.79990351727278 L 18.895649015622592,195.2525943419246 L 18.719133928496287,195.67395729472915 L 18.439576690024957,196.03527718678853 M 235.27693504259804,194.34673495238243 L 235.3347499693898,194.79990351728904 L 235.27330624508335,195.25259434193967 L 235.09679115794975,195.6739572947412 L 234.817233919472,196.03527718679564 L 234.4536858934622,196.31193066456856 L 234.03092227710147,196.48506425074143 L 233.57775371219486,196.54287917753314 L 233.12506288754435,196.48143545322685 L 232.7036999347428,196.3049203660931 L 232.3423800426884,196.0253631276154 L 232.06572656491548,195.66181510160575 L 231.89259297874264,195.23905148524491 L 231.83477805195082,194.7858829203382 L 231.89622177625725,194.33319209568774 L 232.07273686339093,193.91182914288615 L 232.35229410186858,193.55050925083182 L 232.71584212787843,193.27385577305884 L 233.1386057442391,193.10072218688597 L 233.5917743091457,193.04290726009415 L 234.04446513379634,193.1043509844006 L 234.46582808659784,193.28086607153423 L 234.82714797865216,193.560423310012 L 235.10380145642515,193.92397133602176 L 235.27693504259804,194.34673495238243 M 235.10030846729197,16.332106781185843 L 235.2751342066751,16.754173452256452 L 235.33476401066926,17.207106781185814 L 235.2751342066751,17.660040110115318 L 235.10030846729205,18.0821067811859 L 234.8222008777458,18.44454364826231 L 234.45976401066926,18.72265123780869 L 234.03769733959876,18.897476977191815 L 233.5847640106693,18.957106781185928 L 233.1318306817399,18.897476977191843 L 232.70976401066932,18.722651237808776 L 232.34732714359288,18.44454364826251 L 232.06921955404653,18.082106781185985 L 231.8943938146634,17.660040110115432 L 231.83476401066923,17.207106781186013 L 231.89439381466332,16.75417345225665 L 232.06921955404644,16.332106781186013 L 232.3473271435927,15.969669914109602 L 232.70976401066912,15.69156232456325 L 233.13183068173973,15.516736585180126 L 233.58476401066912,15.457106781185956 L 234.0376973395986,15.516736585180041 L 234.45976401066918,15.691562324563137 L 234.82220087774562,15.96966991410946 L 235.10030846729197,16.332106781185843 M 205.3995368686767,21.500000000000682 L 191.45453686867674,21.50000000000057 L 191.45453686867674,19.50000000000057 L 205.3995368686767,19.500000000000455 L 205.3995368686767,21.500000000000682 M 32.00000000000005,14.999999999999574 L 32.00000000000005,19.499999999999602 L 22.000000000000068,19.500000000000142 L 21.99999999999939,15.000000000000028 L 32.00000000000005,14.999999999999574 M 223.34453686867573,19.499999999999915 L 223.34453686867573,21.499999999999943 L 209.39953686867662,21.499999999999915 L 209.3995368686767,19.499999999999687 L 223.34453686867573,19.499999999999915 M 100.72499999999951,14.999999999999943 L 110.72499999999947,15.000000000000028 L 110.72499999999947,19.50000000000017 L 100.72499999999951,19.500000000000142 L 100.72499999999951,14.999999999999943 M 14.999999999453095,101.00000000009433 L 17.99999999965139,101.00000000009433 L 17.999999999651436,111.00000000003487 L 14.999999999453095,111.0000000000347 L 14.999999999453095,101.00000000009433 M 189.4499999999987,15.000000000000398 L 189.4499999999987,19.500000000000398 L 179.44999999999874,19.500000000000455 L 179.44999999999874,15.000000000000398 L 189.4499999999987,15.000000000000398 M 188.59187079185642,43.84383582557379 L 188.63080495779178,43.696795491743615 L 188.67246335809074,43.63265580845237 L 188.7266554126266,43.57868783171287 L 188.7909671540631,43.537295547388794 L 188.8625338369231,43.51032276124076 L 188.93816754673725,43.498970967201245 L 189.01449920465163,43.50374582722111 L 189.26147220163824,43.669500740886065 L 193.89187079185638,51.107892050473254 L 193.89187079185646,71.70528160870626 L 193.85293662592096,71.85232194253629 L 193.81127822562203,71.91646162582751 L 193.75708617108626,71.97042960256718 L 193.69277442964966,72.01182188689111 L 193.62120774678968,72.03879467303918 L 193.54557403697555,72.05014646707869 L 193.46924237906114,72.04537160705874 L 193.22226938207442,71.87961669339384 L 188.59187079185628,64.4412253838066 L 188.59187079185642,43.84383582557379 M 188.5918707918564,70.51050249224036 L 188.63080495779178,70.36346215841027 L 188.67246335809074,70.299322475119 L 188.7266554126266,70.24535449837944 L 188.7909671540631,70.20396221405545 L 188.8625338369231,70.17698942790744 L 188.93816754673725,70.16563763386787 L 189.01449920465163,70.17041249388777 L 189.26147220163824,70.33616740755272 L 193.89187079185632,77.77455871713991 L 193.8918707918564,98.37194827537289 L 193.8529366259209,98.51898860920298 L 193.811278225622,98.58312829249414 L 193.75708617108623,98.63709626923381 L 193.6927744296496,98.67848855355774 L 193.62120774678965,98.70546133970586 L 193.5455740369755,98.71681313374532 L 193.46924237906111,98.71203827372543 L 193.22226938207444,98.54628336006053 L 188.59187079185628,91.10789205047328 L 188.5918707918564,70.51050249224036 M 188.59187079185673,97.15655646698505 L 188.63080495779224,97.00951613315496 L 188.6724633580912,96.94537644986369 L 188.72665541262694,96.89140847312413 L 188.79096715406357,96.85001618880014 L 188.86253383692352,96.82304340265213 L 188.93816754673728,96.83230430053456 L 189.01449920465166,96.8370791605544 L 189.2614722016386,96.98222138229741 L 193.8918707918568,104.42061269188454 L 193.89187079185683,125.01800225011758 L 193.85293662592122,125.16504258394761 L 193.81127822562243,125.22918226723888 L 193.7570861710866,125.28315024397844 L 193.69277442965,125.32454252830243 L 193.62120774679005,125.35151531445055 L 193.5455740369759,125.36286710849001 L 193.4692423790615,125.35809224847006 L 193.2222693820749,125.19233733480516 L 188.59187079185685,117.75394602521791 L 188.59187079185673,97.15655646698505 M 188.59187079185725,123.80261044172968 L 188.6308049577927,123.65557010789948 L 188.7266554126274,123.53746244786865 L 188.86253383692386,123.46909737739665 L 189.0144992046525,123.46252044337703 L 189.2614722016391,123.62827535704204 L 193.89187079185714,131.06666666662923 L 193.89187079185712,151.66405622486215 L 193.85293662592184,151.81109655869236 L 193.62120774679053,151.99756928919518 L 193.4692423790619,152.00414622321486 L 193.22226938207527,151.83839130954996 L 188.59187079185713,144.39999999996266 L 188.59187079185725,123.80261044172968 M 188.59187079185716,150.4692771083963 L 188.63080495779266,150.32223677456628 L 188.72665541262737,150.20412911453533 L 188.862533836924,150.13576404406328 L 189.01449920465248,150.12918711004383 L 189.26147220163918,150.29494202370867 L 193.89187079185714,157.73333333329603 L 193.89187079185714,178.33072289152884 L 193.8112782256228,178.54190290865026 L 193.6212077467904,178.6642359558618 L 193.46924237906182,178.67081288988155 L 193.22226938207515,178.50505797621653 L 188.59187079185713,171.0666666666293 L 188.59187079185716,150.4692771083963 M 196.8918707918564,30.510502492240363 L 196.9308049577919,30.363462158410016 L 196.97246335809083,30.2993224751188 L 197.0266554126266,30.24535449837913 L 197.0909671540632,30.20396221405511 L 197.1625338369232,30.176989427907188 L 197.23816754673726,30.165637633867647 L 197.31449920465172,30.170412493887653 L 197.56147220163834,30.336167407552637 L 202.1918707918564,37.77455871713971 L 202.19187079185647,58.371948275372716 L 202.15293662592097,58.51898860920281 L 202.11127822562204,58.583128292494024 L 202.05708617108627,58.63709626923364 L 201.99277442964964,58.67848855355763 L 201.9212077467897,58.70546133970569 L 201.84557403697553,58.71681313374515 L 201.76924237906113,58.712038273725256 L 201.5222693820745,58.54628336006036 L 196.8918707918564,51.107892050473026 L 196.8918707918564,30.510502492240363 M 196.8918707918564,57.17716915890682 L 196.9308049577918,57.03012882507673 L 196.97246335809075,56.96598914178546 L 197.02665541262652,56.9120211650459 L 197.0909671540631,56.87062888072191 L 197.16253383692307,56.843656094573845 L 197.23816754673726,56.83230430053433 L 197.31449920465164,56.837079160554225 L 197.56147220163834,57.00283407421918 L 202.19187079185647,64.44122538380637 L 202.19187079185633,85.03861494203935 L 202.15293662592094,85.18565527586944 L 202.11127822562202,85.2497949591606 L 202.0570861710862,85.30376293590027 L 201.99277442964961,85.3451552202242 L 201.92120774678963,85.37212800637232 L 201.84557403697548,85.38347980041178 L 201.76924237906107,85.37870494039188 L 201.52226938207448,85.21295002672699 L 196.89187079185635,77.77455871713968 L 196.8918707918564,57.17716915890682 M 196.89187079185655,83.7562278916329 L 196.93080495779202,83.60918755780276 L 196.97246335809098,83.54504787451148 L 197.02665541262672,83.49107989777193 L 197.09096715406335,83.44968761344794 L 197.1625338369233,83.42271482729993 L 197.2381675467375,83.41136303326041 L 197.31449920465175,83.41613789328025 L 197.5614722016384,83.5818928069452 L 202.19187079185664,91.0202841165324 L 202.19187079185664,111.61767367476537 L 202.15293662592106,111.76471400859546 L 202.11127822562221,111.82885369188668 L 202.05708617108644,111.88282166862629 L 201.99277442964984,111.92421395295028 L 201.9212077467899,111.95118673909835 L 201.8455740369757,111.9625385331378 L 201.76924237906132,111.95776367311791 L 201.5222693820747,111.79200875945301 L 196.8918707918566,104.35361744986577 L 196.89187079185655,83.7562278916329 M 196.89187079185692,131.0666666666293 L 196.89187079185712,110.46927710839631 L 197.0266554126272,110.2041291145355 L 197.31449920465244,110.12918711004377 L 197.56147220163908,110.29494202370884 L 202.19187079185727,117.73333333329603 L 202.19187079185718,138.3307228915289 L 202.1529366259217,138.47776322535898 L 202.0570861710869,138.59587088538976 L 201.7692423790619,138.6708128898815 L 201.52226938207528,138.50505797621653 L 196.89187079185692,131.0666666666293 M 196.89187079185717,137.13594377506294 L 196.93080495779267,136.98890344123296 L 197.09096715406397,136.82940349687814 L 197.3144992046524,136.79585377671046 L 197.5614722016391,136.96160869037536 L 202.19187079185727,144.39999999996266 L 202.19187079185707,164.99738955819552 L 202.1529366259217,165.1444298920256 L 201.9212077467904,165.3309026225285 L 201.76924237906184,165.33747955654806 L 201.52226938207525,165.17172464288316 L 196.89187079185714,157.73333333329597 L 196.89187079185717,137.13594377506294 M 196.89187079185726,184.39999999996266 L 196.89187079185712,163.80261044172968 L 197.02665541262735,163.5374624478687 L 197.3144992046525,163.4625204433771 L 197.56147220163902,163.62827535704199 L 202.1918707918571,171.0666666666294 L 202.1918707918572,184.39999999996272 L 196.89187079185726,184.39999999996266 M 201.52226938207426,31.879616693393558 L 196.89187079185632,24.441225383806653 L 202.19187079185627,24.441225383806596 L 202.1918707918562,31.705281608705945 L 202.15293662592072,31.852321942536292 L 202.11127822562176,31.91646162582731 L 202.057086171086,31.970429602566924 L 201.9927744296494,32.011821886890885 L 201.92120774678943,32.03879467303878 L 201.84557403697525,32.05014646707829 L 201.76924237906087,32.04537160705871 L 201.52226938207426,31.879616693393558 M 205.1918707918565,37.77455871713971 L 205.19187079185642,24.441225383806596 L 210.49187079185606,24.44122538380617 L 210.49187079185648,45.038614942039345 L 210.45293662592098,45.185655275869436 L 210.41127822562206,45.24979495916065 L 210.35708617108628,45.303762935900295 L 210.29277442964965,45.34515522022426 L 210.2212077467897,45.37212800637232 L 210.14557403697552,45.383479800411806 L 210.06924237906117,45.378704940391884 L 209.82226938207452,45.212950026726986 L 205.1918707918565,37.77455871713971 M 205.1918707918565,43.84383582557351 L 205.2308049577919,43.69679549174339 L 205.27246335809085,43.63265580845214 L 205.32665541262662,43.578687831712585 L 205.39096715406322,43.53729554738857 L 205.46253383692317,43.51032276124056 L 205.53816754673736,43.49897096720102 L 205.61449920465174,43.50374582722088 L 205.86147220163826,43.66950074088584 L 210.49187079185648,51.10789205047308 L 210.49187079185643,71.70528160870603 L 210.45293662592104,71.85232194253607 L 210.41127822562208,71.91646162582728 L 210.3570861710863,71.97042960256695 L 210.29277442964968,72.01182188689089 L 210.22120774678973,72.03879467303895 L 210.14557403697555,72.05014646707846 L 210.0692423790612,72.04537160705851 L 209.82226938207458,71.87961669339361 L 205.19187079185642,64.44122538380637 L 205.1918707918565,43.84383582557351 M 205.1918707918565,70.51050249224014 L 205.2308049577919,70.36346215841004 L 205.27246335809085,70.29932247511877 L 205.32665541262662,70.24535449837921 L 205.39096715406322,70.20396221405522 L 205.46253383692317,70.17698942790722 L 205.53816754673736,70.16563763386765 L 205.61449920465174,70.17041249388754 L 205.86147220163835,70.3361674075525 L 210.49187079185643,77.77455871713974 L 210.49187079185643,98.37194827537272 L 210.45293662592104,98.51898860920281 L 210.41127822562208,98.58312829249397 L 210.3570861710863,98.63709626923364 L 210.2927744296497,98.67848855355757 L 210.22120774678976,98.70546133970569 L 210.14557403697557,98.71681313374515 L 210.0692423790612,98.71203827372526 L 209.82226938207458,98.5462833600603 L 205.19187079185645,91.10789205047305 L 205.1918707918565,70.51050249224014 M 205.1918707918571,144.39999999996277 L 205.19187079185704,123.80261044172963 L 205.32665541262716,123.5374624478687 L 205.4625338369239,123.46909737739671 L 205.61449920465245,123.46252044337714 L 205.861472201639,123.62827535704204 L 210.49187079185657,131.0666666666293 L 210.49187079185668,151.66405622486215 L 210.4112782256224,151.87523624198363 L 210.29277442965002,151.97059650304723 L 210.06924237906154,152.00414622321486 L 209.8222693820749,151.83839130954996 L 205.1918707918571,144.39999999996277 M 205.191870791857,150.46927710839626 L 205.23080495779243,150.32223677456622 L 205.4625338369237,150.13576404406328 L 205.61449920465233,150.12918711004377 L 205.8614722016389,150.29494202370867 L 210.49187079185668,157.73333333329597 L 210.49187079185657,178.3307228915289 L 210.35708617108654,178.59587088538981 L 210.22120774678987,178.6642359558618 L 210.06924237906154,178.67081288988155 L 209.82226938207492,178.5050579762166 L 205.19187079185704,171.0666666666293 L 205.191870791857,150.46927710839626 M 205.19187079185707,184.39999999996266 L 205.19187079185727,177.135943775063 L 205.32665541262745,176.87079578120213 L 205.46253383692388,176.80243071073008 L 205.61449920465247,176.79585377671046 L 205.86147220163903,176.96160869037536 L 210.12039191357096,183.8032467818326 L 210.21257273870157,184.08604184565579 L 210.06202844100986,184.3425701424911 L 209.77018573660328,184.39999999996272 L 205.19187079185707,184.39999999996266 M 205.34629559344728,97.05632577178702 L 205.38522975938275,96.90928543795687 L 205.42688815968168,96.8451457546656 L 205.48108021421746,96.7911777779261 L 205.54539195565405,96.74978549360205 L 205.616958638514,96.72281270745404 L 205.6925923483282,96.71146091341453 L 205.7689240062425,96.71623577343436 L 206.0158970032291,96.88199068709932 L 210.64629559344735,104.3203819966865 L 210.64629559344735,124.91777155491948 L 210.60736142751176,125.06481188874957 L 210.56570302721292,125.12895157204079 L 210.51151097267714,125.1829195487804 L 210.44719923124055,125.2243118331044 L 210.37563254838057,125.25128461925246 L 210.29999883856644,125.26263641329192 L 210.223667180652,125.25786155327202 L 209.9766941836654,125.09210663960712 L 205.34629559344728,117.65371533001982 L 205.34629559344728,97.05632577178702 M 213.49187079185668,30.510502492240136 L 213.5308049577921,30.3634621584101 L 213.57246335809103,30.299322475118714 L 213.6266554126269,30.245354498379214 L 213.6909671540634,30.203962214055224 L 213.76253383692338,30.176989427907216 L 213.83816754673754,30.165637633867732 L 213.91449920465192,30.17041249388751 L 214.16147220163856,30.336167407552608 L 218.79187079185667,37.77455871713971 L 218.79187079185667,38.64099399996283 L 218.79187079185667,58.371948275372716 L 218.75293662592125,58.51898860920281 L 218.71127822562224,58.583128292494024 L 218.65708617108646,58.63709626923364 L 218.59277442964984,58.67848855355763 L 218.52120774678988,58.70546133970569 L 218.44557403697573,58.71681313374515 L 218.36924237906135,58.712038273725256 L 218.1222693820747,58.54628336006036 L 213.4918707918566,51.107892050473026 L 213.49187079185668,30.510502492240136 M 213.4918707918566,57.17716915890682 L 213.5308049577921,57.03012882507673 L 213.572463358091,56.96598914178546 L 213.6266554126268,56.9120211650459 L 213.6909671540634,56.87062888072191 L 213.76253383692338,56.843656094573845 L 213.83816754673754,56.83230430053433 L 213.91449920465183,56.837079160554225 L 214.16147220163845,57.00283407421918 L 218.79187079185667,64.44122538380637 L 218.79187079185667,85.03861494203935 L 218.75293662592108,85.18565527586944 L 218.71127822562224,85.2497949591606 L 218.65708617108646,85.30376293590027 L 218.59277442964984,85.3451552202242 L 218.52120774678988,85.37212800637232 L 218.44557403697573,85.38347980041178 L 218.36924237906135,85.37870494039188 L 218.1222693820747,85.21295002672699 L 213.49187079185666,77.77455871713968 L 213.4918707918566,57.17716915890682 M 213.4918707918566,83.34584415890683 L 213.5308049577921,83.19880382507668 L 213.57246335809103,83.13466414178546 L 213.6266554126268,83.08069616504591 L 213.6909671540634,83.03930388072186 L 213.76253383692338,83.01233109457385 L 213.83816754673754,83.00097930053434 L 213.91449920465183,83.00575416055418 L 214.16147220163845,83.17150907421913 L 218.79187079185667,90.60990038380632 L 218.79187079185667,111.2072899420393 L 218.75293662592108,111.35433027586939 L 218.71127822562224,111.4184699591606 L 218.65708617108646,111.47243793590022 L 218.59277442964984,111.51383022022421 L 218.52120774678988,111.54080300637227 L 218.44557403697573,111.55215480041173 L 218.36924237906135,111.54737994039183 L 218.1222693820747,111.38162502672694 L 213.49187079185666,103.94323371713963 L 213.4918707918566,83.34584415890683 M 213.49187079185668,131.06666666662917 L 213.49187079185677,110.46927710839643 L 213.5724633580911,110.25809709127512 L 213.6909671540636,110.16273683021163 L 213.9144992046521,110.12918711004389 L 214.16147220163856,110.29494202370878 L 218.79187079185675,117.73333333329603 L 218.79187079185667,138.3307228915289 L 218.65708617108643,138.59587088538981 L 218.52120774678988,138.66423595586193 L 218.36924237906135,138.6708128898815 L 218.1222693820747,138.5050579762166 L 213.49187079185668,131.06666666662917 M 213.49187079185663,157.73333333329603 L 213.49187079185668,137.13594377506294 L 213.6266554126268,136.87079578120213 L 213.914499204652,136.79585377671052 L 214.16147220163856,136.96160869037536 L 218.79187079185667,144.39999999996277 L 218.79187079185658,164.99738955819564 L 218.71127822562224,165.208569575317 L 218.52120774678988,165.3309026225285 L 218.36924237906132,165.3374795565483 L 218.12226938207473,165.17172464288333 L 213.49187079185663,157.73333333329603 M 218.79187079185667,184.39999999996266 L 213.49187079185677,184.39999999996266 L 213.4918707918567,163.80261044172968 L 213.530804957792,163.6555701078996 L 213.76253383692338,163.4690973773967 L 213.91449920465192,163.4625204433772 L 214.16147220163856,163.6282753570421 L 218.79187079185647,171.0666666666294 L 218.79187079185667,184.39999999996266 M 218.12226938207453,31.879616693393615 L 213.4918707918563,24.44122538380617 L 218.79187079185616,24.44122538380617 L 218.79187079185647,31.705281608705945 L 218.75293662592108,31.85232194253618 L 218.71127822562207,31.91646162582728 L 218.6570861710863,31.970429602566924 L 218.59277442964967,32.011821886890914 L 218.5212077467897,32.03879467303901 L 218.44557403697553,32.05014646707849 L 218.36924237906115,32.04537160705857 L 218.12226938207453,31.879616693393615 M 193.4103701960063,30.8570666710705 L 193.47000000000045,31.310000000000542 L 193.4103701960063,31.762933328929705 L 193.23554445662322,32.18499999999983 L 192.95743686707692,32.54743686707636 L 192.59500000000045,32.82554445662271 L 192.17293332892987,33.00037019600583 L 191.72000000000043,33.05999999999986 L 191.26706667107103,33.00037019600552 L 190.84500000000045,32.82554445662262 L 190.48256313292399,32.5474368670765 L 190.20445554337766,32.18499999999983 L 190.0296298039946,31.762933328929705 L 189.97000000000043,31.310000000000713 L 190.0296298039946,30.857066671070726 L 190.20445554337766,30.43500000000023 L 190.48256313292399,30.072563132923506 L 190.84500000000045,29.794455543377637 L 191.26706667107103,29.619629803994144 L 191.72000000000043,29.56000000000006 L 192.17293332892987,29.61962980399423 L 192.59500000000045,29.794455543377296 L 192.95743686707692,30.07256313292345 L 193.23554445662322,30.43499999999983 L 193.4103701960063,30.8570666710705 M 227.24629559344763,104.3203819966864 L 227.24629559344763,124.91777155491937 L 227.20736142751207,125.06481188874946 L 227.1657030272132,125.12895157204068 L 227.11151097267745,125.18291954878035 L 227.04719923124082,125.22431183310434 L 226.97563254838087,125.25128461925235 L 226.8999988385667,125.26263641329186 L 226.8236671806523,125.25786155327191 L 226.5766941836657,125.09210663960701 L 221.9462955934475,117.65371533001976 L 221.94629559344747,97.05632577178696 L 221.98522975938297,96.90928543795681 L 222.0268881596819,96.8451457546656 L 222.08108021421768,96.79117777792604 L 222.1453919556543,96.74978549360199 L 222.21695863851426,96.72281270745398 L 222.2925923483284,96.71146091341447 L 222.3689240062427,96.7162357734343 L 222.61589700322935,96.88199068709926 L 227.24629559344763,104.3203819966864 M 227.0918707918563,24.441225383806056 L 227.09187079185676,45.03861494203932 L 227.05293662592126,45.18565527586941 L 227.01127822562233,45.249794959160596 L 226.95708617108656,45.30376293590024 L 226.89277442964993,45.3451552202242 L 226.82120774678998,45.37212800637229 L 226.74557403697582,45.38347980041175 L 226.66924237906144,45.378704940391856 L 226.4222693820748,45.21295002672693 L 221.79187079185675,37.774558717139655 L 221.79187079185652,24.441225383806426 L 227.0918707918563,24.441225383806056 M 227.09187079185676,51.107892050473026 L 227.0918707918567,71.70528160870597 L 227.05293662592132,71.85232194253607 L 227.0112782256224,71.91646162582722 L 226.95708617108662,71.9704296025669 L 226.89277442965,72.01182188689083 L 226.82120774679004,72.03879467303895 L 226.74557403697585,72.0501464670784 L 226.66924237906147,72.04537160705851 L 226.42226938207486,71.87961669339361 L 221.79187079185667,64.44122538380631 L 221.79187079185675,43.84383582557348 L 221.83080495779214,43.69679549174333 L 221.87246335809107,43.632655808452085 L 221.92665541262684,43.57868783171256 L 221.99096715406347,43.53729554738854 L 222.06253383692342,43.5103227612405 L 222.1381675467376,43.49897096720099 L 222.214499204652,43.503745827220854 L 222.46147220163851,43.66950074088578 L 227.09187079185676,51.107892050473026 M 227.0918707918567,77.77455871713968 L 227.0918707918567,98.37194827537266 L 227.05293662592132,98.51898860920275 L 227.0112782256224,98.58312829249397 L 226.95708617108662,98.63709626923358 L 226.89277442965,98.67848855355751 L 226.82120774679004,98.70546133970564 L 226.74557403697585,98.71681313374509 L 226.66924237906147,98.7120382737252 L 226.42226938207486,98.5462833600603 L 221.79187079185667,91.107892050473 L 221.79187079185675,70.51050249224014 L 221.83080495779214,70.36346215840999 L 221.87246335809107,70.29932247511871 L 221.92665541262684,70.24535449837921 L 221.99096715406347,70.20396221405517 L 222.06253383692342,70.17698942790716 L 222.1381675467376,70.16563763386765 L 222.214499204652,70.17041249388748 L 222.4614722016386,70.33616740755244 L 227.0918707918567,77.77455871713968 M 227.09187079185685,131.06666666662923 L 227.09187079185693,151.6640562248621 L 227.0112782256227,151.87523624198357 L 226.89277442965033,151.97059650304718 L 226.66924237906179,152.0041462232148 L 226.42226938207517,151.8383913095499 L 221.79187079185738,144.39999999996266 L 221.7918707918573,123.80261044172957 L 221.92665541262738,123.53746244786865 L 222.06253383692413,123.46909737739665 L 222.2144992046527,123.46252044337709 L 222.46147220163922,123.62827535704199 L 227.09187079185685,131.06666666662923 M 227.09187079185693,157.73333333329592 L 227.09187079185685,178.33072289152884 L 226.95708617108684,178.59587088538976 L 226.82120774679018,178.6642359558617 L 226.66924237906179,178.67081288988155 L 226.42226938207517,178.50505797621653 L 221.79187079185735,171.06666666662923 L 221.7918707918573,150.46927710839626 L 221.83080495779265,150.32223677456622 L 222.062533836924,150.13576404406317 L 222.21449920465264,150.12918711004372 L 222.46147220163914,150.29494202370861 L 227.09187079185693,157.73333333329592 M 235.79187079185652,111.00000000003482 L 232.7918707916582,111.00000000003482 L 232.7918707916582,101.00000000009433 L 235.79187079185652,101.00000000009433 L 235.79187079185652,111.00000000003482 M 221.79187079185667,184.39999999996266 L 221.79187079185755,177.135943775063 L 221.92665541262778,176.87079578120208 L 222.06253383692422,176.80243071073008 L 222.21449920465275,176.79585377671035 L 222.4614722016393,176.96160869037524 L 226.72039191357118,183.80324678183254 L 226.8125727387018,184.08604184565573 L 226.6620284410101,184.34257014249098 L 226.37018573660356,184.3999999999626 L 221.79187079185667,184.39999999996266 "
  />
  <path id="face0-interior"
 style="fill:none;stroke:#FF0000;stroke-width:1;stroke-miterlimit:4;stroke-dasharray:none;stroke-linejoin:round;stroke-linecap:round"
        d="M 237.04187079185735,31.2500000000002 M 240.79187079185562,17.999999999999062 M 232.7918707918556,10.0 M 17.999999999999083,10.0 M 10.0,18.000000000000824 M 13.750000000001041,31.250000000000256 M 13.749999999768225,180.7500000000749 M 10.000000000000856,194.0000000001411 M 18.000000000141434,202.00000000000037 M 31.250000000075524,198.24999999976765 M 219.54187079185664,198.25000000000117 M 232.79187079185732,202.00000000000037 M 240.79187079185633,193.99999999999974 M 237.0418707918557,180.75000000000003 M 34.24000000000045,55.919999999999874 M 33.78706667107099,55.860370196005846 M 33.36500000000044,55.685544456622694 M 33.002563132923974,55.40743686707643 M 32.72445554337766,55.044999999999874 M 32.549629803994534,54.62293332892946 M 32.49000000000037,54.17000000000013 M 32.549629803994534,53.7170666710706 M 32.72445554337766,53.294999999999845 M 33.002563132923925,52.93256313292318 M 33.36500000000035,52.65445554337714 M 33.787066671070946,52.479629803993845 M 34.24000000000042,52.41999999999982 M 34.69293332892984,52.479629803994214 M 35.11500000000041,52.654455543377054 M 35.47743686707683,52.93256313292355 M 35.7555444566232,53.29499999999979 M 35.93037019600631,53.717066671070484 M 35.990000000000364,54.169999999999675 M 35.93037019600631,54.622933328929236 M 35.7555444566232,55.04499999999982 M 35.477436867076875,55.40743686707631 M 35.11500000000045,55.68554445662258 M 34.69293332892984,55.86037019600562 M 33.78706667107108,187.94037019600555 M 33.36500000000049,187.76554445662245 M 33.002563132923974,187.48743686707607 M 32.7244555433777,187.1249999999997 M 32.549629803994584,186.70293332892916 M 32.490000000000464,186.24999999999963 M 32.549629803994634,185.79706667107033 M 32.7244555433777,185.37499999999963 M 33.002563132923974,185.01256313292313 M 33.36500000000044,184.73445554337692 M 33.78706667107103,184.55962980399383 M 34.24000000000045,184.4999999999997 M 34.692933328929854,184.5596298039939 M 35.11500000000045,184.73445554337692 M 35.47743686707692,185.01256313292325 M 35.75554445662326,185.37499999999974 M 35.93037019600638,185.79706667107027 M 35.99000000000045,186.24999999999963 M 35.93037019600635,186.7029333289291 M 35.75554445662321,187.12499999999957 M 35.47743686707692,187.48743686707613 M 35.11500000000038,187.7655444566224 M 34.692933328929904,187.9403701960056 M 34.24000000000042,187.99999999999963 M 190.84499999999977,187.76554445662245 M 190.48256313292327,187.48743686707613 M 190.20445554337695,187.1249999999997 M 190.0296298039939,186.7029333289291 M 189.96999999999974,186.24999999999963 M 190.0296298039939,185.79706667107027 M 190.20445554337695,185.37499999999974 M 190.48256313292327,185.01256313292325 M 190.84499999999974,184.73445554337687 M 191.26706667107032,184.55962980399383 M 191.7199999999997,184.49999999999974 M 192.17293332892916,184.55962980399383 M 192.59499999999971,184.73445554337692 M 192.9574368670762,185.01256313292325 M 193.23554445662248,185.3749999999997 M 193.4103701960056,185.7970666710702 M 193.46999999999971,186.24999999999963 M 193.41037019600557,186.7029333289291 M 193.23554445662248,187.1249999999997 M 192.95743686707624,187.48743686707613 M 192.59499999999971,187.76554445662245 M 192.17293332892913,187.94037019600555 M 191.7199999999997,187.9999999999997 M 191.2670666710703,187.94037019600555 M 168.79187079185672,197.00000000000048 M 168.79187079185678,194.00000000000054 M 178.79187079185684,194.00000000000054 M 178.79187079185684,197.00000000000043 M 82.00000000000038,193.9999999999994 M 82.00000000000041,196.9999999999993 M 72.00000000000047,196.99999999999935 M 72.00000000000057,193.99999999999952 M 18.897476977192532,17.6600401101162 M 18.72265123780942,18.082106781186894 M 18.444543648263053,18.444543648262766 M 18.082106781186585,18.722651237810226 M 17.66004011011604,18.897476977192213 M 17.20710678118656,18.95710678118587 M 16.75417345225649,18.897476977192298 M 16.3321067811859,18.722651237810084 M 15.969669914109478,18.444543648262595 M 15.6915623245632,18.08210678118661 M 15.516736585180134,17.66004011011563 M 15.457106781185963,17.207106781186496 M 15.516736585180176,16.754173452256936 M 15.691562324563339,16.33210678118678 M 15.969669914109659,15.969669914110227 M 16.332106781186127,15.691562324563506 M 16.754173452256673,15.516736585181434 M 17.207106781186152,15.457106781186866 M 17.660040110115542,15.516736585180524 M 18.082106781186134,15.691562324564558 M 18.444543648262556,15.969669914110284 M 18.722651237808833,16.332106781187065 M 18.897476977191904,16.75417345225688 M 18.957106781186024,17.207106781186468 M 18.439576690024957,196.03527718678853 M 18.076028664019965,196.31193066456777 M 17.653265047662323,196.48506425074802 M 17.200096482756667,196.54287917754775 M 16.747405658105084,196.48143545324925 M 16.32604270530039,196.304920366123 M 15.964722813241181,196.02536312765156 M 15.688069335461918,195.66181510164662 M 15.514935749281623,195.2390514852889 M 15.457120822481873,194.78588292038322 M 15.518564546780393,194.33319209573162 M 15.695079633906609,193.9118291429269 M 15.974636872378078,193.55050925086775 M 16.33818489838302,193.27385577308846 M 16.760948514740754,193.1007221869082 M 17.214117079646275,193.04290726010854 M 17.666807904297947,193.10435098440698 M 18.088170857102504,193.28086607153315 M 18.449490749161807,193.56042331000467 M 18.72614422694116,193.9239713360096 M 18.89927781312123,194.34673495236714 M 18.957092739921023,194.79990351727278 M 18.895649015622592,195.2525943419246 M 18.719133928496287,195.67395729472915 M 235.27693504259804,194.34673495238243 M 235.3347499693898,194.79990351728904 M 235.27330624508335,195.25259434193967 M 235.09679115794975,195.6739572947412 M 234.817233919472,196.03527718679564 M 234.4536858934622,196.31193066456856 M 234.03092227710147,196.48506425074143 M 233.57775371219486,196.54287917753314 M 233.12506288754435,196.48143545322685 M 232.7036999347428,196.3049203660931 M 232.3423800426884,196.0253631276154 M 232.06572656491548,195.66181510160575 M 231.89259297874264,195.23905148524491 M 231.83477805195082,194.7858829203382 M 231.89622177625725,194.33319209568774 M 232.07273686339093,193.91182914288615 M 232.35229410186858,193.55050925083182 M 232.71584212787843,193.27385577305884 M 233.1386057442391,193.10072218688597 M 233.5917743091457,193.04290726009415 M 234.04446513379634,193.1043509844006 M 234.46582808659784,193.28086607153423 M 234.82714797865216,193.560423310012 M 235.10380145642515,193.92397133602176 M 235.10030846729197,16.332106781185843 M 235.2751342066751,16.754173452256452 M 235.33476401066926,17.207106781185814 M 235.2751342066751,17.660040110115318 M 235.10030846729205,18.0821067811859 M 234.8222008777458,18.44454364826231 M 234.45976401066926,18.72265123780869 M 234.03769733959876,18.897476977191815 M 233.5847640106693,18.957106781185928 M 233.1318306817399,18.897476977191843 M 232.70976401066932,18.722651237808776 M 232.34732714359288,18.44454364826251 M 232.06921955404653,18.082106781185985 M 231.8943938146634,17.660040110115432 M 231.83476401066923,17.207106781186013 M 231.89439381466332,16.75417345225665 M 232.06921955404644,16.332106781186013 M 232.3473271435927,15.969669914109602 M 232.70976401066912,15.69156232456325 M 233.13183068173973,15.516736585180126 M 233.58476401066912,15.457106781185956 M 234.0376973395986,15.516736585180041 M 234.45976401066918,15.691562324563137 M 234.82220087774562,15.96966991410946 M 205.3995368686767,21.500000000000682 M 191.45453686867674,21.50000000000057 M 191.45453686867674,19.50000000000057 M 205.3995368686767,19.500000000000455 M 32.00000000000005,14.999999999999574 M 32.00000000000005,19.499999999999602 M 22.000000000000068,19.500000000000142 M 21.99999999999939,15.000000000000028 M 223.34453686867573,19.499999999999915 M 223.34453686867573,21.499999999999943 M 209.39953686867662,21.499999999999915 M 209.3995368686767,19.499999999999687 M 100.72499999999951,14.999999999999943 M 110.72499999999947,15.000000000000028 M 110.72499999999947,19.50000000000017 M 100.72499999999951,19.500000000000142 M 14.999999999453095,101.00000000009433 M 17.99999999965139,101.00000000009433 M 17.999999999651436,111.00000000003487 M 14.999999999453095,111.0000000000347 M 189.4499999999987,15.000000000000398 M 189.4499999999987,19.500000000000398 M 179.44999999999874,19.500000000000455 M 179.44999999999874,15.000000000000398 M 188.59187079185642,43.84383582557379 M 188.63080495779178,43.696795491743615 M 188.67246335809074,43.63265580845237 M 188.7266554126266,43.57868783171287 M 188.7909671540631,43.537295547388794 M 188.8625338369231,43.51032276124076 M 188.93816754673725,43.498970967201245 M 189.01449920465163,43.50374582722111 M 189.26147220163824,43.669500740886065 M 193.89187079185638,51.107892050473254 M 193.89187079185646,71.70528160870626 M 193.85293662592096,71.85232194253629 M 193.81127822562203,71.91646162582751 M 193.75708617108626,71.97042960256718 M 193.69277442964966,72.01182188689111 M 193.62120774678968,72.03879467303918 M 193.54557403697555,72.05014646707869 M 193.46924237906114,72.04537160705874 M 193.22226938207442,71.87961669339384 M 188.59187079185628,64.4412253838066 M 188.5918707918564,70.51050249224036 M 188.63080495779178,70.36346215841027 M 188.67246335809074,70.299322475119 M 188.7266554126266,70.24535449837944 M 188.7909671540631,70.20396221405545 M 188.8625338369231,70.17698942790744 M 188.93816754673725,70.16563763386787 M 189.01449920465163,70.17041249388777 M 189.26147220163824,70.33616740755272 M 193.89187079185632,77.77455871713991 M 193.8918707918564,98.37194827537289 M 193.8529366259209,98.51898860920298 M 193.811278225622,98.58312829249414 M 193.75708617108623,98.63709626923381 M 193.6927744296496,98.67848855355774 M 193.62120774678965,98.70546133970586 M 193.5455740369755,98.71681313374532 M 193.46924237906111,98.71203827372543 M 193.22226938207444,98.54628336006053 M 188.59187079185628,91.10789205047328 M 188.59187079185673,97.15655646698505 M 188.63080495779224,97.00951613315496 M 188.6724633580912,96.94537644986369 M 188.72665541262694,96.89140847312413 M 188.79096715406357,96.85001618880014 M 188.86253383692352,96.82304340265213 M 188.93816754673728,96.83230430053456 M 189.01449920465166,96.8370791605544 M 189.2614722016386,96.98222138229741 M 193.8918707918568,104.42061269188454 M 193.89187079185683,125.01800225011758 M 193.85293662592122,125.16504258394761 M 193.81127822562243,125.22918226723888 M 193.7570861710866,125.28315024397844 M 193.69277442965,125.32454252830243 M 193.62120774679005,125.35151531445055 M 193.5455740369759,125.36286710849001 M 193.4692423790615,125.35809224847006 M 193.2222693820749,125.19233733480516 M 188.59187079185685,117.75394602521791 M 188.59187079185725,123.80261044172968 M 188.6308049577927,123.65557010789948 M 188.7266554126274,123.53746244786865 M 188.86253383692386,123.46909737739665 M 189.0144992046525,123.46252044337703 M 189.2614722016391,123.62827535704204 M 193.89187079185714,131.06666666662923 M 193.89187079185712,151.66405622486215 M 193.85293662592184,151.81109655869236 M 193.62120774679053,151.99756928919518 M 193.4692423790619,152.00414622321486 M 193.22226938207527,151.83839130954996 M 188.59187079185713,144.39999999996266 M 188.59187079185716,150.4692771083963 M 188.63080495779266,150.32223677456628 M 188.72665541262737,150.20412911453533 M 188.862533836924,150.13576404406328 M 189.01449920465248,150.12918711004383 M 189.26147220163918,150.29494202370867 M 193.89187079185714,157.73333333329603 M 193.89187079185714,178.33072289152884 M 193.8112782256228,178.54190290865026 M 193.6212077467904,178.6642359558618 M 193.46924237906182,178.67081288988155 M 193.22226938207515,178.50505797621653 M 188.59187079185713,171.0666666666293 M 196.8918707918564,30.510502492240363 M 196.9308049577919,30.363462158410016 M 196.97246335809083,30.2993224751188 M 197.0266554126266,30.24535449837913 M 197.0909671540632,30.20396221405511 M 197.1625338369232,30.176989427907188 M 197.23816754673726,30.165637633867647 M 197.31449920465172,30.170412493887653 M 197.56147220163834,30.336167407552637 M 202.1918707918564,37.77455871713971 M 202.19187079185647,58.371948275372716 M 202.15293662592097,58.51898860920281 M 202.11127822562204,58.583128292494024 M 202.05708617108627,58.63709626923364 M 201.99277442964964,58.67848855355763 M 201.9212077467897,58.70546133970569 M 201.84557403697553,58.71681313374515 M 201.76924237906113,58.712038273725256 M 201.5222693820745,58.54628336006036 M 196.8918707918564,51.107892050473026 M 196.8918707918564,57.17716915890682 M 196.9308049577918,57.03012882507673 M 196.97246335809075,56.96598914178546 M 197.02665541262652,56.9120211650459 M 197.0909671540631,56.87062888072191 M 197.16253383692307,56.843656094573845 M 197.23816754673726,56.83230430053433 M 197.31449920465164,56.837079160554225 M 197.56147220163834,57.00283407421918 M 202.19187079185647,64.44122538380637 M 202.19187079185633,85.03861494203935 M 202.15293662592094,85.18565527586944 M 202.11127822562202,85.2497949591606 M 202.0570861710862,85.30376293590027 M 201.99277442964961,85.3451552202242 M 201.92120774678963,85.37212800637232 M 201.84557403697548,85.38347980041178 M 201.76924237906107,85.37870494039188 M 201.52226938207448,85.21295002672699 M 196.89187079185635,77.77455871713968 M 196.89187079185655,83.7562278916329 M 196.93080495779202,83.60918755780276 M 196.97246335809098,83.54504787451148 M 197.02665541262672,83.49107989777193 M 197.09096715406335,83.44968761344794 M 197.1625338369233,83.42271482729993 M 197.2381675467375,83.41136303326041 M 197.31449920465175,83.41613789328025 M 197.5614722016384,83.5818928069452 M 202.19187079185664,91.0202841165324 M 202.19187079185664,111.61767367476537 M 202.15293662592106,111.76471400859546 M 202.11127822562221,111.82885369188668 M 202.05708617108644,111.88282166862629 M 201.99277442964984,111.92421395295028 M 201.9212077467899,111.95118673909835 M 201.8455740369757,111.9625385331378 M 201.76924237906132,111.95776367311791 M 201.5222693820747,111.79200875945301 M 196.8918707918566,104.35361744986577 M 196.89187079185692,131.0666666666293 M 196.89187079185712,110.46927710839631 M 197.0266554126272,110.2041291145355 M 197.31449920465244,110.12918711004377 M 197.56147220163908,110.29494202370884 M 202.19187079185727,117.73333333329603 M 202.19187079185718,138.3307228915289 M 202.1529366259217,138.47776322535898 M 202.0570861710869,138.59587088538976 M 201.7692423790619,138.6708128898815 M 201.52226938207528,138.50505797621653 M 196.89187079185717,137.13594377506294 M 196.93080495779267,136.98890344123296 M 197.09096715406397,136.82940349687814 M 197.3144992046524,136.79585377671046 M 197.5614722016391,136.96160869037536 M 202.19187079185727,144.39999999996266 M 202.19187079185707,164.99738955819552 M 202.1529366259217,165.1444298920256 M 201.9212077467904,165.3309026225285 M 201.76924237906184,165.33747955654806 M 201.52226938207525,165.17172464288316 M 196.89187079185714,157.73333333329597 M 196.89187079185726,184.39999999996266 M 196.89187079185712,163.80261044172968 M 197.02665541262735,163.5374624478687 M 197.3144992046525,163.4625204433771 M 197.56147220163902,163.62827535704199 M 202.1918707918571,171.0666666666294 M 202.1918707918572,184.39999999996272 M 201.52226938207426,31.879616693393558 M 196.89187079185632,24.441225383806653 M 202.19187079185627,24.441225383806596 M 202.1918707918562,31.705281608705945 M 202.15293662592072,31.852321942536292 M 202.11127822562176,31.91646162582731 M 202.057086171086,31.970429602566924 M 201.9927744296494,32.011821886890885 M 201.92120774678943,32.03879467303878 M 201.84557403697525,32.05014646707829 M 201.76924237906087,32.04537160705871 M 205.1918707918565,37.77455871713971 M 205.19187079185642,24.441225383806596 M 210.49187079185606,24.44122538380617 M 210.49187079185648,45.038614942039345 M 210.45293662592098,45.185655275869436 M 210.41127822562206,45.24979495916065 M 210.35708617108628,45.303762935900295 M 210.29277442964965,45.34515522022426 M 210.2212077467897,45.37212800637232 M 210.14557403697552,45.383479800411806 M 210.06924237906117,45.378704940391884 M 209.82226938207452,45.212950026726986 M 205.1918707918565,43.84383582557351 M 205.2308049577919,43.69679549174339 M 205.27246335809085,43.63265580845214 M 205.32665541262662,43.578687831712585 M 205.39096715406322,43.53729554738857 M 205.46253383692317,43.51032276124056 M 205.53816754673736,43.49897096720102 M 205.61449920465174,43.50374582722088 M 205.86147220163826,43.66950074088584 M 210.49187079185648,51.10789205047308 M 210.49187079185643,71.70528160870603 M 210.45293662592104,71.85232194253607 M 210.41127822562208,71.91646162582728 M 210.3570861710863,71.97042960256695 M 210.29277442964968,72.01182188689089 M 210.22120774678973,72.03879467303895 M 210.14557403697555,72.05014646707846 M 210.0692423790612,72.04537160705851 M 209.82226938207458,71.87961669339361 M 205.19187079185642,64.44122538380637 M 205.1918707918565,70.51050249224014 M 205.2308049577919,70.36346215841004 M 205.27246335809085,70.29932247511877 M 205.32665541262662,70.24535449837921 M 205.39096715406322,70.20396221405522 M 205.46253383692317,70.17698942790722 M 205.53816754673736,70.16563763386765 M 205.61449920465174,70.17041249388754 M 205.86147220163835,70.3361674075525 M 210.49187079185643,77.77455871713974 M 210.49187079185643,98.37194827537272 M 210.45293662592104,98.51898860920281 M 210.41127822562208,98.58312829249397 M 210.3570861710863,98.63709626923364 M 210.2927744296497,98.67848855355757 M 210.22120774678976,98.70546133970569 M 210.14557403697557,98.71681313374515 M 210.0692423790612,98.71203827372526 M 209.82226938207458,98.5462833600603 M 205.19187079185645,91.10789205047305 M 205.1918707918571,144.39999999996277 M 205.19187079185704,123.80261044172963 M 205.32665541262716,123.5374624478687 M 205.4625338369239,123.46909737739671 M 205.61449920465245,123.46252044337714 M 205.861472201639,123.62827535704204 M 210.49187079185657,131.0666666666293 M 210.49187079185668,151.66405622486215 M 210.4112782256224,151.87523624198363 M 210.29277442965002,151.97059650304723 M 210.06924237906154,152.00414622321486 M 209.8222693820749,151.83839130954996 M 205.191870791857,150.46927710839626 M 205.23080495779243,150.32223677456622 M 205.4625338369237,150.13576404406328 M 205.61449920465233,150.12918711004377 M 205.8614722016389,150.29494202370867 M 210.49187079185668,157.73333333329597 M 210.49187079185657,178.3307228915289 M 210.35708617108654,178.59587088538981 M 210.22120774678987,178.6642359558618 M 210.06924237906154,178.67081288988155 M 209.82226938207492,178.5050579762166 M 205.19187079185704,171.0666666666293 M 205.19187079185707,184.39999999996266 M 205.19187079185727,177.135943775063 M 205.32665541262745,176.87079578120213 M 205.46253383692388,176.80243071073008 M 205.61449920465247,176.79585377671046 M 205.86147220163903,176.96160869037536 M 210.12039191357096,183.8032467818326 M 210.21257273870157,184.08604184565579 M 210.06202844100986,184.3425701424911 M 209.77018573660328,184.39999999996272 M 205.34629559344728,97.05632577178702 M 205.38522975938275,96.90928543795687 M 205.42688815968168,96.8451457546656 M 205.48108021421746,96.7911777779261 M 205.54539195565405,96.74978549360205 M 205.616958638514,96.72281270745404 M 205.6925923483282,96.71146091341453 M 205.7689240062425,96.71623577343436 M 206.0158970032291,96.88199068709932 M 210.64629559344735,104.3203819966865 M 210.64629559344735,124.91777155491948 M 210.60736142751176,125.06481188874957 M 210.56570302721292,125.12895157204079 M 210.51151097267714,125.1829195487804 M 210.44719923124055,125.2243118331044 M 210.37563254838057,125.25128461925246 M 210.29999883856644,125.26263641329192 M 210.223667180652,125.25786155327202 M 209.9766941836654,125.09210663960712 M 205.34629559344728,117.65371533001982 M 213.49187079185668,30.510502492240136 M 213.5308049577921,30.3634621584101 M 213.57246335809103,30.299322475118714 M 213.6266554126269,30.245354498379214 M 213.6909671540634,30.203962214055224 M 213.76253383692338,30.176989427907216 M 213.83816754673754,30.165637633867732 M 213.91449920465192,30.17041249388751 M 214.16147220163856,30.336167407552608 M 218.79187079185667,37.77455871713971 M 218.79187079185667,38.64099399996283 M 218.79187079185667,58.371948275372716 M 218.75293662592125,58.51898860920281 M 218.71127822562224,58.583128292494024 M 218.65708617108646,58.63709626923364 M 218.59277442964984,58.67848855355763 M 218.52120774678988,58.70546133970569 M 218.44557403697573,58.71681313374515 M 218.36924237906135,58.712038273725256 M 218.1222693820747,58.54628336006036 M 213.4918707918566,51.107892050473026 M 213.4918707918566,57.17716915890682 M 213.5308049577921,57.03012882507673 M 213.572463358091,56.96598914178546 M 213.6266554126268,56.9120211650459 M 213.6909671540634,56.87062888072191 M 213.76253383692338,56.843656094573845 M 213.83816754673754,56.83230430053433 M 213.91449920465183,56.837079160554225 M 214.16147220163845,57.00283407421918 M 218.79187079185667,64.44122538380637 M 218.79187079185667,85.03861494203935 M 218.75293662592108,85.18565527586944 M 218.71127822562224,85.2497949591606 M 218.65708617108646,85.30376293590027 M 218.59277442964984,85.3451552202242 M 218.52120774678988,85.37212800637232 M 218.44557403697573,85.38347980041178 M 218.36924237906135,85.37870494039188 M 218.1222693820747,85.21295002672699 M 213.49187079185666,77.77455871713968 M 213.4918707918566,83.34584415890683 M 213.5308049577921,83.19880382507668 M 213.57246335809103,83.13466414178546 M 213.6266554126268,83.08069616504591 M 213.6909671540634,83.03930388072186 M 213.76253383692338,83.01233109457385 M 213.83816754673754,83.00097930053434 M 213.91449920465183,83.00575416055418 M 214.16147220163845,83.17150907421913 M 218.79187079185667,90.60990038380632 M 218.79187079185667,111.2072899420393 M 218.75293662592108,111.35433027586939 M 218.71127822562224,111.4184699591606 M 218.65708617108646,111.47243793590022 M 218.59277442964984,111.51383022022421 M 218.52120774678988,111.54080300637227 M 218.44557403697573,111.55215480041173 M 218.36924237906135,111.54737994039183 M 218.1222693820747,111.38162502672694 M 213.49187079185666,103.94323371713963 M 213.49187079185668,131.06666666662917 M 213.49187079185677,110.46927710839643 M 213.5724633580911,110.25809709127512 M 213.6909671540636,110.16273683021163 M 213.9144992046521,110.12918711004389 M 214.16147220163856,110.29494202370878 M 218.79187079185675,117.73333333329603 M 218.79187079185667,138.3307228915289 M 218.65708617108643,138.59587088538981 M 218.52120774678988,138.66423595586193 M 218.36924237906135,138.6708128898815 M 218.1222693820747,138.5050579762166 M 213.49187079185663,157.73333333329603 M 213.49187079185668,137.13594377506294 M 213.6266554126268,136.87079578120213 M 213.914499204652,136.79585377671052 M 214.16147220163856,136.96160869037536 M 218.79187079185667,144.39999999996277 M 218.79187079185658,164.99738955819564 M 218.71127822562224,165.208569575317 M 218.52120774678988,165.3309026225285 M 218.36924237906132,165.3374795565483 M 218.12226938207473,165.17172464288333 M 218.79187079185667,184.39999999996266 M 213.49187079185677,184.39999999996266 M 213.4918707918567,163.80261044172968 M 213.530804957792,163.6555701078996 M 213.76253383692338,163.4690973773967 M 213.91449920465192,163.4625204433772 M 214.16147220163856,163.6282753570421 M 218.79187079185647,171.0666666666294 M 218.12226938207453,31.879616693393615 M 213.4918707918563,24.44122538380617 M 218.79187079185616,24.44122538380617 M 218.79187079185647,31.705281608705945 M 218.75293662592108,31.85232194253618 M 218.71127822562207,31.91646162582728 M 218.6570861710863,31.970429602566924 M 218.59277442964967,32.011821886890914 M 218.5212077467897,32.03879467303901 M 218.44557403697553,32.05014646707849 M 218.36924237906115,32.04537160705857 M 193.4103701960063,30.8570666710705 M 193.47000000000045,31.310000000000542 M 193.4103701960063,31.762933328929705 M 193.23554445662322,32.18499999999983 M 192.95743686707692,32.54743686707636 M 192.59500000000045,32.82554445662271 M 192.17293332892987,33.00037019600583 M 191.72000000000043,33.05999999999986 M 191.26706667107103,33.00037019600552 M 190.84500000000045,32.82554445662262 M 190.48256313292399,32.5474368670765 M 190.20445554337766,32.18499999999983 M 190.0296298039946,31.762933328929705 M 189.97000000000043,31.310000000000713 M 190.0296298039946,30.857066671070726 M 190.20445554337766,30.43500000000023 M 190.48256313292399,30.072563132923506 M 190.84500000000045,29.794455543377637 M 191.26706667107103,29.619629803994144 M 191.72000000000043,29.56000000000006 M 192.17293332892987,29.61962980399423 M 192.59500000000045,29.794455543377296 M 192.95743686707692,30.07256313292345 M 193.23554445662322,30.43499999999983 M 227.24629559344763,104.3203819966864 M 227.24629559344763,124.91777155491937 M 227.20736142751207,125.06481188874946 M 227.1657030272132,125.12895157204068 M 227.11151097267745,125.18291954878035 M 227.04719923124082,125.22431183310434 M 226.97563254838087,125.25128461925235 M 226.8999988385667,125.26263641329186 M 226.8236671806523,125.25786155327191 M 226.5766941836657,125.09210663960701 M 221.9462955934475,117.65371533001976 M 221.94629559344747,97.05632577178696 M 221.98522975938297,96.90928543795681 M 222.0268881596819,96.8451457546656 M 222.08108021421768,96.79117777792604 M 222.1453919556543,96.74978549360199 M 222.21695863851426,96.72281270745398 M 222.2925923483284,96.71146091341447 M 222.3689240062427,96.7162357734343 M 222.61589700322935,96.88199068709926 M 227.0918707918563,24.441225383806056 M 227.09187079185676,45.03861494203932 M 227.05293662592126,45.18565527586941 M 227.01127822562233,45.249794959160596 M 226.95708617108656,45.30376293590024 M 226.89277442964993,45.3451552202242 M 226.82120774678998,45.37212800637229 M 226.74557403697582,45.38347980041175 M 226.66924237906144,45.378704940391856 M 226.4222693820748,45.21295002672693 M 221.79187079185675,37.774558717139655 M 221.79187079185652,24.441225383806426 M 227.09187079185676,51.107892050473026 M 227.0918707918567,71.70528160870597 M 227.05293662592132,71.85232194253607 M 227.0112782256224,71.91646162582722 M 226.95708617108662,71.9704296025669 M 226.89277442965,72.01182188689083 M 226.82120774679004,72.03879467303895 M 226.74557403697585,72.0501464670784 M 226.66924237906147,72.04537160705851 M 226.42226938207486,71.87961669339361 M 221.79187079185667,64.44122538380631 M 221.79187079185675,43.84383582557348 M 221.83080495779214,43.69679549174333 M 221.87246335809107,43.632655808452085 M 221.92665541262684,43.57868783171256 M 221.99096715406347,43.53729554738854 M 222.06253383692342,43.5103227612405 M 222.1381675467376,43.49897096720099 M 222.214499204652,43.503745827220854 M 222.46147220163851,43.66950074088578 M 227.0918707918567,77.77455871713968 M 227.0918707918567,98.37194827537266 M 227.05293662592132,98.51898860920275 M 227.0112782256224,98.58312829249397 M 226.95708617108662,98.63709626923358 M 226.89277442965,98.67848855355751 M 226.82120774679004,98.70546133970564 M 226.74557403697585,98.71681313374509 M 226.66924237906147,98.7120382737252 M 226.42226938207486,98.5462833600603 M 221.79187079185667,91.107892050473 M 221.79187079185675,70.51050249224014 M 221.83080495779214,70.36346215840999 M 221.87246335809107,70.29932247511871 M 221.92665541262684,70.24535449837921 M 221.99096715406347,70.20396221405517 M 222.06253383692342,70.17698942790716 M 222.1381675467376,70.16563763386765 M 222.214499204652,70.17041249388748 M 222.4614722016386,70.33616740755244 M 227.09187079185685,131.06666666662923 M 227.09187079185693,151.6640562248621 M 227.0112782256227,151.87523624198357 M 226.89277442965033,151.97059650304718 M 226.66924237906179,152.0041462232148 M 226.42226938207517,151.8383913095499 M 221.79187079185738,144.39999999996266 M 221.7918707918573,123.80261044172957 M 221.92665541262738,123.53746244786865 M 222.06253383692413,123.46909737739665 M 222.2144992046527,123.46252044337709 M 222.46147220163922,123.62827535704199 M 227.09187079185693,157.73333333329592 M 227.09187079185685,178.33072289152884 M 226.95708617108684,178.59587088538976 M 226.82120774679018,178.6642359558617 M 226.66924237906179,178.67081288988155 M 226.42226938207517,178.50505797621653 M 221.79187079185735,171.06666666662923 M 221.7918707918573,150.46927710839626 M 221.83080495779265,150.32223677456622 M 222.062533836924,150.13576404406317 M 222.21449920465264,150.12918711004372 M 222.46147220163914,150.29494202370861 M 235.79187079185652,111.00000000003482 M 232.7918707916582,111.00000000003482 M 232.7918707916582,101.00000000009433 M 235.79187079185652,101.00000000009433 M 221.79187079185667,184.39999999996266 M 221.79187079185755,177.135943775063 M 221.92665541262778,176.87079578120208 M 222.06253383692422,176.80243071073008 M 222.21449920465275,176.79585377671035 M 222.4614722016393,176.96160869037524 M 226.72039191357118,183.80324678183254 M 226.8125727387018,184.08604184565573 M 226.6620284410101,184.34257014249098 M 226.37018573660356,184.3999999999626 "
  />
  <path id="face0-interior"
 style="fill:none;stroke:#00FF00;stroke-width:1;stroke-miterlimit:4;stroke-dasharray:none;stroke-linejoin:round;stroke-linecap:round"
        d="M 237.04187079185735,31.2500000000002 M 240.79187079185562,17.999999999999062 M 232.7918707918556,10.0 M 17.999999999999083,10.0 M 10.0,18.000000000000824 M 13.750000000001041,31.250000000000256 M 13.749999999768225,180.7500000000749 M 10.000000000000856,194.0000000001411 M 18.000000000141434,202.00000000000037 M 31.250000000075524,198.24999999976765 M 219.54187079185664,198.25000000000117 M 232.79187079185732,202.00000000000037 M 240.79187079185633,193.99999999999974 M 237.0418707918557,180.75000000000003 M 34.24000000000045,55.919999999999874 M 33.78706667107099,55.860370196005846 M 33.36500000000044,55.685544456622694 M 33.002563132923974,55.40743686707643 M 32.72445554337766,55.044999999999874 M 32.549629803994534,54.62293332892946 M 32.49000000000037,54.17000000000013 M 32.549629803994534,53.7170666710706 M 32.72445554337766,53.294999999999845 M 33.002563132923925,52.93256313292318 M 33.36500000000035,52.65445554337714 M 33.787066671070946,52.479629803993845 M 34.24000000000042,52.41999999999982 M 34.69293332892984,52.479629803994214 M 35.11500000000041,52.654455543377054 M 35.47743686707683,52.93256313292355 M 35.7555444566232,53.29499999999979 M 35.93037019600631,53.717066671070484 M 35.990000000000364,54.169999999999675 M 35.93037019600631,54.622933328929236 M 35.7555444566232,55.04499999999982 M 35.477436867076875,55.40743686707631 M 35.11500000000045,55.68554445662258 M 34.69293332892984,55.86037019600562 M 33.78706667107108,187.94037019600555 M 33.36500000000049,187.76554445662245 M 33.002563132923974,187.48743686707607 M 32.7244555433777,187.1249999999997 M 32.549629803994584,186.70293332892916 M 32.490000000000464,186.24999999999963 M 32.549629803994634,185.79706667107033 M 32.7244555433777,185.37499999999963 M 33.002563132923974,185.01256313292313 M 33.36500000000044,184.73445554337692 M 33.78706667107103,184.55962980399383 M 34.24000000000045,184.4999999999997 M 34.692933328929854,184.5596298039939 M 35.11500000000045,184.73445554337692 M 35.47743686707692,185.01256313292325 M 35.75554445662326,185.37499999999974 M 35.93037019600638,185.79706667107027 M 35.99000000000045,186.24999999999963 M 35.93037019600635,186.7029333289291 M 35.75554445662321,187.12499999999957 M 35.47743686707692,187.48743686707613 M 35.11500000000038,187.7655444566224 M 34.692933328929904,187.9403701960056 M 34.24000000000042,187.99999999999963 M 190.84499999999977,187.76554445662245 M 190.48256313292327,187.48743686707613 M 190.20445554337695,187.1249999999997 M 190.0296298039939,186.7029333289291 M 189.96999999999974,186.24999999999963 M 190.0296298039939,185.79706667107027 M 190.20445554337695,185.37499999999974 M 190.48256313292327,185.01256313292325 M 190.84499999999974,184.73445554337687 M 191.26706667107032,184.55962980399383 M 191.7199999999997,184.49999999999974 M 192.17293332892916,184.55962980399383 M 192.59499999999971,184.73445554337692 M 192.9574368670762,185.01256313292325 M 193.23554445662248,185.3749999999997 M 193.4103701960056,185.7970666710702 M 193.46999999999971,186.24999999999963 M 193.41037019600557,186.7029333289291 M 193.23554445662248,187.1249999999997 M 192.95743686707624,187.48743686707613 M 192.59499999999971,187.76554445662245 M 192.17293332892913,187.94037019600555 M 191.7199999999997,187.9999999999997 M 191.2670666710703,187.94037019600555 M 168.79187079185672,197.00000000000048 M 168.79187079185678,194.00000000000054 M 178.79187079185684,194.00000000000054 M 178.79187079185684,197.00000000000043 M 82.00000000000038,193.9999999999994 M 82.00000000000041,196.9999999999993 M 72.00000000000047,196.99999999999935 M 72.00000000000057,193.99999999999952 M 18.897476977192532,17.6600401101162 M 18.72265123780942,18.082106781186894 M 18.444543648263053,18.444543648262766 M 18.082106781186585,18.722651237810226 M 17.66004011011604,18.897476977192213 M 17.20710678118656,18.95710678118587 M 16.75417345225649,18.897476977192298 M 16.3321067811859,18.722651237810084 M 15.969669914109478,18.444543648262595 M 15.6915623245632,18.08210678118661 M 15.516736585180134,17.66004011011563 M 15.457106781185963,17.207106781186496 M 15.516736585180176,16.754173452256936 M 15.691562324563339,16.33210678118678 M 15.969669914109659,15.969669914110227 M 16.332106781186127,15.691562324563506 M 16.754173452256673,15.516736585181434 M 17.207106781186152,15.457106781186866 M 17.660040110115542,15.516736585180524 M 18.082106781186134,15.691562324564558 M 18.444543648262556,15.969669914110284 M 18.722651237808833,16.332106781187065 M 18.897476977191904,16.75417345225688 M 18.957106781186024,17.207106781186468 M 18.439576690024957,196.03527718678853 M 18.076028664019965,196.31193066456777 M 17.653265047662323,196.48506425074802 M 17.200096482756667,196.54287917754775 M 16.747405658105084,196.48143545324925 M 16.32604270530039,196.304920366123 M 15.964722813241181,196.02536312765156 M 15.688069335461918,195.66181510164662 M 15.514935749281623,195.2390514852889 M 15.457120822481873,194.78588292038322 M 15.518564546780393,194.33319209573162 M 15.695079633906609,193.9118291429269 M 15.974636872378078,193.55050925086775 M 16.33818489838302,193.27385577308846 M 16.760948514740754,193.1007221869082 M 17.214117079646275,193.04290726010854 M 17.666807904297947,193.10435098440698 M 18.088170857102504,193.28086607153315 M 18.449490749161807,193.56042331000467 M 18.72614422694116,193.9239713360096 M 18.89927781312123,194.34673495236714 M 18.957092739921023,194.79990351727278 M 18.895649015622592,195.2525943419246 M 18.719133928496287,195.67395729472915 M 235.27693504259804,194.34673495238243 M 235.3347499693898,194.79990351728904 M 235.27330624508335,195.25259434193967 M 235.09679115794975,195.6739572947412 M 234.817233919472,196.03527718679564 M 234.4536858934622,196.31193066456856 M 234.03092227710147,196.48506425074143 M 233.57775371219486,196.54287917753314 M 233.12506288754435,196.48143545322685 M 232.7036999347428,196.3049203660931 M 232.3423800426884,196.0253631276154 M 232.06572656491548,195.66181510160575 M 231.89259297874264,195.23905148524491 M 231.83477805195082,194.7858829203382 M 231.89622177625725,194.33319209568774 M 232.07273686339093,193.91182914288615 M 232.35229410186858,193.55050925083182 M 232.71584212787843,193.27385577305884 M 233.1386057442391,193.10072218688597 M 233.5917743091457,193.04290726009415 M 234.04446513379634,193.1043509844006 M 234.46582808659784,193.28086607153423 M 234.82714797865216,193.560423310012 M 235.10380145642515,193.92397133602176 M 235.10030846729197,16.332106781185843 M 235.2751342066751,16.754173452256452 M 235.33476401066926,17.207106781185814 M 235.2751342066751,17.660040110115318 M 235.10030846729205,18.0821067811859 M 234.8222008777458,18.44454364826231 M 234.45976401066926,18.72265123780869 M 234.03769733959876,18.897476977191815 M 233.5847640106693,18.957106781185928 M 233.1318306817399,18.897476977191843 M 232.70976401066932,18.722651237808776 M 232.34732714359288,18.44454364826251 M 232.06921955404653,18.082106781185985 M 231.8943938146634,17.660040110115432 M 231.83476401066923,17.207106781186013 M 231.89439381466332,16.75417345225665 M 232.06921955404644,16.332106781186013 M 232.3473271435927,15.969669914109602 M 232.70976401066912,15.69156232456325 M 233.13183068173973,15.516736585180126 M 233.58476401066912,15.457106781185956 M 234.0376973395986,15.516736585180041 M 234.45976401066918,15.691562324563137 M 234.82220087774562,15.96966991410946 M 205.3995368686767,21.500000000000682 M 191.45453686867674,21.50000000000057 M 191.45453686867674,19.50000000000057 M 205.3995368686767,19.500000000000455 M 32.00000000000005,14.999999999999574 M 32.00000000000005,19.499999999999602 M 22.000000000000068,19.500000000000142 M 21.99999999999939,15.000000000000028 M 223.34453686867573,19.499999999999915 M 223.34453686867573,21.499999999999943 M 209.39953686867662,21.499999999999915 M 209.3995368686767,19.499999999999687 M 100.72499999999951,14.999999999999943 M 110.72499999999947,15.000000000000028 M 110.72499999999947,19.50000000000017 M 100.72499999999951,19.500000000000142 M 14.999999999453095,101.00000000009433 M 17.99999999965139,101.00000000009433 M 17.999999999651436,111.00000000003487 M 14.999999999453095,111.0000000000347 M 189.4499999999987,15.000000000000398 M 189.4499999999987,19.500000000000398 M 179.44999999999874,19.500000000000455 M 179.44999999999874,15.000000000000398 M 188.59187079185642,43.84383582557379 M 188.63080495779178,43.696795491743615 M 188.67246335809074,43.63265580845237 M 188.7266554126266,43.57868783171287 M 188.7909671540631,43.537295547388794 M 188.8625338369231,43.51032276124076 M 188.93816754673725,43.498970967201245 M 189.01449920465163,43.50374582722111 M 189.26147220163824,43.669500740886065 M 193.89187079185638,51.107892050473254 M 193.89187079185646,71.70528160870626 M 193.85293662592096,71.85232194253629 M 193.81127822562203,71.91646162582751 M 193.75708617108626,71.97042960256718 M 193.69277442964966,72.01182188689111 M 193.62120774678968,72.03879467303918 M 193.54557403697555,72.05014646707869 M 193.46924237906114,72.04537160705874 M 193.22226938207442,71.87961669339384 M 188.59187079185628,64.4412253838066 M 188.5918707918564,70.51050249224036 M 188.63080495779178,70.36346215841027 M 188.67246335809074,70.299322475119 M 188.7266554126266,70.24535449837944 M 188.7909671540631,70.20396221405545 M 188.8625338369231,70.17698942790744 M 188.93816754673725,70.16563763386787 M 189.01449920465163,70.17041249388777 M 189.26147220163824,70.33616740755272 M 193.89187079185632,77.77455871713991 M 193.8918707918564,98.37194827537289 M 193.8529366259209,98.51898860920298 M 193.811278225622,98.58312829249414 M 193.75708617108623,98.63709626923381 M 193.6927744296496,98.67848855355774 M 193.62120774678965,98.70546133970586 M 193.5455740369755,98.71681313374532 M 193.46924237906111,98.71203827372543 M 193.22226938207444,98.54628336006053 M 188.59187079185628,91.10789205047328 M 188.59187079185673,97.15655646698505 M 188.63080495779224,97.00951613315496 M 188.6724633580912,96.94537644986369 M 188.72665541262694,96.89140847312413 M 188.79096715406357,96.85001618880014 M 188.86253383692352,96.82304340265213 M 188.93816754673728,96.83230430053456 M 189.01449920465166,96.8370791605544 M 189.2614722016386,96.98222138229741 M 193.8918707918568,104.42061269188454 M 193.89187079185683,125.01800225011758 M 193.85293662592122,125.16504258394761 M 193.81127822562243,125.22918226723888 M 193.7570861710866,125.28315024397844 M 193.69277442965,125.32454252830243 M 193.62120774679005,125.35151531445055 M 193.5455740369759,125.36286710849001 M 193.4692423790615,125.35809224847006 M 193.2222693820749,125.19233733480516 M 188.59187079185685,117.75394602521791 M 188.59187079185725,123.80261044172968 M 188.6308049577927,123.65557010789948 M 188.7266554126274,123.53746244786865 M 188.86253383692386,123.46909737739665 M 189.0144992046525,123.46252044337703 M 189.2614722016391,123.62827535704204 M 193.89187079185714,131.06666666662923 M 193.89187079185712,151.66405622486215 M 193.85293662592184,151.81109655869236 M 193.62120774679053,151.99756928919518 M 193.4692423790619,152.00414622321486 M 193.22226938207527,151.83839130954996 M 188.59187079185713,144.39999999996266 M 188.59187079185716,150.4692771083963 M 188.63080495779266,150.32223677456628 M 188.72665541262737,150.20412911453533 M 188.862533836924,150.13576404406328 M 189.01449920465248,150.12918711004383 M 189.26147220163918,150.29494202370867 M 193.89187079185714,157.73333333329603 M 193.89187079185714,178.33072289152884 M 193.8112782256228,178.54190290865026 M 193.6212077467904,178.6642359558618 M 193.46924237906182,178.67081288988155 M 193.22226938207515,178.50505797621653 M 188.59187079185713,171.0666666666293 M 196.8918707918564,30.510502492240363 M 196.9308049577919,30.363462158410016 M 196.97246335809083,30.2993224751188 M 197.0266554126266,30.24535449837913 M 197.0909671540632,30.20396221405511 M 197.1625338369232,30.176989427907188 M 197.23816754673726,30.165637633867647 M 197.31449920465172,30.170412493887653 M 197.56147220163834,30.336167407552637 M 202.1918707918564,37.77455871713971 M 202.19187079185647,58.371948275372716 M 202.15293662592097,58.51898860920281 M 202.11127822562204,58.583128292494024 M 202.05708617108627,58.63709626923364 M 201.99277442964964,58.67848855355763 M 201.9212077467897,58.70546133970569 M 201.84557403697553,58.71681313374515 M 201.76924237906113,58.712038273725256 M 201.5222693820745,58.54628336006036 M 196.8918707918564,51.107892050473026 M 196.8918707918564,57.17716915890682 M 196.9308049577918,57.03012882507673 M 196.97246335809075,56.96598914178546 M 197.02665541262652,56.9120211650459 M 197.0909671540631,56.87062888072191 M 197.16253383692307,56.843656094573845 M 197.23816754673726,56.83230430053433 M 197.31449920465164,56.837079160554225 M 197.56147220163834,57.00283407421918 M 202.19187079185647,64.44122538380637 M 202.19187079185633,85.03861494203935 M 202.15293662592094,85.18565527586944 M 202.11127822562202,85.2497949591606 M 202.0570861710862,85.30376293590027 M 201.99277442964961,85.3451552202242 M 201.92120774678963,85.37212800637232 M 201.84557403697548,85.38347980041178 M 201.76924237906107,85.37870494039188 M 201.52226938207448,85.21295002672699 M 196.89187079185635,77.77455871713968 M 196.89187079185655,83.7562278916329 M 196.93080495779202,83.60918755780276 M 196.97246335809098,83.54504787451148 M 197.02665541262672,83.49107989777193 M 197.09096715406335,83.44968761344794 M 197.1625338369233,83.42271482729993 M 197.2381675467375,83.41136303326041 M 197.31449920465175,83.41613789328025 M 197.5614722016384,83.5818928069452 M 202.19187079185664,91.0202841165324 M 202.19187079185664,111.61767367476537 M 202.15293662592106,111.76471400859546 M 202.11127822562221,111.82885369188668 M 202.05708617108644,111.88282166862629 M 201.99277442964984,111.92421395295028 M 201.9212077467899,111.95118673909835 M 201.8455740369757,111.9625385331378 M 201.76924237906132,111.95776367311791 M 201.5222693820747,111.79200875945301 M 196.8918707918566,104.35361744986577 M 196.89187079185692,131.0666666666293 M 196.89187079185712,110.46927710839631 M 197.0266554126272,110.2041291145355 M 197.31449920465244,110.12918711004377 M 197.56147220163908,110.29494202370884 M 202.19187079185727,117.73333333329603 M 202.19187079185718,138.3307228915289 M 202.1529366259217,138.47776322535898 M 202.0570861710869,138.59587088538976 M 201.7692423790619,138.6708128898815 M 201.52226938207528,138.50505797621653 M 196.89187079185717,137.13594377506294 M 196.93080495779267,136.98890344123296 M 197.09096715406397,136.82940349687814 M 197.3144992046524,136.79585377671046 M 197.5614722016391,136.96160869037536 M 202.19187079185727,144.39999999996266 M 202.19187079185707,164.99738955819552 M 202.1529366259217,165.1444298920256 M 201.9212077467904,165.3309026225285 M 201.76924237906184,165.33747955654806 M 201.52226938207525,165.17172464288316 M 196.89187079185714,157.73333333329597 M 196.89187079185726,184.39999999996266 M 196.89187079185712,163.80261044172968 M 197.02665541262735,163.5374624478687 M 197.3144992046525,163.4625204433771 M 197.56147220163902,163.62827535704199 M 202.1918707918571,171.0666666666294 M 202.1918707918572,184.39999999996272 M 201.52226938207426,31.879616693393558 M 196.89187079185632,24.441225383806653 M 202.19187079185627,24.441225383806596 M 202.1918707918562,31.705281608705945 M 202.15293662592072,31.852321942536292 M 202.11127822562176,31.91646162582731 M 202.057086171086,31.970429602566924 M 201.9927744296494,32.011821886890885 M 201.92120774678943,32.03879467303878 M 201.84557403697525,32.05014646707829 M 201.76924237906087,32.04537160705871 M 205.1918707918565,37.77455871713971 M 205.19187079185642,24.441225383806596 M 210.49187079185606,24.44122538380617 M 210.49187079185648,45.038614942039345 M 210.45293662592098,45.185655275869436 M 210.41127822562206,45.24979495916065 M 210.35708617108628,45.303762935900295 M 210.29277442964965,45.34515522022426 M 210.2212077467897,45.37212800637232 M 210.14557403697552,45.383479800411806 M 210.06924237906117,45.378704940391884 M 209.82226938207452,45.212950026726986 M 205.1918707918565,43.84383582557351 M 205.2308049577919,43.69679549174339 M 205.27246335809085,43.63265580845214 M 205.32665541262662,43.578687831712585 M 205.39096715406322,43.53729554738857 M 205.46253383692317,43.51032276124056 M 205.53816754673736,43.49897096720102 M 205.61449920465174,43.50374582722088 M 205.86147220163826,43.66950074088584 M 210.49187079185648,51.10789205047308 M 210.49187079185643,71.70528160870603 M 210.45293662592104,71.85232194253607 M 210.41127822562208,71.91646162582728 M 210.3570861710863,71.97042960256695 M 210.29277442964968,72.01182188689089 M 210.22120774678973,72.03879467303895 M 210.14557403697555,72.05014646707846 M 210.0692423790612,72.04537160705851 M 209.82226938207458,71.87961669339361 M 205.19187079185642,64.44122538380637 M 205.1918707918565,70.51050249224014 M 205.2308049577919,70.36346215841004 M 205.27246335809085,70.29932247511877 M 205.32665541262662,70.24535449837921 M 205.39096715406322,70.20396221405522 M 205.46253383692317,70.17698942790722 M 205.53816754673736,70.16563763386765 M 205.61449920465174,70.17041249388754 M 205.86147220163835,70.3361674075525 M 210.49187079185643,77.77455871713974 M 210.49187079185643,98.37194827537272 M 210.45293662592104,98.51898860920281 M 210.41127822562208,98.58312829249397 M 210.3570861710863,98.63709626923364 M 210.2927744296497,98.67848855355757 M 210.22120774678976,98.70546133970569 M 210.14557403697557,98.71681313374515 M 210.0692423790612,98.71203827372526 M 209.82226938207458,98.5462833600603 M 205.19187079185645,91.10789205047305 M 205.1918707918571,144.39999999996277 M 205.19187079185704,123.80261044172963 M 205.32665541262716,123.5374624478687 M 205.4625338369239,123.46909737739671 M 205.61449920465245,123.46252044337714 M 205.861472201639,123.62827535704204 M 210.49187079185657,131.0666666666293 M 210.49187079185668,151.66405622486215 M 210.4112782256224,151.87523624198363 M 210.29277442965002,151.97059650304723 M 210.06924237906154,152.00414622321486 M 209.8222693820749,151.83839130954996 M 205.191870791857,150.46927710839626 M 205.23080495779243,150.32223677456622 M 205.4625338369237,150.13576404406328 M 205.61449920465233,150.12918711004377 M 205.8614722016389,150.29494202370867 M 210.49187079185668,157.73333333329597 M 210.49187079185657,178.3307228915289 M 210.35708617108654,178.59587088538981 M 210.22120774678987,178.6642359558618 M 210.06924237906154,178.67081288988155 M 209.82226938207492,178.5050579762166 M 205.19187079185704,171.0666666666293 M 205.19187079185707,184.39999999996266 M 205.19187079185727,177.135943775063 M 205.32665541262745,176.87079578120213 M 205.46253383692388,176.80243071073008 M 205.61449920465247,176.79585377671046 M 205.86147220163903,176.96160869037536 M 210.12039191357096,183.8032467818326 M 210.21257273870157,184.08604184565579 M 210.06202844100986,184.3425701424911 M 209.77018573660328,184.39999999996272 M 205.34629559344728,97.05632577178702 M 205.38522975938275,96.90928543795687 M 205.42688815968168,96.8451457546656 M 205.48108021421746,96.7911777779261 M 205.54539195565405,96.74978549360205 M 205.616958638514,96.72281270745404 M 205.6925923483282,96.71146091341453 M 205.7689240062425,96.71623577343436 M 206.0158970032291,96.88199068709932 M 210.64629559344735,104.3203819966865 M 210.64629559344735,124.91777155491948 M 210.60736142751176,125.06481188874957 M 210.56570302721292,125.12895157204079 M 210.51151097267714,125.1829195487804 M 210.44719923124055,125.2243118331044 M 210.37563254838057,125.25128461925246 M 210.29999883856644,125.26263641329192 M 210.223667180652,125.25786155327202 M 209.9766941836654,125.09210663960712 M 205.34629559344728,117.65371533001982 M 213.49187079185668,30.510502492240136 M 213.5308049577921,30.3634621584101 M 213.57246335809103,30.299322475118714 M 213.6266554126269,30.245354498379214 M 213.6909671540634,30.203962214055224 M 213.76253383692338,30.176989427907216 M 213.83816754673754,30.165637633867732 M 213.91449920465192,30.17041249388751 M 214.16147220163856,30.336167407552608 M 218.79187079185667,37.77455871713971 M 218.79187079185667,38.64099399996283 M 218.79187079185667,58.371948275372716 M 218.75293662592125,58.51898860920281 M 218.71127822562224,58.583128292494024 M 218.65708617108646,58.63709626923364 M 218.59277442964984,58.67848855355763 M 218.52120774678988,58.70546133970569 M 218.44557403697573,58.71681313374515 M 218.36924237906135,58.712038273725256 M 218.1222693820747,58.54628336006036 M 213.4918707918566,51.107892050473026 M 213.4918707918566,57.17716915890682 M 213.5308049577921,57.03012882507673 M 213.572463358091,56.96598914178546 M 213.6266554126268,56.9120211650459 M 213.6909671540634,56.87062888072191 M 213.76253383692338,56.843656094573845 M 213.83816754673754,56.83230430053433 M 213.91449920465183,56.837079160554225 M 214.16147220163845,57.00283407421918 M 218.79187079185667,64.44122538380637 M 218.79187079185667,85.03861494203935 M 218.75293662592108,85.18565527586944 M 218.71127822562224,85.2497949591606 M 218.65708617108646,85.30376293590027 M 218.59277442964984,85.3451552202242 M 218.52120774678988,85.37212800637232 M 218.44557403697573,85.38347980041178 M 218.36924237906135,85.37870494039188 M 218.1222693820747,85.21295002672699 M 213.49187079185666,77.77455871713968 M 213.4918707918566,83.34584415890683 M 213.5308049577921,83.19880382507668 M 213.57246335809103,83.13466414178546 M 213.6266554126268,83.08069616504591 M 213.6909671540634,83.03930388072186 M 213.76253383692338,83.01233109457385 M 213.83816754673754,83.00097930053434 M 213.91449920465183,83.00575416055418 M 214.16147220163845,83.17150907421913 M 218.79187079185667,90.60990038380632 M 218.79187079185667,111.2072899420393 M 218.75293662592108,111.35433027586939 M 218.71127822562224,111.4184699591606 M 218.65708617108646,111.47243793590022 M 218.59277442964984,111.51383022022421 M 218.52120774678988,111.54080300637227 M 218.44557403697573,111.55215480041173 M 218.36924237906135,111.54737994039183 M 218.1222693820747,111.38162502672694 M 213.49187079185666,103.94323371713963 M 213.49187079185668,131.06666666662917 M 213.49187079185677,110.46927710839643 M 213.5724633580911,110.25809709127512 M 213.6909671540636,110.16273683021163 M 213.9144992046521,110.12918711004389 M 214.16147220163856,110.29494202370878 M 218.79187079185675,117.73333333329603 M 218.79187079185667,138.3307228915289 M 218.65708617108643,138.59587088538981 M 218.52120774678988,138.66423595586193 M 218.36924237906135,138.6708128898815 M 218.1222693820747,138.5050579762166 M 213.49187079185663,157.73333333329603 M 213.49187079185668,137.13594377506294 M 213.6266554126268,136.87079578120213 M 213.914499204652,136.79585377671052 M 214.16147220163856,136.96160869037536 M 218.79187079185667,144.39999999996277 M 218.79187079185658,164.99738955819564 M 218.71127822562224,165.208569575317 M 218.52120774678988,165.3309026225285 M 218.36924237906132,165.3374795565483 M 218.12226938207473,165.17172464288333 M 218.79187079185667,184.39999999996266 M 213.49187079185677,184.39999999996266 M 213.4918707918567,163.80261044172968 M 213.530804957792,163.6555701078996 M 213.76253383692338,163.4690973773967 M 213.91449920465192,163.4625204433772 M 214.16147220163856,163.6282753570421 M 218.79187079185647,171.0666666666294 M 218.12226938207453,31.879616693393615 M 213.4918707918563,24.44122538380617 M 218.79187079185616,24.44122538380617 M 218.79187079185647,31.705281608705945 M 218.75293662592108,31.85232194253618 M 218.71127822562207,31.91646162582728 M 218.6570861710863,31.970429602566924 M 218.59277442964967,32.011821886890914 M 218.5212077467897,32.03879467303901 M 218.44557403697553,32.05014646707849 M 218.36924237906115,32.04537160705857 M 193.4103701960063,30.8570666710705 M 193.47000000000045,31.310000000000542 M 193.4103701960063,31.762933328929705 M 193.23554445662322,32.18499999999983 M 192.95743686707692,32.54743686707636 M 192.59500000000045,32.82554445662271 M 192.17293332892987,33.00037019600583 M 191.72000000000043,33.05999999999986 M 191.26706667107103,33.00037019600552 M 190.84500000000045,32.82554445662262 M 190.48256313292399,32.5474368670765 M 190.20445554337766,32.18499999999983 M 190.0296298039946,31.762933328929705 M 189.97000000000043,31.310000000000713 M 190.0296298039946,30.857066671070726 M 190.20445554337766,30.43500000000023 M 190.48256313292399,30.072563132923506 M 190.84500000000045,29.794455543377637 M 191.26706667107103,29.619629803994144 M 191.72000000000043,29.56000000000006 M 192.17293332892987,29.61962980399423 M 192.59500000000045,29.794455543377296 M 192.95743686707692,30.07256313292345 M 193.23554445662322,30.43499999999983 M 227.24629559344763,104.3203819966864 M 227.24629559344763,124.91777155491937 M 227.20736142751207,125.06481188874946 M 227.1657030272132,125.12895157204068 M 227.11151097267745,125.18291954878035 M 227.04719923124082,125.22431183310434 M 226.97563254838087,125.25128461925235 M 226.8999988385667,125.26263641329186 M 226.8236671806523,125.25786155327191 M 226.5766941836657,125.09210663960701 M 221.9462955934475,117.65371533001976 M 221.94629559344747,97.05632577178696 M 221.98522975938297,96.90928543795681 M 222.0268881596819,96.8451457546656 M 222.08108021421768,96.79117777792604 M 222.1453919556543,96.74978549360199 M 222.21695863851426,96.72281270745398 M 222.2925923483284,96.71146091341447 M 222.3689240062427,96.7162357734343 M 222.61589700322935,96.88199068709926 M 227.0918707918563,24.441225383806056 M 227.09187079185676,45.03861494203932 M 227.05293662592126,45.18565527586941 M 227.01127822562233,45.249794959160596 M 226.95708617108656,45.30376293590024 M 226.89277442964993,45.3451552202242 M 226.82120774678998,45.37212800637229 M 226.74557403697582,45.38347980041175 M 226.66924237906144,45.378704940391856 M 226.4222693820748,45.21295002672693 M 221.79187079185675,37.774558717139655 M 221.79187079185652,24.441225383806426 M 227.09187079185676,51.107892050473026 M 227.0918707918567,71.70528160870597 M 227.05293662592132,71.85232194253607 M 227.0112782256224,71.91646162582722 M 226.95708617108662,71.9704296025669 M 226.89277442965,72.01182188689083 M 226.82120774679004,72.03879467303895 M 226.74557403697585,72.0501464670784 M 226.66924237906147,72.04537160705851 M 226.42226938207486,71.87961669339361 M 221.79187079185667,64.44122538380631 M 221.79187079185675,43.84383582557348 M 221.83080495779214,43.69679549174333 M 221.87246335809107,43.632655808452085 M 221.92665541262684,43.57868783171256 M 221.99096715406347,43.53729554738854 M 222.06253383692342,43.5103227612405 M 222.1381675467376,43.49897096720099 M 222.214499204652,43.503745827220854 M 222.46147220163851,43.66950074088578 M 227.0918707918567,77.77455871713968 M 227.0918707918567,98.37194827537266 M 227.05293662592132,98.51898860920275 M 227.0112782256224,98.58312829249397 M 226.95708617108662,98.63709626923358 M 226.89277442965,98.67848855355751 M 226.82120774679004,98.70546133970564 M 226.74557403697585,98.71681313374509 M 226.66924237906147,98.7120382737252 M 226.42226938207486,98.5462833600603 M 221.79187079185667,91.107892050473 M 221.79187079185675,70.51050249224014 M 221.83080495779214,70.36346215840999 M 221.87246335809107,70.29932247511871 M 221.92665541262684,70.24535449837921 M 221.99096715406347,70.20396221405517 M 222.06253383692342,70.17698942790716 M 222.1381675467376,70.16563763386765 M 222.214499204652,70.17041249388748 M 222.4614722016386,70.33616740755244 M 227.09187079185685,131.06666666662923 M 227.09187079185693,151.6640562248621 M 227.0112782256227,151.87523624198357 M 226.89277442965033,151.97059650304718 M 226.66924237906179,152.0041462232148 M 226.42226938207517,151.8383913095499 M 221.79187079185738,144.39999999996266 M 221.7918707918573,123.80261044172957 M 221.92665541262738,123.53746244786865 M 222.06253383692413,123.46909737739665 M 222.2144992046527,123.46252044337709 M 222.46147220163922,123.62827535704199 M 227.09187079185693,157.73333333329592 M 227.09187079185685,178.33072289152884 M 226.95708617108684,178.59587088538976 M 226.82120774679018,178.6642359558617 M 226.66924237906179,178.67081288988155 M 226.42226938207517,178.50505797621653 M 221.79187079185735,171.06666666662923 M 221.7918707918573,150.46927710839626 M 221.83080495779265,150.32223677456622 M 222.062533836924,150.13576404406317 M 222.21449920465264,150.12918711004372 M 222.46147220163914,150.29494202370861 M 235.79187079185652,111.00000000003482 M 232.7918707916582,111.00000000003482 M 232.7918707916582,101.00000000009433 M 235.79187079185652,101.00000000009433 M 221.79187079185667,184.39999999996266 M 221.79187079185755,177.135943775063 M 221.92665541262778,176.87079578120208 M 222.06253383692422,176.80243071073008 M 222.21449920465275,176.79585377671035 M 222.4614722016393,176.96160869037524 M 226.72039191357118,183.80324678183254 M 226.8125727387018,184.08604184565573 M 226.6620284410101,184.34257014249098 M 226.37018573660356,184.3999999999626 "
  />
</svg>
