<?xml version="1.0" standalone="no"?>
<!DOCTYPE svg PUBLIC "-//W3C//DTD SVG 1.1//EN" "http://www.w3.org/Graphics/SVG/1.1/DTD/svg11.dtd">
<svg width="172.49999999999972mm" height="226.79187079185516mm"
 viewBox="0 0 172.49999999999972 226.79187079185516"
 xmlns="http://www.w3.org/2000/svg" version="1.1"
 xmlns:xlink="http://www.w3.org/1999/xlink">
<desc>Output from Flights of Ideas SVG Sketchup Plugin</desc>

  <path id="face0-cut"
 style="fill:none;stroke:#0000FF;stroke-width:1;stroke-miterlimit:4;stroke-dasharray:none;stroke-linejoin:round;stroke-linecap:round"
        d="M 159.4999999999996,10.0 L 14.499999999999986,10.0 L 14.500000000000057,59.99999999999983 L 10.0,59.99999999999966 L 10.000000000000014,69.99999999999977 L 14.500000000000028,69.99999999999977 L 14.499999999999986,156.791870791855 L 10.000000000000014,156.791870791855 L 10.0,166.791870791855 L 14.499999999999972,166.791870791855 L 14.499999999999972,216.791870791855 L 159.49999999999966,216.79187079185516 L 159.49999999999974,166.79187079185505 L 162.49999999999966,166.79187079185505 L 162.49999999999966,156.79187079185505 L 159.49999999999972,156.791870791855 L 159.49999999999966,69.99999999999983 L 162.49999999999972,69.99999999999983 L 162.49999999999966,59.99999999999983 L 159.49999999999963,59.99999999999983 L 159.4999999999996,10.0 M 33.65265448983706,19.999999998301888 L 54.25004404806954,19.999999998301888 L 54.46122406519092,20.08059256453629 L 54.58355711240341,20.2706630433683 L 54.590134046422136,20.422628411096724 L 54.424379132758574,20.669601408083338 L 46.98598782317109,25.29999999830156 L 33.652654489836635,25.29999999830173 L 33.65265448983706,19.999999998301888 M 60.31932115571856,19.999999999999886 L 80.91671071395103,19.9999999999998 L 81.06375104778121,20.038934165935103 L 81.25022377828392,20.270663045066556 L 81.25680071230428,20.42262841279515 L 81.09104579863839,20.66960140978165 L 73.65265448905093,25.2999999999997 L 53.05526493081801,25.299999999999528 L 52.8440849136976,25.21940743376541 L 52.74872465263387,25.100903637792896 L 52.71517493246573,24.87737158720438 L 52.88092984613171,24.630398590217823 L 60.31932115571856,19.999999999999886 M 86.98598782238433,19.99999999999997 L 107.58337738061685,20.0 L 107.73041771444879,20.038934165935217 L 107.84852537447742,20.13478462077029 L 107.92346737897006,20.422628412795206 L 107.7577124653047,20.66960140978182 L 100.31932115571836,25.299999999999926 L 97.78995913770761,25.299999999999812 L 79.72193159748551,25.29999999999947 L 79.57489126365493,25.26106583406431 L 79.41539131929981,25.10090363779267 L 79.381841599133,24.87737158720472 L 79.54759651279738,24.63039859021768 L 86.98598782238433,19.99999999999997 M 139.72329082915385,20.371478878286524 L 139.92960520140917,20.279139606226465 L 140.15050785314185,20.32703720346541 L 140.26261418981142,20.429842350847395 L 140.3200440472855,20.721685055253943 L 140.3200440472853,25.30000000000038 L 133.05598782238434,25.300000000000125 L 132.90894748855527,25.26106583406485 L 132.72247475805244,25.029336954933626 L 132.7158978240316,24.877371587205033 L 132.88165273769695,24.630398590218448 L 139.72329082915385,20.371478878286524 M 33.65265448905103,28.300000000000153 L 40.91671071395078,28.299999999999756 L 41.12789073107288,28.3805925662339 L 41.22325099213646,28.499096362206615 L 41.25680071230322,28.722628412795217 L 41.09104579863917,28.96960140978183 L 34.24940770718298,33.22852112171378 L 33.96661264335842,33.320701946844395 L 33.71008434652319,33.17015764915254 L 33.652654489052026,32.87831494474588 L 33.65265448905103,28.300000000000153 M 46.98598782238548,28.2999999999993 L 67.58337738061768,28.299999999999926 L 67.73041771444794,28.338934165935285 L 67.84852537447915,28.434784620769932 L 67.91689044495055,28.570663045066425 L 67.92346737897012,28.722628412795103 L 67.75771246530505,28.96960140978183 L 60.31932115571854,33.599999999999625 L 39.721931597484556,33.59999999999994 L 39.45678360362426,33.46521537922996 L 39.38184159913243,33.17737158720462 L 39.54759651279741,32.9303985902184 L 46.98598782238548,28.2999999999993 M 73.65265448905102,28.299999999999756 L 94.25004404728396,28.2999999999997 L 94.3970843811138,28.3389341659352 L 94.55658432546926,28.499096362206558 L 94.5901340456371,28.722628412794705 L 94.42437913197162,28.969601409781376 L 86.98598782238375,33.59999999999977 L 74.86265448983669,33.599999999999596 L 66.38859826415172,33.599999999999596 L 66.1774182470312,33.51940743376517 L 66.0550851998187,33.32933695493276 L 66.04850826579977,33.17737158720422 L 66.21426317946438,32.93039859021749 L 73.65265448905102,28.299999999999756 M 100.29625394351682,28.289015954173124 L 120.89364350174962,28.289015954173294 L 121.0406838355794,28.32795012010874 L 121.20018377993492,28.488112316379983 L 121.23373350010279,28.711644366968528 L 121.0679785864374,28.958617363955028 L 113.62958727684962,33.58901595417322 L 101.50625394430296,33.58901595417285 L 93.03219771861716,33.58901595417316 L 92.82101770149688,33.50842338793879 L 92.69868465428401,33.31835290910658 L 92.69210772026543,33.1663875413779 L 92.85786263392976,32.919414544391316 L 100.29625394351682,28.289015954173124 M 126.96292061018406,28.28901595417321 L 140.2962539435186,28.28901595417281 L 140.29625394351834,32.340054552559224 L 140.29625394351834,33.58901595417285 L 119.69886438528374,33.589015954172936 L 119.55182405145393,33.55008178823755 L 119.36535132095108,33.31835290910601 L 119.35877438693157,33.16638754137773 L 119.5245293005968,32.919414544391 L 126.96292061018406,28.28901595417321 M 33.652654489836976,36.59999999830191 L 54.25004404806943,36.59999999830177 L 54.46122406519093,36.68059256453594 L 54.5835571124035,36.87066304336818 L 54.59013404642212,37.02262841109655 L 54.424379132758276,37.26960140808367 L 46.98598782317089,41.899999998301496 L 33.65265448983648,41.89999999830184 L 33.652654489836976,36.59999999830191 M 60.31932115571831,36.60000000000022 L 80.91671071395092,36.60000000000025 L 81.0637510477809,36.63893416593575 L 81.25022377828395,36.870663045066834 L 81.25680071230433,37.0226284127954 L 81.09104579863845,37.26960140978187 L 73.65265448905083,41.89999999999975 L 53.05526493081817,41.899999999999466 L 52.84408491369783,41.81940743376515 L 52.74872465263405,41.70090363779275 L 52.71517493246601,41.47737158720429 L 52.880929846131934,41.230398590217874 L 60.31932115571831,36.60000000000022 M 86.9859878223842,36.599999999999994 L 107.58337738061718,36.59999999999985 L 107.73041771444883,36.63893416593521 L 107.84852537447773,36.73478462076994 L 107.92346737896996,37.022628412795115 L 107.75771246530458,37.269601409781785 L 100.319321155718,41.89999999999981 L 97.78995913770754,41.89999999999941 L 79.72193159748561,41.89999999999924 L 79.57489126365496,41.86106583406416 L 79.41539131929991,41.700903637792806 L 79.3818415991334,41.47737158720423 L 79.54759651279758,41.23039859021773 L 86.9859878223842,36.599999999999994 M 113.65337738061663,36.59999999999988 L 134.25076693884938,36.59999999999994 L 134.3978072726813,36.63893416593538 L 134.51591493271022,36.73478462076994 L 134.59085693720232,37.02262841279534 L 134.42510202353714,37.26960140978184 L 126.9867107139506,41.89999999999975 L 106.38932115571814,41.89999999999958 L 106.24228082188765,41.86106583406422 L 106.08278087753244,41.700903637792976 L 106.04923115736602,41.4773715872044 L 106.21498607102973,41.2303985902181 L 113.65337738061663,36.59999999999988 M 139.72329082915397,36.97147887828649 L 139.92960520140898,36.879139606226516 L 140.15050785314165,36.9270372034656 L 140.26261418981136,37.029842350847474 L 140.3200440472854,37.32168505525419 L 140.32004404728553,41.900000000000546 L 133.05598782238434,41.899999999999864 L 132.90894748855496,41.861065834064675 L 132.72247475805244,41.62933695493342 L 132.7158978240318,41.47737158720474 L 132.88165273769735,41.23039859021827 L 139.72329082915397,36.97147887828649 M 33.65265448905157,44.899999999999864 L 40.91671071395071,44.89999999999958 L 41.127890731072895,44.98059256623378 L 41.2232509921367,45.09909636220624 L 41.256800712303246,45.32262841279493 L 41.091045798639314,45.569601409781626 L 34.24940770718287,49.82852112171372 L 33.96661264335832,49.92070194684425 L 33.71008434652343,49.77015764915245 L 33.6526544890519,49.47831494474616 L 33.65265448905157,44.899999999999864 M 46.98598782238558,44.89999999999952 L 67.58337738061738,44.899999999999636 L 67.73041771444792,44.938934165934995 L 67.84852537447908,45.03478462076964 L 67.91689044495065,45.17066304506625 L 67.92346737897009,45.32262841279504 L 67.75771246530498,45.56960140978151 L 60.3193211557185,50.19999999999959 L 39.72193159748467,50.19999999999959 L 39.456783603624686,50.06521537922947 L 39.38184159913267,49.77737158720413 L 39.547596512797796,49.5303985902176 L 46.98598782238558,44.89999999999952 M 73.652654489051,44.899999999999864 L 94.25004404728395,44.89999999999952 L 94.39708438111369,44.93893416593505 L 94.55658432546932,45.09909636220607 L 94.59013404563726,45.32262841279453 L 94.42437913197168,45.569601409781285 L 86.98598782238415,50.19999999999959 L 74.86265448983681,50.19999999999942 L 66.38859826415174,50.19999999999942 L 66.1774182470308,50.119407433765105 L 66.05508519981825,49.92933695493292 L 66.04850826579937,49.77737158720447 L 66.21426317946398,49.53039859021777 L 73.652654489051,44.899999999999864 M 100.29625394351731,44.88901595417303 L 120.89364350174986,44.88901595417326 L 121.04068383557953,44.92795012010879 L 121.20018377993514,45.088112316380204 L 121.23373350010307,45.31164436696838 L 121.06797858643748,45.55861736395508 L 113.6295872768496,50.18901595417344 L 101.50625394430261,50.189015954173215 L 93.03219771861737,50.189015954173215 L 92.82101770149653,50.108423387938785 L 92.69868465428422,49.91835290910649 L 92.6921077202651,49.76638754137804 L 92.8578626339298,49.519414544391225 L 100.29625394351731,44.88901595417303 M 126.9629206101841,44.889015954172805 L 140.2962539435183,44.8890159541732 L 140.29625394351842,48.940054552558934 L 140.29625394351834,50.18901595417316 L 119.6988643852841,50.18901595417287 L 119.55182405145405,50.15008178823746 L 119.36535132095123,49.91835290910615 L 119.35877438693153,49.76638754137758 L 119.52452930059657,49.51941454439094 L 126.9629206101841,44.889015954172805 M 113.65337738061686,19.999999999999886 L 134.2507669388493,20.000000000000057 L 134.39780727268112,20.038934165935558 L 134.51591493271027,20.13478462077012 L 134.59085693720237,20.42262841279515 L 134.42510202353685,20.669601409781905 L 126.98671071395069,25.299999999999585 L 106.38932115571822,25.29999999999984 L 106.2422808218876,25.261065834064397 L 106.08278087753222,25.100903637793124 L 106.04923115736597,24.877371587204266 L 106.21498607103001,24.63039859021808 L 113.65337738061686,19.999999999999886 "
  />
  <path id="face0-interior"
 style="fill:none;stroke:#FF0000;stroke-width:1;stroke-miterlimit:4;stroke-dasharray:none;stroke-linejoin:round;stroke-linecap:round"
        d="M 159.4999999999996,10.0 M 14.499999999999986,10.0 M 14.500000000000057,59.99999999999983 M 10.0,59.99999999999966 M 10.000000000000014,69.99999999999977 M 14.500000000000028,69.99999999999977 M 14.499999999999986,156.791870791855 M 10.000000000000014,156.791870791855 M 10.0,166.791870791855 M 14.499999999999972,166.791870791855 M 14.499999999999972,216.791870791855 M 159.49999999999966,216.79187079185516 M 159.49999999999974,166.79187079185505 M 162.49999999999966,166.79187079185505 M 162.49999999999966,156.79187079185505 M 159.49999999999972,156.791870791855 M 159.49999999999966,69.99999999999983 M 162.49999999999972,69.99999999999983 M 162.49999999999966,59.99999999999983 M 159.49999999999963,59.99999999999983 M 33.65265448983706,19.999999998301888 M 54.25004404806954,19.999999998301888 M 54.46122406519092,20.08059256453629 M 54.58355711240341,20.2706630433683 M 54.590134046422136,20.422628411096724 M 54.424379132758574,20.669601408083338 M 46.98598782317109,25.29999999830156 M 33.652654489836635,25.29999999830173 M 60.31932115571856,19.999999999999886 M 80.91671071395103,19.9999999999998 M 81.06375104778121,20.038934165935103 M 81.25022377828392,20.270663045066556 M 81.25680071230428,20.42262841279515 M 81.09104579863839,20.66960140978165 M 73.65265448905093,25.2999999999997 M 53.05526493081801,25.299999999999528 M 52.8440849136976,25.21940743376541 M 52.74872465263387,25.100903637792896 M 52.71517493246573,24.87737158720438 M 52.88092984613171,24.630398590217823 M 86.98598782238433,19.99999999999997 M 107.58337738061685,20.0 M 107.73041771444879,20.038934165935217 M 107.84852537447742,20.13478462077029 M 107.92346737897006,20.422628412795206 M 107.7577124653047,20.66960140978182 M 100.31932115571836,25.299999999999926 M 97.78995913770761,25.299999999999812 M 79.72193159748551,25.29999999999947 M 79.57489126365493,25.26106583406431 M 79.41539131929981,25.10090363779267 M 79.381841599133,24.87737158720472 M 79.54759651279738,24.63039859021768 M 139.72329082915385,20.371478878286524 M 139.92960520140917,20.279139606226465 M 140.15050785314185,20.32703720346541 M 140.26261418981142,20.429842350847395 M 140.3200440472855,20.721685055253943 M 140.3200440472853,25.30000000000038 M 133.05598782238434,25.300000000000125 M 132.90894748855527,25.26106583406485 M 132.72247475805244,25.029336954933626 M 132.7158978240316,24.877371587205033 M 132.88165273769695,24.630398590218448 M 33.65265448905103,28.300000000000153 M 40.91671071395078,28.299999999999756 M 41.12789073107288,28.3805925662339 M 41.22325099213646,28.499096362206615 M 41.25680071230322,28.722628412795217 M 41.09104579863917,28.96960140978183 M 34.24940770718298,33.22852112171378 M 33.96661264335842,33.320701946844395 M 33.71008434652319,33.17015764915254 M 33.652654489052026,32.87831494474588 M 46.98598782238548,28.2999999999993 M 67.58337738061768,28.299999999999926 M 67.73041771444794,28.338934165935285 M 67.84852537447915,28.434784620769932 M 67.91689044495055,28.570663045066425 M 67.92346737897012,28.722628412795103 M 67.75771246530505,28.96960140978183 M 60.31932115571854,33.599999999999625 M 39.721931597484556,33.59999999999994 M 39.45678360362426,33.46521537922996 M 39.38184159913243,33.17737158720462 M 39.54759651279741,32.9303985902184 M 73.65265448905102,28.299999999999756 M 94.25004404728396,28.2999999999997 M 94.3970843811138,28.3389341659352 M 94.55658432546926,28.499096362206558 M 94.5901340456371,28.722628412794705 M 94.42437913197162,28.969601409781376 M 86.98598782238375,33.59999999999977 M 74.86265448983669,33.599999999999596 M 66.38859826415172,33.599999999999596 M 66.1774182470312,33.51940743376517 M 66.0550851998187,33.32933695493276 M 66.04850826579977,33.17737158720422 M 66.21426317946438,32.93039859021749 M 100.29625394351682,28.289015954173124 M 120.89364350174962,28.289015954173294 M 121.0406838355794,28.32795012010874 M 121.20018377993492,28.488112316379983 M 121.23373350010279,28.711644366968528 M 121.0679785864374,28.958617363955028 M 113.62958727684962,33.58901595417322 M 101.50625394430296,33.58901595417285 M 93.03219771861716,33.58901595417316 M 92.82101770149688,33.50842338793879 M 92.69868465428401,33.31835290910658 M 92.69210772026543,33.1663875413779 M 92.85786263392976,32.919414544391316 M 126.96292061018406,28.28901595417321 M 140.2962539435186,28.28901595417281 M 140.29625394351834,32.340054552559224 M 140.29625394351834,33.58901595417285 M 119.69886438528374,33.589015954172936 M 119.55182405145393,33.55008178823755 M 119.36535132095108,33.31835290910601 M 119.35877438693157,33.16638754137773 M 119.5245293005968,32.919414544391 M 33.652654489836976,36.59999999830191 M 54.25004404806943,36.59999999830177 M 54.46122406519093,36.68059256453594 M 54.5835571124035,36.87066304336818 M 54.59013404642212,37.02262841109655 M 54.424379132758276,37.26960140808367 M 46.98598782317089,41.899999998301496 M 33.65265448983648,41.89999999830184 M 60.31932115571831,36.60000000000022 M 80.91671071395092,36.60000000000025 M 81.0637510477809,36.63893416593575 M 81.25022377828395,36.870663045066834 M 81.25680071230433,37.0226284127954 M 81.09104579863845,37.26960140978187 M 73.65265448905083,41.89999999999975 M 53.05526493081817,41.899999999999466 M 52.84408491369783,41.81940743376515 M 52.74872465263405,41.70090363779275 M 52.71517493246601,41.47737158720429 M 52.880929846131934,41.230398590217874 M 86.9859878223842,36.599999999999994 M 107.58337738061718,36.59999999999985 M 107.73041771444883,36.63893416593521 M 107.84852537447773,36.73478462076994 M 107.92346737896996,37.022628412795115 M 107.75771246530458,37.269601409781785 M 100.319321155718,41.89999999999981 M 97.78995913770754,41.89999999999941 M 79.72193159748561,41.89999999999924 M 79.57489126365496,41.86106583406416 M 79.41539131929991,41.700903637792806 M 79.3818415991334,41.47737158720423 M 79.54759651279758,41.23039859021773 M 113.65337738061663,36.59999999999988 M 134.25076693884938,36.59999999999994 M 134.3978072726813,36.63893416593538 M 134.51591493271022,36.73478462076994 M 134.59085693720232,37.02262841279534 M 134.42510202353714,37.26960140978184 M 126.9867107139506,41.89999999999975 M 106.38932115571814,41.89999999999958 M 106.24228082188765,41.86106583406422 M 106.08278087753244,41.700903637792976 M 106.04923115736602,41.4773715872044 M 106.21498607102973,41.2303985902181 M 139.72329082915397,36.97147887828649 M 139.92960520140898,36.879139606226516 M 140.15050785314165,36.9270372034656 M 140.26261418981136,37.029842350847474 M 140.3200440472854,37.32168505525419 M 140.32004404728553,41.900000000000546 M 133.05598782238434,41.899999999999864 M 132.90894748855496,41.861065834064675 M 132.72247475805244,41.62933695493342 M 132.7158978240318,41.47737158720474 M 132.88165273769735,41.23039859021827 M 33.65265448905157,44.899999999999864 M 40.91671071395071,44.89999999999958 M 41.127890731072895,44.98059256623378 M 41.2232509921367,45.09909636220624 M 41.256800712303246,45.32262841279493 M 41.091045798639314,45.569601409781626 M 34.24940770718287,49.82852112171372 M 33.96661264335832,49.92070194684425 M 33.71008434652343,49.77015764915245 M 33.6526544890519,49.47831494474616 M 46.98598782238558,44.89999999999952 M 67.58337738061738,44.899999999999636 M 67.73041771444792,44.938934165934995 M 67.84852537447908,45.03478462076964 M 67.91689044495065,45.17066304506625 M 67.92346737897009,45.32262841279504 M 67.75771246530498,45.56960140978151 M 60.3193211557185,50.19999999999959 M 39.72193159748467,50.19999999999959 M 39.456783603624686,50.06521537922947 M 39.38184159913267,49.77737158720413 M 39.547596512797796,49.5303985902176 M 73.652654489051,44.899999999999864 M 94.25004404728395,44.89999999999952 M 94.39708438111369,44.93893416593505 M 94.55658432546932,45.09909636220607 M 94.59013404563726,45.32262841279453 M 94.42437913197168,45.569601409781285 M 86.98598782238415,50.19999999999959 M 74.86265448983681,50.19999999999942 M 66.38859826415174,50.19999999999942 M 66.1774182470308,50.119407433765105 M 66.05508519981825,49.92933695493292 M 66.04850826579937,49.77737158720447 M 66.21426317946398,49.53039859021777 M 100.29625394351731,44.88901595417303 M 120.89364350174986,44.88901595417326 M 121.04068383557953,44.92795012010879 M 121.20018377993514,45.088112316380204 M 121.23373350010307,45.31164436696838 M 121.06797858643748,45.55861736395508 M 113.6295872768496,50.18901595417344 M 101.50625394430261,50.189015954173215 M 93.03219771861737,50.189015954173215 M 92.82101770149653,50.108423387938785 M 92.69868465428422,49.91835290910649 M 92.6921077202651,49.76638754137804 M 92.8578626339298,49.519414544391225 M 126.9629206101841,44.889015954172805 M 140.2962539435183,44.8890159541732 M 140.29625394351842,48.940054552558934 M 140.29625394351834,50.18901595417316 M 119.6988643852841,50.18901595417287 M 119.55182405145405,50.15008178823746 M 119.36535132095123,49.91835290910615 M 119.35877438693153,49.76638754137758 M 119.52452930059657,49.51941454439094 M 113.65337738061686,19.999999999999886 M 134.2507669388493,20.000000000000057 M 134.39780727268112,20.038934165935558 M 134.51591493271027,20.13478462077012 M 134.59085693720237,20.42262841279515 M 134.42510202353685,20.669601409781905 M 126.98671071395069,25.299999999999585 M 106.38932115571822,25.29999999999984 M 106.2422808218876,25.261065834064397 M 106.08278087753222,25.100903637793124 M 106.04923115736597,24.877371587204266 M 106.21498607103001,24.63039859021808 "
  />
  <path id="face0-interior"
 style="fill:none;stroke:#00FF00;stroke-width:1;stroke-miterlimit:4;stroke-dasharray:none;stroke-linejoin:round;stroke-linecap:round"
        d="M 159.4999999999996,10.0 M 14.499999999999986,10.0 M 14.500000000000057,59.99999999999983 M 10.0,59.99999999999966 M 10.000000000000014,69.99999999999977 M 14.500000000000028,69.99999999999977 M 14.499999999999986,156.791870791855 M 10.000000000000014,156.791870791855 M 10.0,166.791870791855 M 14.499999999999972,166.791870791855 M 14.499999999999972,216.791870791855 M 159.49999999999966,216.79187079185516 M 159.49999999999974,166.79187079185505 M 162.49999999999966,166.79187079185505 M 162.49999999999966,156.79187079185505 M 159.49999999999972,156.791870791855 M 159.49999999999966,69.99999999999983 M 162.49999999999972,69.99999999999983 M 162.49999999999966,59.99999999999983 M 159.49999999999963,59.99999999999983 M 33.65265448983706,19.999999998301888 M 54.25004404806954,19.999999998301888 M 54.46122406519092,20.08059256453629 M 54.58355711240341,20.2706630433683 M 54.590134046422136,20.422628411096724 M 54.424379132758574,20.669601408083338 M 46.98598782317109,25.29999999830156 M 33.652654489836635,25.29999999830173 M 60.31932115571856,19.999999999999886 M 80.91671071395103,19.9999999999998 M 81.06375104778121,20.038934165935103 M 81.25022377828392,20.270663045066556 M 81.25680071230428,20.42262841279515 M 81.09104579863839,20.66960140978165 M 73.65265448905093,25.2999999999997 M 53.05526493081801,25.299999999999528 M 52.8440849136976,25.21940743376541 M 52.74872465263387,25.100903637792896 M 52.71517493246573,24.87737158720438 M 52.88092984613171,24.630398590217823 M 86.98598782238433,19.99999999999997 M 107.58337738061685,20.0 M 107.73041771444879,20.038934165935217 M 107.84852537447742,20.13478462077029 M 107.92346737897006,20.422628412795206 M 107.7577124653047,20.66960140978182 M 100.31932115571836,25.299999999999926 M 97.78995913770761,25.299999999999812 M 79.72193159748551,25.29999999999947 M 79.57489126365493,25.26106583406431 M 79.41539131929981,25.10090363779267 M 79.381841599133,24.87737158720472 M 79.54759651279738,24.63039859021768 M 139.72329082915385,20.371478878286524 M 139.92960520140917,20.279139606226465 M 140.15050785314185,20.32703720346541 M 140.26261418981142,20.429842350847395 M 140.3200440472855,20.721685055253943 M 140.3200440472853,25.30000000000038 M 133.05598782238434,25.300000000000125 M 132.90894748855527,25.26106583406485 M 132.72247475805244,25.029336954933626 M 132.7158978240316,24.877371587205033 M 132.88165273769695,24.630398590218448 M 33.65265448905103,28.300000000000153 M 40.91671071395078,28.299999999999756 M 41.12789073107288,28.3805925662339 M 41.22325099213646,28.499096362206615 M 41.25680071230322,28.722628412795217 M 41.09104579863917,28.96960140978183 M 34.24940770718298,33.22852112171378 M 33.96661264335842,33.320701946844395 M 33.71008434652319,33.17015764915254 M 33.652654489052026,32.87831494474588 M 46.98598782238548,28.2999999999993 M 67.58337738061768,28.299999999999926 M 67.73041771444794,28.338934165935285 M 67.84852537447915,28.434784620769932 M 67.91689044495055,28.570663045066425 M 67.92346737897012,28.722628412795103 M 67.75771246530505,28.96960140978183 M 60.31932115571854,33.599999999999625 M 39.721931597484556,33.59999999999994 M 39.45678360362426,33.46521537922996 M 39.38184159913243,33.17737158720462 M 39.54759651279741,32.9303985902184 M 73.65265448905102,28.299999999999756 M 94.25004404728396,28.2999999999997 M 94.3970843811138,28.3389341659352 M 94.55658432546926,28.499096362206558 M 94.5901340456371,28.722628412794705 M 94.42437913197162,28.969601409781376 M 86.98598782238375,33.59999999999977 M 74.86265448983669,33.599999999999596 M 66.38859826415172,33.599999999999596 M 66.1774182470312,33.51940743376517 M 66.0550851998187,33.32933695493276 M 66.04850826579977,33.17737158720422 M 66.21426317946438,32.93039859021749 M 100.29625394351682,28.289015954173124 M 120.89364350174962,28.289015954173294 M 121.0406838355794,28.32795012010874 M 121.20018377993492,28.488112316379983 M 121.23373350010279,28.711644366968528 M 121.0679785864374,28.958617363955028 M 113.62958727684962,33.58901595417322 M 101.50625394430296,33.58901595417285 M 93.03219771861716,33.58901595417316 M 92.82101770149688,33.50842338793879 M 92.69868465428401,33.31835290910658 M 92.69210772026543,33.1663875413779 M 92.85786263392976,32.919414544391316 M 126.96292061018406,28.28901595417321 M 140.2962539435186,28.28901595417281 M 140.29625394351834,32.340054552559224 M 140.29625394351834,33.58901595417285 M 119.69886438528374,33.589015954172936 M 119.55182405145393,33.55008178823755 M 119.36535132095108,33.31835290910601 M 119.35877438693157,33.16638754137773 M 119.5245293005968,32.919414544391 M 33.652654489836976,36.59999999830191 M 54.25004404806943,36.59999999830177 M 54.46122406519093,36.68059256453594 M 54.5835571124035,36.87066304336818 M 54.59013404642212,37.02262841109655 M 54.424379132758276,37.26960140808367 M 46.98598782317089,41.899999998301496 M 33.65265448983648,41.89999999830184 M 60.31932115571831,36.60000000000022 M 80.91671071395092,36.60000000000025 M 81.0637510477809,36.63893416593575 M 81.25022377828395,36.870663045066834 M 81.25680071230433,37.0226284127954 M 81.09104579863845,37.26960140978187 M 73.65265448905083,41.89999999999975 M 53.05526493081817,41.899999999999466 M 52.84408491369783,41.81940743376515 M 52.74872465263405,41.70090363779275 M 52.71517493246601,41.47737158720429 M 52.880929846131934,41.230398590217874 M 86.9859878223842,36.599999999999994 M 107.58337738061718,36.59999999999985 M 107.73041771444883,36.63893416593521 M 107.84852537447773,36.73478462076994 M 107.92346737896996,37.022628412795115 M 107.75771246530458,37.269601409781785 M 100.319321155718,41.89999999999981 M 97.78995913770754,41.89999999999941 M 79.72193159748561,41.89999999999924 M 79.57489126365496,41.86106583406416 M 79.41539131929991,41.700903637792806 M 79.3818415991334,41.47737158720423 M 79.54759651279758,41.23039859021773 M 113.65337738061663,36.59999999999988 M 134.25076693884938,36.59999999999994 M 134.3978072726813,36.63893416593538 M 134.51591493271022,36.73478462076994 M 134.59085693720232,37.02262841279534 M 134.42510202353714,37.26960140978184 M 126.9867107139506,41.89999999999975 M 106.38932115571814,41.89999999999958 M 106.24228082188765,41.86106583406422 M 106.08278087753244,41.700903637792976 M 106.04923115736602,41.4773715872044 M 106.21498607102973,41.2303985902181 M 139.72329082915397,36.97147887828649 M 139.92960520140898,36.879139606226516 M 140.15050785314165,36.9270372034656 M 140.26261418981136,37.029842350847474 M 140.3200440472854,37.32168505525419 M 140.32004404728553,41.900000000000546 M 133.05598782238434,41.899999999999864 M 132.90894748855496,41.861065834064675 M 132.72247475805244,41.62933695493342 M 132.7158978240318,41.47737158720474 M 132.88165273769735,41.23039859021827 M 33.65265448905157,44.899999999999864 M 40.91671071395071,44.89999999999958 M 41.127890731072895,44.98059256623378 M 41.2232509921367,45.09909636220624 M 41.256800712303246,45.32262841279493 M 41.091045798639314,45.569601409781626 M 34.24940770718287,49.82852112171372 M 33.96661264335832,49.92070194684425 M 33.71008434652343,49.77015764915245 M 33.6526544890519,49.47831494474616 M 46.98598782238558,44.89999999999952 M 67.58337738061738,44.899999999999636 M 67.73041771444792,44.938934165934995 M 67.84852537447908,45.03478462076964 M 67.91689044495065,45.17066304506625 M 67.92346737897009,45.32262841279504 M 67.75771246530498,45.56960140978151 M 60.3193211557185,50.19999999999959 M 39.72193159748467,50.19999999999959 M 39.456783603624686,50.06521537922947 M 39.38184159913267,49.77737158720413 M 39.547596512797796,49.5303985902176 M 73.652654489051,44.899999999999864 M 94.25004404728395,44.89999999999952 M 94.39708438111369,44.93893416593505 M 94.55658432546932,45.09909636220607 M 94.59013404563726,45.32262841279453 M 94.42437913197168,45.569601409781285 M 86.98598782238415,50.19999999999959 M 74.86265448983681,50.19999999999942 M 66.38859826415174,50.19999999999942 M 66.1774182470308,50.119407433765105 M 66.05508519981825,49.92933695493292 M 66.04850826579937,49.77737158720447 M 66.21426317946398,49.53039859021777 M 100.29625394351731,44.88901595417303 M 120.89364350174986,44.88901595417326 M 121.04068383557953,44.92795012010879 M 121.20018377993514,45.088112316380204 M 121.23373350010307,45.31164436696838 M 121.06797858643748,45.55861736395508 M 113.6295872768496,50.18901595417344 M 101.50625394430261,50.189015954173215 M 93.03219771861737,50.189015954173215 M 92.82101770149653,50.108423387938785 M 92.69868465428422,49.91835290910649 M 92.6921077202651,49.76638754137804 M 92.8578626339298,49.519414544391225 M 126.9629206101841,44.889015954172805 M 140.2962539435183,44.8890159541732 M 140.29625394351842,48.940054552558934 M 140.29625394351834,50.18901595417316 M 119.6988643852841,50.18901595417287 M 119.55182405145405,50.15008178823746 M 119.36535132095123,49.91835290910615 M 119.35877438693153,49.76638754137758 M 119.52452930059657,49.51941454439094 M 113.65337738061686,19.999999999999886 M 134.2507669388493,20.000000000000057 M 134.39780727268112,20.038934165935558 M 134.51591493271027,20.13478462077012 M 134.59085693720237,20.42262841279515 M 134.42510202353685,20.669601409781905 M 126.98671071395069,25.299999999999585 M 106.38932115571822,25.29999999999984 M 106.2422808218876,25.261065834064397 M 106.08278087753222,25.100903637793124 M 106.04923115736597,24.877371587204266 M 106.21498607103001,24.63039859021808 "
  />
</svg>
