<?xml version="1.0" standalone="no"?>
<!DOCTYPE svg PUBLIC "-//W3C//DTD SVG 1.1//EN" "http://www.w3.org/Graphics/SVG/1.1/DTD/svg11.dtd">
<svg width="172.50000004831514mm" height="188.00000000016456mm"
 viewBox="0 0 172.50000004831514 188.00000000016456"
 xmlns="http://www.w3.org/2000/svg" version="1.1"
 xmlns:xlink="http://www.w3.org/1999/xlink">
<desc>Output from Flights of Ideas SVG Sketchup Plugin</desc>

  <path id="face0-cut"
 style="fill:none;stroke:#0000FF;stroke-width:1;stroke-miterlimit:4;stroke-dasharray:none;stroke-linejoin:round;stroke-linecap:round"
        d="M 159.5000000002696,10.0 L 14.499999999602643,10.0 L 14.500000000000036,89.00000000000392 L 10.0,89.00000000000449 L 10.000000000001371,99.00000000000438 L 14.500000000001386,99.00000000000392 L 14.500000000245194,178.00000000012523 L 159.49999999917284,178.00000000016456 L 159.50000004831514,99.00000000005383 L 162.50000004831514,99.00000000005349 L 162.50000004831378,89.00000000005349 L 159.50000004831378,89.00000000005394 L 159.5000000002696,10.0 M 54.46782323288237,21.480585455758103 L 47.02943192329499,26.110984045976238 L 26.432042365061882,26.110984045976295 L 26.285002031232224,26.07204988004065 L 26.125502086876587,25.911887683769237 L 26.091952366708767,25.688355633180834 L 26.25770728037432,25.44138263619419 L 33.69609858996068,20.81098404597634 L 45.81943192250938,20.810984045976284 L 54.293488148194825,20.81098404597617 L 54.440528482024824,20.849918211911756 L 54.460481412776595,20.874713635167723 L 54.50466816531532,20.89157661221077 L 54.62700121252772,21.08164709104284 L 54.63357814654736,21.233612458771688 L 54.46782323288237,21.480585455758103 M 73.6960985899622,26.110984045976295 L 53.09870903172921,26.110984045976238 L 52.95166869789957,26.072049880040538 L 52.79216875354391,25.911887683769407 L 52.75861903337609,25.688355633180834 L 52.92437394704162,25.441382636194362 L 60.36276525662938,20.81098404597634 L 72.48609858917678,20.810984045976284 L 80.96015481486198,20.81098404597617 L 81.17133483198272,20.8915766122106 L 81.29366787919525,21.08164709104301 L 81.3002448132142,21.233612458771574 L 81.13448989954952,21.480585455758217 L 73.6960985899622,26.110984045976295 M 100.33969804442808,26.100000000149976 L 79.742308486195,26.100000000149862 L 79.59526815236536,26.061065834214446 L 79.43576820800983,25.900903637943145 L 79.40221848784202,25.677371587354628 L 79.56797340150757,25.430398590367986 L 87.00636471109546,20.800000000149907 L 99.12969804364263,20.800000000149964 L 107.60375426932785,20.800000000150078 L 107.81493428644859,20.880592566384394 L 107.93726733366113,21.070663045216747 L 107.94384426768005,21.222628412945312 L 107.77808935401538,21.469601409931954 L 100.33969804442808,26.100000000149976 M 127.00636471109391,26.100000000150146 L 106.40897515286174,26.100000000149976 L 106.26193481903134,26.06106583421456 L 106.14382715900007,25.965215379379856 L 106.07546208852857,25.82933695508325 L 106.0688851545091,25.67737158735474 L 106.2346400681742,25.4303985903681 L 113.67303137776068,20.800000000150078 L 134.2704209359946,20.80000000015019 L 134.53556892985478,20.934784620920254 L 134.61051093434656,21.22262841294537 L 134.44475602068152,21.46960140993201 L 127.00636471109391,26.100000000150146 M 41.27645470944737,29.522628412944243 L 41.110699795781926,29.769601409930942 L 33.67230848619488,34.40000000014879 L 20.338975152860606,34.400000000148964 L 20.338975152860648,30.34896140176278 L 20.338975152860627,29.10000000014884 L 40.93636471109468,29.10000000014918 L 41.08340504492405,29.138934166084482 L 41.26987777542682,29.37066304521568 L 41.27645470944737,29.522628412944243 M 60.33897515286212,34.40000000014959 L 52.12564181952829,34.400000000149305 L 52.125641819528376,29.100000000149805 L 67.60303137776094,29.100000000149805 L 67.75007171159163,29.138934166085107 L 67.90957165594676,29.29909636235635 L 67.94312137611325,29.522628412944925 L 67.7773664624492,29.769601409931568 L 60.33897515286212,34.40000000014959 M 41.27645470944735,46.122628412944266 L 41.110699795781926,46.36960140993085 L 33.67230848619488,51.00000000014899 L 20.338975152860556,51.00000000014887 L 20.338975152860648,46.9489614017628 L 20.338975152860606,45.70000000014886 L 40.93636471109468,45.70000000014909 L 41.08340504492405,45.73893416608439 L 41.26987777542682,45.9706630452157 L 41.27645470944735,46.122628412944266 M 54.293488148194825,37.41098404597648 L 54.440528482024824,37.449918211911836 L 54.62700121252775,37.6816470910432 L 54.63357814654738,37.83361245877177 L 54.46782323288237,38.08058545575841 L 47.02943192329491,42.71098404597626 L 26.432042365061882,42.71098404597632 L 26.285002031232224,42.672049880040845 L 26.125502086876587,42.511887683769544 L 26.09195236670879,42.288355633181084 L 26.25770728037432,42.0413826361945 L 33.69609858996068,37.41098404597625 L 54.293488148194825,37.41098404597648 M 153.97000416390793,42.700000000150226 L 138.32656835574898,42.70000000015017 L 135.41889392726395,40.46886293891737 L 140.36667083057483,37.40000000015016 L 153.9700041639082,37.40000000015027 L 153.97000416390793,42.700000000150226 M 41.110699795781954,112.76960140993089 L 33.672308486193344,117.40000000014896 L 20.338975152859,117.40000000014885 L 20.33897515285907,112.1000000001489 L 40.93636471109471,112.10000000014912 L 41.08340504492409,112.13893416608454 L 41.269877775426835,112.37066304521574 L 41.27645470944737,112.52262841294436 L 41.110699795781954,112.76960140993089 M 41.110699795781954,129.3696014099309 L 33.672308486193344,134.00000000014887 L 20.33897515285902,134.00000000014887 L 20.33897515285905,128.70000000014892 L 40.93636471109468,128.70000000014903 L 41.08340504492405,128.73893416608445 L 41.26987777542686,128.97066304521576 L 41.27645470944739,129.12262841294427 L 41.110699795781954,129.3696014099309 M 41.110699795781976,145.96960140993082 L 33.67230848619341,150.600000000149 L 20.338975152859,150.6000000001489 L 20.33897515285905,145.30000000014894 L 40.936364711094754,145.30000000014917 L 41.08340504492407,145.33893416608447 L 41.269877775426885,145.57066304521578 L 41.27645470944739,145.7226284129443 L 41.110699795781976,145.96960140993082 M 67.60303137776093,145.30000000014985 L 67.75007171159166,145.33893416608515 L 67.90957165594682,145.4990963623565 L 67.94312137611327,145.72262841294497 L 67.77736646244915,145.9696014099315 L 60.33897515286213,150.60000000014958 L 39.74158559462945,150.60000000014958 L 39.59454526079774,150.56106583421416 L 39.47643760076886,150.46521537937934 L 39.40149559627653,150.17737158735423 L 39.567250509941864,149.9303985903676 L 47.0056418195284,145.30000000014985 L 67.60303137776093,145.30000000014985 M 94.27042093599368,145.30000000014985 L 94.41746126982436,145.33893416608515 L 94.57696121417948,145.4990963623565 L 94.61051093434597,145.72262841294497 L 94.44475602068188,145.9696014099315 L 87.00636471109483,150.60000000014958 L 66.40897515286208,150.60000000014958 L 66.26193481903027,150.56106583421416 L 66.14382715900146,150.46521537937934 L 66.06888515450913,150.17737158735434 L 66.2346400681745,149.9303985903677 L 73.67303137776098,145.30000000014985 L 76.2023933957717,145.30000000014985 L 94.27042093599368,145.30000000014985 M 100.33969804442803,145.30000000014996 L 120.93708760266144,145.30000000014996 L 121.14826761978176,145.38059256638434 L 121.24362788084551,145.49909636235674 L 121.27717760101366,145.7226284129452 L 121.11142268734787,145.96960140993173 L 113.67303137776081,150.6000000001498 L 93.07564181952812,150.60000000014958 L 92.92860148569815,150.56106583421416 L 92.74212875519528,150.32933695508297 L 92.73555182117485,150.17737158735434 L 92.90130673484069,149.9303985903677 L 100.33969804442803,145.30000000014996 M 54.46782323288241,137.68058545575826 L 50.66146003574489,140.0500465459764 L 50.66146003574489,137.0109840459764 L 54.293488148194854,137.0109840459764 L 54.440528482024845,137.0499182119118 L 54.62700121252775,137.2816470910431 L 54.63357814654741,137.43361245877173 L 54.46782323288241,137.68058545575826 M 33.69609858996061,153.6109840459764 L 54.293488148194896,153.6109840459764 L 54.44052848202489,153.64991821191182 L 54.627001212527794,153.88164709104313 L 54.63357814654745,154.03361245877164 L 54.46782323288243,154.28058545575828 L 47.02943192329491,158.91098404597648 L 26.43204236506186,158.91098404597648 L 26.285002031232267,158.87204988004095 L 26.125502086876658,158.7118876837696 L 26.091952366708767,158.48835563318113 L 26.257707280374277,158.2413826361946 L 33.69609858996061,153.6109840459764 M 41.110699795781954,162.56960140993084 L 33.672308486193316,167.20000000014892 L 20.33897515285905,167.20000000014892 L 20.338975152859113,161.90000000014896 L 40.936364711094775,161.9000000001492 L 41.08340504492405,161.9389341660845 L 41.269877775426885,162.1706630452157 L 41.27645470944742,162.3226284129443 L 41.110699795781954,162.56960140993084 M 39.74158559462943,167.2000000001495 L 39.594545260797716,167.16106583421418 L 39.47643760076886,167.06521537937937 L 39.40149559627653,166.77737158735425 L 39.567250509941864,166.5303985903676 L 47.00564181952838,161.90000000014976 L 67.60303137776098,161.90000000014987 L 67.75007171159163,161.93893416608518 L 67.90957165594673,162.09909636235642 L 67.94312137611327,162.322628412945 L 67.77736646244921,162.56960140993152 L 60.33897515286213,167.2000000001496 L 39.74158559462943,167.2000000001495 M 60.36276525662938,153.6109840459763 L 72.48609858917678,153.6109840459764 L 80.96015481486202,153.6109840459763 L 81.17133483198273,153.69157661221067 L 81.29366787919527,153.88164709104302 L 81.30024481321419,154.03361245877164 L 81.13448989954955,154.28058545575828 L 73.69609858996219,158.91098404597625 L 53.098709031729115,158.91098404597614 L 52.95166869789951,158.87204988004072 L 52.79216875354396,158.71188768376948 L 52.75861903337618,158.4883556331809 L 52.924373947041644,158.24138263619426 L 60.36276525662938,153.6109840459763 M 100.33969804442809,158.90000000014987 L 79.74230848619506,158.90000000014987 L 79.5952681523654,158.86106583421446 L 79.43576820800985,158.7009036379432 L 79.40221848784205,158.47737158735464 L 79.56797340150757,158.230398590368 L 87.00636471109553,153.60000000014992 L 99.12969804364266,153.60000000015003 L 107.60375426932785,153.60000000015003 L 107.81493428644859,153.6805925663843 L 107.93726733366113,153.87066304521665 L 107.94384426768005,154.02262841294527 L 107.77808935401538,154.2696014099319 L 100.33969804442809,158.90000000014987 M 100.33969804442805,161.90000000014987 L 120.93708760266134,161.90000000015 L 121.1482676197817,161.98059256638436 L 121.24362788084544,162.09909636235665 L 121.27717760101358,162.3226284129451 L 121.11142268734775,162.56960140993175 L 113.67303137776082,167.2000000001497 L 93.07564181952816,167.2000000001496 L 92.92860148569821,167.16106583421418 L 92.7421287551953,166.929336955083 L 92.73555182117487,166.77737158735437 L 92.90130673484066,166.53039859036772 L 100.33969804442805,161.90000000014987 M 73.67303137776095,161.90000000014987 L 76.20239339577172,161.90000000014987 L 94.27042093599367,161.90000000014987 L 94.41746126982434,161.93893416608518 L 94.5769612141795,162.09909636235642 L 94.61051093434597,162.322628412945 L 94.4447560206819,162.56960140993152 L 87.00636471109482,167.2000000001495 L 66.40897515286208,167.2000000001495 L 66.26193481903033,167.16106583421418 L 66.14382715900146,167.06521537937948 L 66.06888515450913,166.77737158735425 L 66.23464006817449,166.53039859036772 L 73.67303137776095,161.90000000014987 M 127.006364711094,158.9000000001501 L 106.40897515286179,158.90000000015 L 106.26193481903138,158.86106583421446 L 106.14382715900007,158.76521537937975 L 106.07546208852857,158.62933695508326 L 106.06888515450908,158.47737158735475 L 106.23464006817423,158.2303985903681 L 113.67303137776071,153.60000000015015 L 134.2704209359946,153.60000000015003 L 134.53556892985478,153.73478462092015 L 134.61051093434656,154.02262841294538 L 134.44475602068155,154.2696014099319 L 127.006364711094,158.9000000001501 M 140.36667083057483,20.800000000150078 L 153.9700041639082,20.80000000015019 L 153.9700041639082,26.100000000150146 L 133.10261460567602,26.100000000149976 L 133.0756418195283,26.100000000150033 L 133.01451757609465,26.07667317356578 L 132.9555742718456,26.06106583421456 L 132.86446180240648,26.019407433915717 L 132.73555182117605,25.6773715873548 L 132.90130673484006,25.430398590368213 L 140.36667083057483,20.800000000150078 M 153.97384801941092,34.212741640722925 L 146.70979179451137,34.212741640722925 L 146.49861177738953,34.13214907448861 L 146.4032515163259,34.01364527851621 L 146.3697017961591,33.79011322792769 L 146.5354567098231,33.54314023094105 L 153.3770948012796,29.28422051900901 L 153.65988986510402,29.192039693878257 L 153.91641816193908,29.34258399156994 L 153.97384801941075,29.634426695976572 L 153.97384801941092,34.212741640722925 M 153.96937605100695,142.28159384789393 L 148.43733707463127,142.3000000001502 L 148.43733707463127,137.00000000015012 L 153.96937605100692,136.98159384789386 L 153.96937605100695,142.28159384789393 M 153.96937605100692,158.88159384789395 L 133.10261460567602,158.90000000015 L 133.07564181952833,158.9000000001501 L 133.01451757609468,158.87667317356596 L 132.95557427184565,158.86106583421457 L 132.86446180240654,158.81940743391573 L 132.7355518211761,158.47737158735487 L 132.9013067348401,158.23039859036822 L 140.3666708305749,153.60000000015015 L 153.96937605100692,153.58159384789388 L 153.96937605100692,158.88159384789395 M 153.97384801941067,50.81274164072295 L 146.7097917945111,50.81274164072295 L 146.49861177738927,50.73214907448863 L 146.40325151632564,50.61364527851623 L 146.36970179615884,50.39011322792771 L 146.53545670982285,50.14314023094107 L 153.37709480127938,45.884220519009034 L 153.65988986510376,45.79203969387828 L 153.91641816193885,45.94258399156996 L 153.97384801941053,46.234426695976595 L 153.97384801941067,50.81274164072295 M 153.9738480194107,133.8127416407229 L 146.70979179451112,133.812741640723 L 146.4986117773893,133.73214907448863 L 146.40325151632564,133.61364527851634 L 146.3697017961589,133.39011322792777 L 146.53545670982285,133.14314023094101 L 153.37709480127938,128.88422051900903 L 153.6598898651038,128.79203969387828 L 153.91641816193885,128.94258399156996 L 153.97384801941055,129.23442669597654 L 153.9738480194107,133.8127416407229 M 153.97384801941095,150.41274164072314 L 146.7097917945114,150.41274164072314 L 146.49861177738956,150.33214907448865 L 146.40325151632592,150.21364527851625 L 146.36970179615915,149.9901132279278 L 146.53545670982317,149.74314023094115 L 153.37709480127967,145.48422051900917 L 153.65988986510405,145.3920396938783 L 153.91641816193913,145.54258399156998 L 153.9738480194108,145.8344266959768 L 153.97384801941095,150.41274164072314 M 153.97384801941095,167.01274164072294 L 146.7097917945114,167.01274164072294 L 146.49861177738958,166.93214907448868 L 146.40325151632595,166.81364527851628 L 146.36970179615915,166.5901132279277 L 146.53545670982314,166.34314023094106 L 153.37709480127967,162.08422051900908 L 153.65988986510408,161.9920396938782 L 153.91641816193913,162.1425839915699 L 153.97384801941078,162.43442669597658 L 153.97384801941095,167.01274164072294 M 119.4087954210757,150.32933695678145 L 119.40221848705703,150.17737158905283 L 119.58130673484068,149.93039859036793 L 127.01969804442811,145.3000000001502 L 147.6170876026614,145.30000000015042 L 147.82826761978174,145.38059256638456 L 147.92362788084546,145.49909636235697 L 147.95717760101363,145.72262841294554 L 147.79142268734782,145.96960140993195 L 140.35303137776086,150.60000000014992 L 119.75564181952817,150.60000000014992 L 119.60860148569822,150.5610658342145 L 119.4087954210757,150.32933695678145 M 119.40879542107567,166.92933695678124 L 119.40221848705703,166.77737158905273 L 119.58130673484068,166.53039859036784 L 127.01969804442811,161.90000000015 L 147.61708760266143,161.90000000015021 L 147.82826761978174,161.9805925663846 L 147.92362788084546,162.09909636235687 L 147.95717760101363,162.32262841294533 L 147.79142268734782,162.56960140993186 L 140.35303137776086,167.20000000014983 L 119.75564181952818,167.2000000001497 L 119.6086014856982,167.1610658342143 L 119.40879542107567,166.92933695678124 M 144.40200395260308,137.00000000015012 L 144.40200395260305,142.3000000001502 L 133.10261460567602,142.30000000014996 L 133.07564181952833,142.30000000015008 L 133.0145175760947,142.27667317356594 L 132.95557427184565,142.26106583421455 L 132.86446180240654,142.2194074339157 L 132.73555182117607,141.87737158735484 L 132.9013067348401,141.6303985903682 L 140.36667083057486,137.00000000015012 L 144.40200395260308,137.00000000015012 M 37.60237868284257,137.0109840459765 L 37.60237868284257,142.31098404597645 L 26.432042365061882,142.31098404597645 L 26.285002031232246,142.27204988004092 L 26.125502086876637,142.11188768376957 L 26.091952366708767,141.88835563318122 L 26.25770728037432,141.64138263619458 L 33.696098589960634,137.0109840459765 L 37.60237868284257,137.0109840459765 M 47.00564181952838,29.10000000014975 L 47.005641819528286,34.40000000014942 L 39.7415855946294,34.40000000014942 L 39.594545260797645,34.361065834213946 L 39.47643760076884,34.2652153793793 L 39.40149559627646,33.977371587354185 L 39.567250509941815,33.730398590367486 L 47.00564181952838,29.10000000014975 M 47.02943192329491,137.0109840459764 L 47.02943192329491,142.31098404597634 L 41.50865877572437,142.31098404597645 L 41.50865877572441,137.0109840459765 L 47.02943192329491,137.0109840459764 M 121.11142268734775,29.769601409931852 L 119.25888648965166,30.922805192997657 L 114.85824547151495,29.100000000150146 L 120.93708760266135,29.100000000150146 L 121.14826761978168,29.18059256638452 L 121.24362788084542,29.299096362356806 L 121.27717760101356,29.522628412945323 L 121.11142268734775,29.769601409931852 M 140.35303137776083,34.40000000014976 L 127.50979776116662,34.40000000014976 L 127.34113961272234,34.27058405110586 L 122.16065232853414,32.124755958293804 L 127.01969804442805,29.100000000149976 L 147.61708760266137,29.100000000150146 L 147.82826761978168,29.18059256638452 L 147.92362788084543,29.299096362356806 L 147.95717760101357,29.522628412945323 L 147.79142268734776,29.769601409931852 L 140.35303137776083,34.40000000014976 M 133.25627771544077,38.80942915494438 L 131.4194738796908,37.40000000015016 L 134.2704209359946,37.40000000015016 L 134.5355689298548,37.53478462092028 L 134.61051093434656,37.82262841294539 L 134.44475602068152,38.069601409932034 L 133.25627771544077,38.80942915494438 M 147.79142268734753,46.36960140993193 L 143.66964372464977,48.935408814211314 L 141.18702722447566,45.70000000015017 L 147.61708760266112,45.70000000015028 L 147.82826761978146,45.7805925663846 L 147.92362788084517,45.899096362356886 L 147.9571776010133,46.1226284129454 L 147.79142268734753,46.36960140993193 M 153.96937605100663,59.28159384789393 L 150.48766111197838,59.30000000015025 L 149.15625367827465,56.08569811665842 L 147.55584122470108,54.000000000150294 L 153.9693760510066,53.981593847893976 L 153.96937605100663,59.28159384789393 M 153.97384801941067,67.41274164072291 L 153.84806872753256,67.41274164072291 L 152.1285445499786,63.26144305044386 L 153.37709480127936,62.48422051900906 L 153.65988986510376,62.392039693878246 L 153.91641816193885,62.54258399156993 L 153.9738480194105,62.83442669597662 L 153.97384801941067,67.41274164072291 M 153.9738480194107,117.21274164072298 L 147.98451197044145,117.21274164072298 L 149.1562536782747,115.68569811665844 L 149.5882446029588,114.64277976746388 L 153.37709480127938,112.28422051900912 L 153.6598898651038,112.19203969387826 L 153.91641816193885,112.34258399156994 L 153.97384801941053,112.63442669597663 L 153.9738480194107,117.21274164072298 M 153.96937605100666,125.68159384789391 L 141.47200957730303,125.70000000015006 L 145.53884261359147,120.4000000001501 L 153.96937605100663,120.38159384789384 L 153.96937605100666,125.68159384789391 M 140.3530313777606,134.0000000001499 L 131.90348687393583,134.00000000014978 L 138.81058134999375,128.70000000015017 L 147.61708760266114,128.70000000015017 L 147.82826761978146,128.78059256638454 L 147.9236278808452,128.89909636235683 L 147.95717760101334,129.1226284129453 L 147.79142268734756,129.36960140993193 L 140.3530313777606,134.0000000001499 M 127.00636471109408,142.30000000015008 L 115.75487529427826,142.30000000014996 L 127.3411396127224,137.50081218221095 L 127.99381075541208,137.00000000015012 L 134.27042093599462,137.00000000015012 L 134.5355689298548,137.13478462092024 L 134.6105109343466,137.42262841294536 L 134.44475602068155,137.669601409932 L 127.00636471109408,142.30000000015008 M 60.362765256629366,137.01098404597616 L 67.10278315724983,137.01098404597627 L 67.74113961272238,137.50081218221095 L 75.95665268809957,140.90378911988574 L 73.69609858996218,142.31098404597623 L 53.09870903172914,142.3109840459761 L 52.95166869789948,142.2720498800407 L 52.792168753544004,142.11188768376945 L 52.758619033376156,141.88835563318088 L 52.924373947041694,141.64138263619424 L 60.362765256629366,137.01098404597616 M 47.00564181952838,128.7000000001497 L 56.271697875450336,128.70000000014983 L 61.90684539591789,133.02400077384738 L 60.338975152862155,134.00000000014956 L 39.74158559462947,134.00000000014956 L 39.59454526079769,133.96106583421414 L 39.47643760076886,133.86521537937932 L 39.40149559627653,133.5773715873542 L 39.567250509941864,133.33039859036757 L 47.00564181952838,128.7000000001497 M 33.696098589960656,120.41098404597648 L 49.55186496665273,120.41098404597636 L 51.488686012431955,122.93509837548874 L 47.02943192329493,125.71098404597643 L 26.432042365061882,125.71098404597643 L 26.285002031232203,125.6720498800409 L 26.125502086876615,125.51188768376954 L 26.091952366708767,125.2883556331812 L 26.257707280374348,125.04138263619467 L 33.696098589960656,120.41098404597648 M 39.567250509941815,116.73039859036754 L 44.96655507782197,113.36933149686212 L 45.92602554716988,115.68569811665844 L 47.241455647915686,117.40000000014953 L 39.7415855946294,117.40000000014942 L 39.594545260797716,117.36106583421412 L 39.47643760076884,117.2652153793793 L 39.40149559627651,116.97737158735418 L 39.567250509941815,116.73039859036754 M 33.696098589960656,103.81098404597657 L 41.00735792979075,103.81098404597657 L 43.20268981036813,109.11098404597641 L 26.43204236506186,109.11098404597641 L 26.28500203123218,109.07204988004099 L 26.125502086876615,108.91188768376963 L 26.09195236670881,108.68835563318129 L 26.25770728037432,108.44138263619465 L 33.696098589960656,103.81098404597657 M 39.432570072173405,97.21423716287728 L 33.672308486193316,100.80000000014894 L 20.338975152859,100.80000000014894 L 20.33897515285907,95.50000000014899 L 39.20688646824313,95.5000000001491 L 39.432570072173405,97.21423716287728 M 33.69609858996068,87.21098404597655 L 38.115616815334576,87.21098404597655 L 38.81337505254779,92.5109840459765 L 26.432042365061903,92.51098404597639 L 26.285002031232246,92.47204988004097 L 26.125502086876615,92.31188768376961 L 26.09195236670879,92.08835563318127 L 26.257707280374298,91.84138263619462 L 33.69609858996068,87.21098404597655 M 38.563954359261984,81.15495044416474 L 33.672308486193316,84.20000000014892 L 20.338975152859,84.20000000014892 L 20.338975152859092,78.90000000014908 L 38.86082421715241,78.90000000014919 L 38.563954359261984,81.15495044416474 M 33.696098589960656,70.61098404597652 L 39.952093870061006,70.61098404597652 L 39.25433563284781,75.91098404597659 L 26.43204236506186,75.91098404597648 L 26.285002031232224,75.87204988004106 L 26.125502086876615,75.7118876837697 L 26.09195236670879,75.48835563318136 L 26.25770728037432,75.24138263619471 L 33.696098589960656,70.61098404597652 M 39.567250509941815,66.9303985903677 L 42.08257469785341,65.36460928339255 L 41.156645545769756,67.60000000014946 L 39.74158559462943,67.60000000014958 L 39.59454526079767,67.56106583421416 L 39.47643760076884,67.46521537937946 L 39.40149559627649,67.17737158735434 L 39.567250509941815,66.9303985903677 M 33.69609858996068,54.01098404597644 L 47.518009645943806,54.01098404597644 L 45.92602554716986,56.08569811665842 L 44.59006837271527,59.31098404597634 L 26.43204236506186,59.31098404597634 L 26.285002031232203,59.272049880040754 L 26.125502086876637,59.11188768376951 L 26.09195236670879,58.888355633181106 L 26.25770728037432,58.641382636194464 L 33.69609858996068,54.01098404597644 M 47.00564181952836,45.700000000149714 L 53.89525200096922,45.700000000149714 L 49.82841896468088,51.0000000001495 L 39.7415855946294,51.00000000014933 L 39.594545260797645,50.961065834214025 L 39.47643760076884,50.865215379379265 L 39.40149559627646,50.577371587354094 L 39.5672505099418,50.33039859036751 L 47.00564181952836,45.700000000149714 M 60.36276525662936,37.41098404597625 L 63.64849065853681,37.41098404597636 L 56.74139618247858,42.71098404597626 L 53.09870903172909,42.71098404597615 L 52.95166869789946,42.67204988004073 L 52.79216875354391,42.511887683769544 L 52.75861903337609,42.28835563318103 L 52.92437394704162,42.04138263619427 L 60.36276525662936,37.41098404597625 M 67.74113961272235,34.2705840511058 L 67.57248146427835,34.40000000014953 L 66.40897515286204,34.40000000014942 L 66.26193481903033,34.361065834214116 L 66.14382715900149,34.26521537937941 L 66.06888515450913,33.9773715873543 L 66.23464006817446,33.730398590367656 L 73.67303137776096,29.100000000149805 L 76.20239339577168,29.100000000149805 L 80.22403375393043,29.10000000014992 L 67.74113961272235,34.2705840511058 M 151.1884910089168,109.20000000015006 L 153.96937605100675,103.88159384789384 L 153.96937605100666,109.18159384789391 L 151.1884910089168,109.20000000015006 M 27.797823232882372,21.480585455758217 L 20.359431923294956,26.110984045976295 L 20.359431923294977,20.810984045976454 L 27.62348814819483,20.81098404597634 L 27.770528482024808,20.849918211911756 L 27.7904814127766,20.874713635167723 L 27.83466816531533,20.8915766122106 L 27.95700121252773,21.081647091042953 L 27.963578146547363,21.233612458771574 L 27.797823232882372,21.480585455758217 M 20.359431923294977,42.71098404597643 L 20.359431923294956,37.41098404597625 L 27.62348814819483,37.41098404597665 L 27.770528482024808,37.44991821191195 L 27.7904814127766,37.474713635167745 L 27.83466816531533,37.49157661221079 L 27.95700121252773,37.681647091043146 L 27.963578146547363,37.83361245877177 L 27.797823232882372,38.080585455758296 L 20.359431923294977,42.71098404597643 M 27.963578146547384,154.03361245877187 L 27.79782323288235,154.2805854557585 L 20.359431923294956,158.9109840459766 L 20.359431923294977,153.61098404597652 L 27.623488148194852,153.61098404597664 L 27.770528482024766,153.64991821191205 L 27.79048141277662,153.67471363516796 L 27.83466816531535,153.691576612211 L 27.957001212527757,153.88164709104336 L 27.963578146547384,154.03361245877187 M 27.95700121252773,87.48164709104338 L 27.96357814654734,87.63361245877178 L 27.79782323288235,87.88058545575842 L 20.359431923294956,92.5109840459765 L 20.359431923294935,87.21098404597655 L 27.623488148194852,87.21098404597666 L 27.770528482024808,87.24991821191196 L 27.79048141277658,87.27471363516787 L 27.834668165315286,87.29157661221092 L 27.95700121252773,87.48164709104338 M 27.963578146547363,120.83361245877182 L 27.79782323288235,121.08058545575847 L 20.359431923294935,125.71098404597655 L 20.359431923294935,120.41098404597648 L 27.623488148194788,120.41098404597659 L 27.77052848202483,120.44991821191212 L 27.790481412776558,120.47471363516792 L 27.834668165315286,120.49157661221096 L 27.957001212527665,120.68164709104332 L 27.963578146547363,120.83361245877182 M 20.359431923294977,109.11098404597664 L 20.359431923294956,103.81098404597657 L 27.62348814819481,103.81098404597668 L 27.770528482024808,103.8499182119121 L 27.7904814127766,103.874713635168 L 27.83466816531533,103.89157661221105 L 27.957001212527757,104.08164709104341 L 27.963578146547363,104.23361245877192 L 27.797823232882372,104.48058545575856 L 20.359431923294977,109.11098404597664 M 27.62348814819483,137.0109840459766 L 27.770528482024787,137.04991821191203 L 27.79048141277662,137.07471363516794 L 27.834668165315286,137.09157661221099 L 27.957001212527707,137.28164709104334 L 27.96357814654732,137.43361245877185 L 27.79782323288228,137.6805854557585 L 20.359431923294977,142.31098404597657 L 20.359431923294935,137.0109840459765 L 27.62348814819483,137.0109840459766 M 27.62348814819483,54.010984045976556 L 27.770528482024808,54.04991821191197 L 27.7904814127766,54.074713635167825 L 27.834668165315286,54.09157661221087 L 27.957001212527707,54.281647091043226 L 27.963578146547363,54.43361245877179 L 27.797823232882372,54.68058545575843 L 20.359431923294977,59.31098404597651 L 20.359431923294956,54.01098404597644 L 27.62348814819483,54.010984045976556 M 27.62348814819483,70.61098404597664 L 27.770528482024787,70.64991821191205 L 27.7904814127766,70.67471363516808 L 27.834668165315307,70.69157661221101 L 27.957001212527707,70.88164709104336 L 27.963578146547363,71.03361245877187 L 27.797823232882372,71.28058545575851 L 20.359431923294935,75.91098404597659 L 20.359431923294956,70.61098404597664 L 27.62348814819483,70.61098404597664 M 33.67230848619485,67.60000000014878 L 20.338975152860556,67.60000000014878 L 20.338975152860606,62.30000000014894 L 40.93636471109471,62.300000000149225 L 41.08340504492407,62.338934166084414 L 41.26987777542686,62.57066304521578 L 41.27645470944737,62.72262841294423 L 41.110699795781926,62.96960140993099 L 33.67230848619485,67.60000000014878 M 150.91373109074058,103.80000000015019 L 150.87230973450323,103.9000000001501 L 148.71839921016297,109.10000000015015 L 148.67697785392562,109.20000000015006 L 147.4757585230436,112.10000000015026 L 146.9923652116073,113.26701468858033 L 146.60147873711057,114.21069811665853 L 141.8522603651584,120.4000000001501 L 137.78542732886996,125.70000000014994 L 137.59873876694004,125.94329727087637 L 134.00613382476988,128.70000000015006 L 127.09903934871187,134.00000000014978 L 125.86613961272211,134.94603724104678 L 120.9074348630861,137.00000000015012 L 112.20323851778016,140.60539617593412 L 106.72200431118496,141.327014349094 L 100.61012641580075,142.13165833897045 L 99.33144455055358,142.30000000014985 L 97.54113961272236,142.53569811665835 L 95.75083467489122,142.30000000014985 L 82.87904070766463,140.60539617593412 L 81.87959686777013,140.19141298261962 L 79.01028298730952,139.00290425862744 L 74.20136219476218,137.0109840459764 L 69.21613961272237,134.94603724104678 L 67.98323987673231,134.00000000014956 L 66.71825883533974,133.02934590780723 L 64.55939300099357,131.37278988968768 L 61.0761454006743,128.70000000014983 L 57.4835404585045,125.94329727087626 L 57.30528025137412,125.7109840459762 L 55.54141732879282,123.41227313105429 L 53.98356279651643,121.38203757739603 L 53.23844721508584,120.41098404597636 L 50.92803789634877,117.40000000014953 L 48.48080048833404,114.21069811665853 L 44.173097875455184,103.81098404597657 L 42.92590744758467,100.80000000014951 L 42.82144155344671,100.54779702171635 L 42.52416036422828,98.28972220607426 L 41.76337505254773,92.5109840459765 L 40.89113961272243,85.88569811665849 L 42.20433563284784,75.91098404597659 L 42.82144155344666,71.22359921160063 L 46.34819643129993,62.70925975432198 L 48.00817527894526,58.70171630708404 L 48.48080048833397,57.56069811665856 L 51.2045918943769,54.01098404597644 L 53.515001213113926,51.00000000014944 L 57.48354045850448,45.82809896244055 L 57.650482276396474,45.700000000149714 L 61.54584370770253,42.71098404597615 L 68.45293818376074,37.41098404597648 L 69.21613961272233,36.825358992269855 L 75.07147418512295,34.40000000014959 L 82.87904070766453,31.166000057382803 L 94.53770549253039,29.631107719920976 L 97.54113961272236,29.23569811665851 L 99.6712187576796,29.516128356150944 L 112.20323851778014,31.16600005738269 L 116.20525619044167,32.82369005425596 L 119.42212875519527,34.12933695508303 L 119.45450765564777,34.169574078704954 L 120.01080504032205,34.4000000001497 L 125.86613961272232,36.82535899226997 L 126.6150263544668,37.40000000015016 L 130.6037301103648,40.460640039103964 L 132.8157033008386,42.15794676484035 L 133.52212083052493,42.700000000150055 L 137.4317969490486,45.70000000015011 L 137.59873876694004,45.82809896244049 L 141.1747669405653,50.48846961230396 L 143.869258976268,54.00000000015018 L 146.60147873711057,57.56069811665844 L 147.32192116631396,59.30000000015025 L 149.61175389627056,64.82814523237727 L 150.68232878186814,67.41274164072291 L 152.0025344211301,70.60000000015015 L 152.26083767199808,71.22359921160051 L 152.8764975155303,75.90000000015021 L 153.3018728180322,79.13104620358075 L 153.944560214793,84.01274164072316 L 154.19113961272234,85.88569811665838 L 153.7000041639082,89.61624222189351 L 153.32035024996364,92.50000000015024 L 152.85865131428625,96.00695158966272 L 152.26083767199805,100.54779702171624 L 152.23393673000226,100.61274164072307 L 150.91373109074058,103.80000000015019 "
  />
  <path id="face0-interior"
 style="fill:none;stroke:#FF0000;stroke-width:1;stroke-miterlimit:4;stroke-dasharray:none;stroke-linejoin:round;stroke-linecap:round"
        d="M 159.5000000002696,10.0 M 14.499999999602643,10.0 M 14.500000000000036,89.00000000000392 M 10.0,89.00000000000449 M 10.000000000001371,99.00000000000438 M 14.500000000001386,99.00000000000392 M 14.500000000245194,178.00000000012523 M 159.49999999917284,178.00000000016456 M 159.50000004831514,99.00000000005383 M 162.50000004831514,99.00000000005349 M 162.50000004831378,89.00000000005349 M 159.50000004831378,89.00000000005394 M 54.46782323288237,21.480585455758103 M 47.02943192329499,26.110984045976238 M 26.432042365061882,26.110984045976295 M 26.285002031232224,26.07204988004065 M 26.125502086876587,25.911887683769237 M 26.091952366708767,25.688355633180834 M 26.25770728037432,25.44138263619419 M 33.69609858996068,20.81098404597634 M 45.81943192250938,20.810984045976284 M 54.293488148194825,20.81098404597617 M 54.440528482024824,20.849918211911756 M 54.460481412776595,20.874713635167723 M 54.50466816531532,20.89157661221077 M 54.62700121252772,21.08164709104284 M 54.63357814654736,21.233612458771688 M 73.6960985899622,26.110984045976295 M 53.09870903172921,26.110984045976238 M 52.95166869789957,26.072049880040538 M 52.79216875354391,25.911887683769407 M 52.75861903337609,25.688355633180834 M 52.92437394704162,25.441382636194362 M 60.36276525662938,20.81098404597634 M 72.48609858917678,20.810984045976284 M 80.96015481486198,20.81098404597617 M 81.17133483198272,20.8915766122106 M 81.29366787919525,21.08164709104301 M 81.3002448132142,21.233612458771574 M 81.13448989954952,21.480585455758217 M 100.33969804442808,26.100000000149976 M 79.742308486195,26.100000000149862 M 79.59526815236536,26.061065834214446 M 79.43576820800983,25.900903637943145 M 79.40221848784202,25.677371587354628 M 79.56797340150757,25.430398590367986 M 87.00636471109546,20.800000000149907 M 99.12969804364263,20.800000000149964 M 107.60375426932785,20.800000000150078 M 107.81493428644859,20.880592566384394 M 107.93726733366113,21.070663045216747 M 107.94384426768005,21.222628412945312 M 107.77808935401538,21.469601409931954 M 127.00636471109391,26.100000000150146 M 106.40897515286174,26.100000000149976 M 106.26193481903134,26.06106583421456 M 106.14382715900007,25.965215379379856 M 106.07546208852857,25.82933695508325 M 106.0688851545091,25.67737158735474 M 106.2346400681742,25.4303985903681 M 113.67303137776068,20.800000000150078 M 134.2704209359946,20.80000000015019 M 134.53556892985478,20.934784620920254 M 134.61051093434656,21.22262841294537 M 134.44475602068152,21.46960140993201 M 41.27645470944737,29.522628412944243 M 41.110699795781926,29.769601409930942 M 33.67230848619488,34.40000000014879 M 20.338975152860606,34.400000000148964 M 20.338975152860648,30.34896140176278 M 20.338975152860627,29.10000000014884 M 40.93636471109468,29.10000000014918 M 41.08340504492405,29.138934166084482 M 41.26987777542682,29.37066304521568 M 60.33897515286212,34.40000000014959 M 52.12564181952829,34.400000000149305 M 52.125641819528376,29.100000000149805 M 67.60303137776094,29.100000000149805 M 67.75007171159163,29.138934166085107 M 67.90957165594676,29.29909636235635 M 67.94312137611325,29.522628412944925 M 67.7773664624492,29.769601409931568 M 41.27645470944735,46.122628412944266 M 41.110699795781926,46.36960140993085 M 33.67230848619488,51.00000000014899 M 20.338975152860556,51.00000000014887 M 20.338975152860648,46.9489614017628 M 20.338975152860606,45.70000000014886 M 40.93636471109468,45.70000000014909 M 41.08340504492405,45.73893416608439 M 41.26987777542682,45.9706630452157 M 54.293488148194825,37.41098404597648 M 54.440528482024824,37.449918211911836 M 54.62700121252775,37.6816470910432 M 54.63357814654738,37.83361245877177 M 54.46782323288237,38.08058545575841 M 47.02943192329491,42.71098404597626 M 26.432042365061882,42.71098404597632 M 26.285002031232224,42.672049880040845 M 26.125502086876587,42.511887683769544 M 26.09195236670879,42.288355633181084 M 26.25770728037432,42.0413826361945 M 33.69609858996068,37.41098404597625 M 153.97000416390793,42.700000000150226 M 138.32656835574898,42.70000000015017 M 135.41889392726395,40.46886293891737 M 140.36667083057483,37.40000000015016 M 153.9700041639082,37.40000000015027 M 41.110699795781954,112.76960140993089 M 33.672308486193344,117.40000000014896 M 20.338975152859,117.40000000014885 M 20.33897515285907,112.1000000001489 M 40.93636471109471,112.10000000014912 M 41.08340504492409,112.13893416608454 M 41.269877775426835,112.37066304521574 M 41.27645470944737,112.52262841294436 M 41.110699795781954,129.3696014099309 M 33.672308486193344,134.00000000014887 M 20.33897515285902,134.00000000014887 M 20.33897515285905,128.70000000014892 M 40.93636471109468,128.70000000014903 M 41.08340504492405,128.73893416608445 M 41.26987777542686,128.97066304521576 M 41.27645470944739,129.12262841294427 M 41.110699795781976,145.96960140993082 M 33.67230848619341,150.600000000149 M 20.338975152859,150.6000000001489 M 20.33897515285905,145.30000000014894 M 40.936364711094754,145.30000000014917 M 41.08340504492407,145.33893416608447 M 41.269877775426885,145.57066304521578 M 41.27645470944739,145.7226284129443 M 67.60303137776093,145.30000000014985 M 67.75007171159166,145.33893416608515 M 67.90957165594682,145.4990963623565 M 67.94312137611327,145.72262841294497 M 67.77736646244915,145.9696014099315 M 60.33897515286213,150.60000000014958 M 39.74158559462945,150.60000000014958 M 39.59454526079774,150.56106583421416 M 39.47643760076886,150.46521537937934 M 39.40149559627653,150.17737158735423 M 39.567250509941864,149.9303985903676 M 47.0056418195284,145.30000000014985 M 94.27042093599368,145.30000000014985 M 94.41746126982436,145.33893416608515 M 94.57696121417948,145.4990963623565 M 94.61051093434597,145.72262841294497 M 94.44475602068188,145.9696014099315 M 87.00636471109483,150.60000000014958 M 66.40897515286208,150.60000000014958 M 66.26193481903027,150.56106583421416 M 66.14382715900146,150.46521537937934 M 66.06888515450913,150.17737158735434 M 66.2346400681745,149.9303985903677 M 73.67303137776098,145.30000000014985 M 76.2023933957717,145.30000000014985 M 100.33969804442803,145.30000000014996 M 120.93708760266144,145.30000000014996 M 121.14826761978176,145.38059256638434 M 121.24362788084551,145.49909636235674 M 121.27717760101366,145.7226284129452 M 121.11142268734787,145.96960140993173 M 113.67303137776081,150.6000000001498 M 93.07564181952812,150.60000000014958 M 92.92860148569815,150.56106583421416 M 92.74212875519528,150.32933695508297 M 92.73555182117485,150.17737158735434 M 92.90130673484069,149.9303985903677 M 54.46782323288241,137.68058545575826 M 50.66146003574489,140.0500465459764 M 50.66146003574489,137.0109840459764 M 54.293488148194854,137.0109840459764 M 54.440528482024845,137.0499182119118 M 54.62700121252775,137.2816470910431 M 54.63357814654741,137.43361245877173 M 33.69609858996061,153.6109840459764 M 54.293488148194896,153.6109840459764 M 54.44052848202489,153.64991821191182 M 54.627001212527794,153.88164709104313 M 54.63357814654745,154.03361245877164 M 54.46782323288243,154.28058545575828 M 47.02943192329491,158.91098404597648 M 26.43204236506186,158.91098404597648 M 26.285002031232267,158.87204988004095 M 26.125502086876658,158.7118876837696 M 26.091952366708767,158.48835563318113 M 26.257707280374277,158.2413826361946 M 41.110699795781954,162.56960140993084 M 33.672308486193316,167.20000000014892 M 20.33897515285905,167.20000000014892 M 20.338975152859113,161.90000000014896 M 40.936364711094775,161.9000000001492 M 41.08340504492405,161.9389341660845 M 41.269877775426885,162.1706630452157 M 41.27645470944742,162.3226284129443 M 39.74158559462943,167.2000000001495 M 39.594545260797716,167.16106583421418 M 39.47643760076886,167.06521537937937 M 39.40149559627653,166.77737158735425 M 39.567250509941864,166.5303985903676 M 47.00564181952838,161.90000000014976 M 67.60303137776098,161.90000000014987 M 67.75007171159163,161.93893416608518 M 67.90957165594673,162.09909636235642 M 67.94312137611327,162.322628412945 M 67.77736646244921,162.56960140993152 M 60.33897515286213,167.2000000001496 M 60.36276525662938,153.6109840459763 M 72.48609858917678,153.6109840459764 M 80.96015481486202,153.6109840459763 M 81.17133483198273,153.69157661221067 M 81.29366787919527,153.88164709104302 M 81.30024481321419,154.03361245877164 M 81.13448989954955,154.28058545575828 M 73.69609858996219,158.91098404597625 M 53.098709031729115,158.91098404597614 M 52.95166869789951,158.87204988004072 M 52.79216875354396,158.71188768376948 M 52.75861903337618,158.4883556331809 M 52.924373947041644,158.24138263619426 M 100.33969804442809,158.90000000014987 M 79.74230848619506,158.90000000014987 M 79.5952681523654,158.86106583421446 M 79.43576820800985,158.7009036379432 M 79.40221848784205,158.47737158735464 M 79.56797340150757,158.230398590368 M 87.00636471109553,153.60000000014992 M 99.12969804364266,153.60000000015003 M 107.60375426932785,153.60000000015003 M 107.81493428644859,153.6805925663843 M 107.93726733366113,153.87066304521665 M 107.94384426768005,154.02262841294527 M 107.77808935401538,154.2696014099319 M 100.33969804442805,161.90000000014987 M 120.93708760266134,161.90000000015 M 121.1482676197817,161.98059256638436 M 121.24362788084544,162.09909636235665 M 121.27717760101358,162.3226284129451 M 121.11142268734775,162.56960140993175 M 113.67303137776082,167.2000000001497 M 93.07564181952816,167.2000000001496 M 92.92860148569821,167.16106583421418 M 92.7421287551953,166.929336955083 M 92.73555182117487,166.77737158735437 M 92.90130673484066,166.53039859036772 M 73.67303137776095,161.90000000014987 M 76.20239339577172,161.90000000014987 M 94.27042093599367,161.90000000014987 M 94.41746126982434,161.93893416608518 M 94.5769612141795,162.09909636235642 M 94.61051093434597,162.322628412945 M 94.4447560206819,162.56960140993152 M 87.00636471109482,167.2000000001495 M 66.40897515286208,167.2000000001495 M 66.26193481903033,167.16106583421418 M 66.14382715900146,167.06521537937948 M 66.06888515450913,166.77737158735425 M 66.23464006817449,166.53039859036772 M 127.006364711094,158.9000000001501 M 106.40897515286179,158.90000000015 M 106.26193481903138,158.86106583421446 M 106.14382715900007,158.76521537937975 M 106.07546208852857,158.62933695508326 M 106.06888515450908,158.47737158735475 M 106.23464006817423,158.2303985903681 M 113.67303137776071,153.60000000015015 M 134.2704209359946,153.60000000015003 M 134.53556892985478,153.73478462092015 M 134.61051093434656,154.02262841294538 M 134.44475602068155,154.2696014099319 M 140.36667083057483,20.800000000150078 M 153.9700041639082,20.80000000015019 M 153.9700041639082,26.100000000150146 M 133.10261460567602,26.100000000149976 M 133.0756418195283,26.100000000150033 M 133.01451757609465,26.07667317356578 M 132.9555742718456,26.06106583421456 M 132.86446180240648,26.019407433915717 M 132.73555182117605,25.6773715873548 M 132.90130673484006,25.430398590368213 M 153.97384801941092,34.212741640722925 M 146.70979179451137,34.212741640722925 M 146.49861177738953,34.13214907448861 M 146.4032515163259,34.01364527851621 M 146.3697017961591,33.79011322792769 M 146.5354567098231,33.54314023094105 M 153.3770948012796,29.28422051900901 M 153.65988986510402,29.192039693878257 M 153.91641816193908,29.34258399156994 M 153.97384801941075,29.634426695976572 M 153.96937605100695,142.28159384789393 M 148.43733707463127,142.3000000001502 M 148.43733707463127,137.00000000015012 M 153.96937605100692,136.98159384789386 M 153.96937605100692,158.88159384789395 M 133.10261460567602,158.90000000015 M 133.07564181952833,158.9000000001501 M 133.01451757609468,158.87667317356596 M 132.95557427184565,158.86106583421457 M 132.86446180240654,158.81940743391573 M 132.7355518211761,158.47737158735487 M 132.9013067348401,158.23039859036822 M 140.3666708305749,153.60000000015015 M 153.96937605100692,153.58159384789388 M 153.97384801941067,50.81274164072295 M 146.7097917945111,50.81274164072295 M 146.49861177738927,50.73214907448863 M 146.40325151632564,50.61364527851623 M 146.36970179615884,50.39011322792771 M 146.53545670982285,50.14314023094107 M 153.37709480127938,45.884220519009034 M 153.65988986510376,45.79203969387828 M 153.91641816193885,45.94258399156996 M 153.97384801941053,46.234426695976595 M 153.9738480194107,133.8127416407229 M 146.70979179451112,133.812741640723 M 146.4986117773893,133.73214907448863 M 146.40325151632564,133.61364527851634 M 146.3697017961589,133.39011322792777 M 146.53545670982285,133.14314023094101 M 153.37709480127938,128.88422051900903 M 153.6598898651038,128.79203969387828 M 153.91641816193885,128.94258399156996 M 153.97384801941055,129.23442669597654 M 153.97384801941095,150.41274164072314 M 146.7097917945114,150.41274164072314 M 146.49861177738956,150.33214907448865 M 146.40325151632592,150.21364527851625 M 146.36970179615915,149.9901132279278 M 146.53545670982317,149.74314023094115 M 153.37709480127967,145.48422051900917 M 153.65988986510405,145.3920396938783 M 153.91641816193913,145.54258399156998 M 153.9738480194108,145.8344266959768 M 153.97384801941095,167.01274164072294 M 146.7097917945114,167.01274164072294 M 146.49861177738958,166.93214907448868 M 146.40325151632595,166.81364527851628 M 146.36970179615915,166.5901132279277 M 146.53545670982314,166.34314023094106 M 153.37709480127967,162.08422051900908 M 153.65988986510408,161.9920396938782 M 153.91641816193913,162.1425839915699 M 153.97384801941078,162.43442669597658 M 119.4087954210757,150.32933695678145 M 119.40221848705703,150.17737158905283 M 119.58130673484068,149.93039859036793 M 127.01969804442811,145.3000000001502 M 147.6170876026614,145.30000000015042 M 147.82826761978174,145.38059256638456 M 147.92362788084546,145.49909636235697 M 147.95717760101363,145.72262841294554 M 147.79142268734782,145.96960140993195 M 140.35303137776086,150.60000000014992 M 119.75564181952817,150.60000000014992 M 119.60860148569822,150.5610658342145 M 119.40879542107567,166.92933695678124 M 119.40221848705703,166.77737158905273 M 119.58130673484068,166.53039859036784 M 127.01969804442811,161.90000000015 M 147.61708760266143,161.90000000015021 M 147.82826761978174,161.9805925663846 M 147.92362788084546,162.09909636235687 M 147.95717760101363,162.32262841294533 M 147.79142268734782,162.56960140993186 M 140.35303137776086,167.20000000014983 M 119.75564181952818,167.2000000001497 M 119.6086014856982,167.1610658342143 M 144.40200395260308,137.00000000015012 M 144.40200395260305,142.3000000001502 M 133.10261460567602,142.30000000014996 M 133.07564181952833,142.30000000015008 M 133.0145175760947,142.27667317356594 M 132.95557427184565,142.26106583421455 M 132.86446180240654,142.2194074339157 M 132.73555182117607,141.87737158735484 M 132.9013067348401,141.6303985903682 M 140.36667083057486,137.00000000015012 M 37.60237868284257,137.0109840459765 M 37.60237868284257,142.31098404597645 M 26.432042365061882,142.31098404597645 M 26.285002031232246,142.27204988004092 M 26.125502086876637,142.11188768376957 M 26.091952366708767,141.88835563318122 M 26.25770728037432,141.64138263619458 M 33.696098589960634,137.0109840459765 M 47.00564181952838,29.10000000014975 M 47.005641819528286,34.40000000014942 M 39.7415855946294,34.40000000014942 M 39.594545260797645,34.361065834213946 M 39.47643760076884,34.2652153793793 M 39.40149559627646,33.977371587354185 M 39.567250509941815,33.730398590367486 M 47.02943192329491,137.0109840459764 M 47.02943192329491,142.31098404597634 M 41.50865877572437,142.31098404597645 M 41.50865877572441,137.0109840459765 M 121.11142268734775,29.769601409931852 M 119.25888648965166,30.922805192997657 M 114.85824547151495,29.100000000150146 M 120.93708760266135,29.100000000150146 M 121.14826761978168,29.18059256638452 M 121.24362788084542,29.299096362356806 M 121.27717760101356,29.522628412945323 M 140.35303137776083,34.40000000014976 M 127.50979776116662,34.40000000014976 M 127.34113961272234,34.27058405110586 M 122.16065232853414,32.124755958293804 M 127.01969804442805,29.100000000149976 M 147.61708760266137,29.100000000150146 M 147.82826761978168,29.18059256638452 M 147.92362788084543,29.299096362356806 M 147.95717760101357,29.522628412945323 M 147.79142268734776,29.769601409931852 M 133.25627771544077,38.80942915494438 M 131.4194738796908,37.40000000015016 M 134.2704209359946,37.40000000015016 M 134.5355689298548,37.53478462092028 M 134.61051093434656,37.82262841294539 M 134.44475602068152,38.069601409932034 M 147.79142268734753,46.36960140993193 M 143.66964372464977,48.935408814211314 M 141.18702722447566,45.70000000015017 M 147.61708760266112,45.70000000015028 M 147.82826761978146,45.7805925663846 M 147.92362788084517,45.899096362356886 M 147.9571776010133,46.1226284129454 M 153.96937605100663,59.28159384789393 M 150.48766111197838,59.30000000015025 M 149.15625367827465,56.08569811665842 M 147.55584122470108,54.000000000150294 M 153.9693760510066,53.981593847893976 M 153.97384801941067,67.41274164072291 M 153.84806872753256,67.41274164072291 M 152.1285445499786,63.26144305044386 M 153.37709480127936,62.48422051900906 M 153.65988986510376,62.392039693878246 M 153.91641816193885,62.54258399156993 M 153.9738480194105,62.83442669597662 M 153.9738480194107,117.21274164072298 M 147.98451197044145,117.21274164072298 M 149.1562536782747,115.68569811665844 M 149.5882446029588,114.64277976746388 M 153.37709480127938,112.28422051900912 M 153.6598898651038,112.19203969387826 M 153.91641816193885,112.34258399156994 M 153.97384801941053,112.63442669597663 M 153.96937605100666,125.68159384789391 M 141.47200957730303,125.70000000015006 M 145.53884261359147,120.4000000001501 M 153.96937605100663,120.38159384789384 M 140.3530313777606,134.0000000001499 M 131.90348687393583,134.00000000014978 M 138.81058134999375,128.70000000015017 M 147.61708760266114,128.70000000015017 M 147.82826761978146,128.78059256638454 M 147.9236278808452,128.89909636235683 M 147.95717760101334,129.1226284129453 M 147.79142268734756,129.36960140993193 M 127.00636471109408,142.30000000015008 M 115.75487529427826,142.30000000014996 M 127.3411396127224,137.50081218221095 M 127.99381075541208,137.00000000015012 M 134.27042093599462,137.00000000015012 M 134.5355689298548,137.13478462092024 M 134.6105109343466,137.42262841294536 M 134.44475602068155,137.669601409932 M 60.362765256629366,137.01098404597616 M 67.10278315724983,137.01098404597627 M 67.74113961272238,137.50081218221095 M 75.95665268809957,140.90378911988574 M 73.69609858996218,142.31098404597623 M 53.09870903172914,142.3109840459761 M 52.95166869789948,142.2720498800407 M 52.792168753544004,142.11188768376945 M 52.758619033376156,141.88835563318088 M 52.924373947041694,141.64138263619424 M 47.00564181952838,128.7000000001497 M 56.271697875450336,128.70000000014983 M 61.90684539591789,133.02400077384738 M 60.338975152862155,134.00000000014956 M 39.74158559462947,134.00000000014956 M 39.59454526079769,133.96106583421414 M 39.47643760076886,133.86521537937932 M 39.40149559627653,133.5773715873542 M 39.567250509941864,133.33039859036757 M 33.696098589960656,120.41098404597648 M 49.55186496665273,120.41098404597636 M 51.488686012431955,122.93509837548874 M 47.02943192329493,125.71098404597643 M 26.432042365061882,125.71098404597643 M 26.285002031232203,125.6720498800409 M 26.125502086876615,125.51188768376954 M 26.091952366708767,125.2883556331812 M 26.257707280374348,125.04138263619467 M 39.567250509941815,116.73039859036754 M 44.96655507782197,113.36933149686212 M 45.92602554716988,115.68569811665844 M 47.241455647915686,117.40000000014953 M 39.7415855946294,117.40000000014942 M 39.594545260797716,117.36106583421412 M 39.47643760076884,117.2652153793793 M 39.40149559627651,116.97737158735418 M 33.696098589960656,103.81098404597657 M 41.00735792979075,103.81098404597657 M 43.20268981036813,109.11098404597641 M 26.43204236506186,109.11098404597641 M 26.28500203123218,109.07204988004099 M 26.125502086876615,108.91188768376963 M 26.09195236670881,108.68835563318129 M 26.25770728037432,108.44138263619465 M 39.432570072173405,97.21423716287728 M 33.672308486193316,100.80000000014894 M 20.338975152859,100.80000000014894 M 20.33897515285907,95.50000000014899 M 39.20688646824313,95.5000000001491 M 33.69609858996068,87.21098404597655 M 38.115616815334576,87.21098404597655 M 38.81337505254779,92.5109840459765 M 26.432042365061903,92.51098404597639 M 26.285002031232246,92.47204988004097 M 26.125502086876615,92.31188768376961 M 26.09195236670879,92.08835563318127 M 26.257707280374298,91.84138263619462 M 38.563954359261984,81.15495044416474 M 33.672308486193316,84.20000000014892 M 20.338975152859,84.20000000014892 M 20.338975152859092,78.90000000014908 M 38.86082421715241,78.90000000014919 M 33.696098589960656,70.61098404597652 M 39.952093870061006,70.61098404597652 M 39.25433563284781,75.91098404597659 M 26.43204236506186,75.91098404597648 M 26.285002031232224,75.87204988004106 M 26.125502086876615,75.7118876837697 M 26.09195236670879,75.48835563318136 M 26.25770728037432,75.24138263619471 M 39.567250509941815,66.9303985903677 M 42.08257469785341,65.36460928339255 M 41.156645545769756,67.60000000014946 M 39.74158559462943,67.60000000014958 M 39.59454526079767,67.56106583421416 M 39.47643760076884,67.46521537937946 M 39.40149559627649,67.17737158735434 M 33.69609858996068,54.01098404597644 M 47.518009645943806,54.01098404597644 M 45.92602554716986,56.08569811665842 M 44.59006837271527,59.31098404597634 M 26.43204236506186,59.31098404597634 M 26.285002031232203,59.272049880040754 M 26.125502086876637,59.11188768376951 M 26.09195236670879,58.888355633181106 M 26.25770728037432,58.641382636194464 M 47.00564181952836,45.700000000149714 M 53.89525200096922,45.700000000149714 M 49.82841896468088,51.0000000001495 M 39.7415855946294,51.00000000014933 M 39.594545260797645,50.961065834214025 M 39.47643760076884,50.865215379379265 M 39.40149559627646,50.577371587354094 M 39.5672505099418,50.33039859036751 M 60.36276525662936,37.41098404597625 M 63.64849065853681,37.41098404597636 M 56.74139618247858,42.71098404597626 M 53.09870903172909,42.71098404597615 M 52.95166869789946,42.67204988004073 M 52.79216875354391,42.511887683769544 M 52.75861903337609,42.28835563318103 M 52.92437394704162,42.04138263619427 M 67.74113961272235,34.2705840511058 M 67.57248146427835,34.40000000014953 M 66.40897515286204,34.40000000014942 M 66.26193481903033,34.361065834214116 M 66.14382715900149,34.26521537937941 M 66.06888515450913,33.9773715873543 M 66.23464006817446,33.730398590367656 M 73.67303137776096,29.100000000149805 M 76.20239339577168,29.100000000149805 M 80.22403375393043,29.10000000014992 M 151.1884910089168,109.20000000015006 M 153.96937605100675,103.88159384789384 M 153.96937605100666,109.18159384789391 M 27.797823232882372,21.480585455758217 M 20.359431923294956,26.110984045976295 M 20.359431923294977,20.810984045976454 M 27.62348814819483,20.81098404597634 M 27.770528482024808,20.849918211911756 M 27.7904814127766,20.874713635167723 M 27.83466816531533,20.8915766122106 M 27.95700121252773,21.081647091042953 M 27.963578146547363,21.233612458771574 M 20.359431923294977,42.71098404597643 M 20.359431923294956,37.41098404597625 M 27.62348814819483,37.41098404597665 M 27.770528482024808,37.44991821191195 M 27.7904814127766,37.474713635167745 M 27.83466816531533,37.49157661221079 M 27.95700121252773,37.681647091043146 M 27.963578146547363,37.83361245877177 M 27.797823232882372,38.080585455758296 M 27.963578146547384,154.03361245877187 M 27.79782323288235,154.2805854557585 M 20.359431923294956,158.9109840459766 M 20.359431923294977,153.61098404597652 M 27.623488148194852,153.61098404597664 M 27.770528482024766,153.64991821191205 M 27.79048141277662,153.67471363516796 M 27.83466816531535,153.691576612211 M 27.957001212527757,153.88164709104336 M 27.95700121252773,87.48164709104338 M 27.96357814654734,87.63361245877178 M 27.79782323288235,87.88058545575842 M 20.359431923294956,92.5109840459765 M 20.359431923294935,87.21098404597655 M 27.623488148194852,87.21098404597666 M 27.770528482024808,87.24991821191196 M 27.79048141277658,87.27471363516787 M 27.834668165315286,87.29157661221092 M 27.963578146547363,120.83361245877182 M 27.79782323288235,121.08058545575847 M 20.359431923294935,125.71098404597655 M 20.359431923294935,120.41098404597648 M 27.623488148194788,120.41098404597659 M 27.77052848202483,120.44991821191212 M 27.790481412776558,120.47471363516792 M 27.834668165315286,120.49157661221096 M 27.957001212527665,120.68164709104332 M 20.359431923294977,109.11098404597664 M 20.359431923294956,103.81098404597657 M 27.62348814819481,103.81098404597668 M 27.770528482024808,103.8499182119121 M 27.7904814127766,103.874713635168 M 27.83466816531533,103.89157661221105 M 27.957001212527757,104.08164709104341 M 27.963578146547363,104.23361245877192 M 27.797823232882372,104.48058545575856 M 27.62348814819483,137.0109840459766 M 27.770528482024787,137.04991821191203 M 27.79048141277662,137.07471363516794 M 27.834668165315286,137.09157661221099 M 27.957001212527707,137.28164709104334 M 27.96357814654732,137.43361245877185 M 27.79782323288228,137.6805854557585 M 20.359431923294977,142.31098404597657 M 20.359431923294935,137.0109840459765 M 27.62348814819483,54.010984045976556 M 27.770528482024808,54.04991821191197 M 27.7904814127766,54.074713635167825 M 27.834668165315286,54.09157661221087 M 27.957001212527707,54.281647091043226 M 27.963578146547363,54.43361245877179 M 27.797823232882372,54.68058545575843 M 20.359431923294977,59.31098404597651 M 20.359431923294956,54.01098404597644 M 27.62348814819483,70.61098404597664 M 27.770528482024787,70.64991821191205 M 27.7904814127766,70.67471363516808 M 27.834668165315307,70.69157661221101 M 27.957001212527707,70.88164709104336 M 27.963578146547363,71.03361245877187 M 27.797823232882372,71.28058545575851 M 20.359431923294935,75.91098404597659 M 20.359431923294956,70.61098404597664 M 33.67230848619485,67.60000000014878 M 20.338975152860556,67.60000000014878 M 20.338975152860606,62.30000000014894 M 40.93636471109471,62.300000000149225 M 41.08340504492407,62.338934166084414 M 41.26987777542686,62.57066304521578 M 41.27645470944737,62.72262841294423 M 41.110699795781926,62.96960140993099 M 150.91373109074058,103.80000000015019 M 150.87230973450323,103.9000000001501 M 148.71839921016297,109.10000000015015 M 148.67697785392562,109.20000000015006 M 147.4757585230436,112.10000000015026 M 146.9923652116073,113.26701468858033 M 146.60147873711057,114.21069811665853 M 141.8522603651584,120.4000000001501 M 137.78542732886996,125.70000000014994 M 137.59873876694004,125.94329727087637 M 134.00613382476988,128.70000000015006 M 127.09903934871187,134.00000000014978 M 125.86613961272211,134.94603724104678 M 120.9074348630861,137.00000000015012 M 112.20323851778016,140.60539617593412 M 106.72200431118496,141.327014349094 M 100.61012641580075,142.13165833897045 M 99.33144455055358,142.30000000014985 M 97.54113961272236,142.53569811665835 M 95.75083467489122,142.30000000014985 M 82.87904070766463,140.60539617593412 M 81.87959686777013,140.19141298261962 M 79.01028298730952,139.00290425862744 M 74.20136219476218,137.0109840459764 M 69.21613961272237,134.94603724104678 M 67.98323987673231,134.00000000014956 M 66.71825883533974,133.02934590780723 M 64.55939300099357,131.37278988968768 M 61.0761454006743,128.70000000014983 M 57.4835404585045,125.94329727087626 M 57.30528025137412,125.7109840459762 M 55.54141732879282,123.41227313105429 M 53.98356279651643,121.38203757739603 M 53.23844721508584,120.41098404597636 M 50.92803789634877,117.40000000014953 M 48.48080048833404,114.21069811665853 M 44.173097875455184,103.81098404597657 M 42.92590744758467,100.80000000014951 M 42.82144155344671,100.54779702171635 M 42.52416036422828,98.28972220607426 M 41.76337505254773,92.5109840459765 M 40.89113961272243,85.88569811665849 M 42.20433563284784,75.91098404597659 M 42.82144155344666,71.22359921160063 M 46.34819643129993,62.70925975432198 M 48.00817527894526,58.70171630708404 M 48.48080048833397,57.56069811665856 M 51.2045918943769,54.01098404597644 M 53.515001213113926,51.00000000014944 M 57.48354045850448,45.82809896244055 M 57.650482276396474,45.700000000149714 M 61.54584370770253,42.71098404597615 M 68.45293818376074,37.41098404597648 M 69.21613961272233,36.825358992269855 M 75.07147418512295,34.40000000014959 M 82.87904070766453,31.166000057382803 M 94.53770549253039,29.631107719920976 M 97.54113961272236,29.23569811665851 M 99.6712187576796,29.516128356150944 M 112.20323851778014,31.16600005738269 M 116.20525619044167,32.82369005425596 M 119.42212875519527,34.12933695508303 M 119.45450765564777,34.169574078704954 M 120.01080504032205,34.4000000001497 M 125.86613961272232,36.82535899226997 M 126.6150263544668,37.40000000015016 M 130.6037301103648,40.460640039103964 M 132.8157033008386,42.15794676484035 M 133.52212083052493,42.700000000150055 M 137.4317969490486,45.70000000015011 M 137.59873876694004,45.82809896244049 M 141.1747669405653,50.48846961230396 M 143.869258976268,54.00000000015018 M 146.60147873711057,57.56069811665844 M 147.32192116631396,59.30000000015025 M 149.61175389627056,64.82814523237727 M 150.68232878186814,67.41274164072291 M 152.0025344211301,70.60000000015015 M 152.26083767199808,71.22359921160051 M 152.8764975155303,75.90000000015021 M 153.3018728180322,79.13104620358075 M 153.944560214793,84.01274164072316 M 154.19113961272234,85.88569811665838 M 153.7000041639082,89.61624222189351 M 153.32035024996364,92.50000000015024 M 152.85865131428625,96.00695158966272 M 152.26083767199805,100.54779702171624 M 152.23393673000226,100.61274164072307 "
  />
  <path id="face0-interior"
 style="fill:none;stroke:#00FF00;stroke-width:1;stroke-miterlimit:4;stroke-dasharray:none;stroke-linejoin:round;stroke-linecap:round"
        d="M 159.5000000002696,10.0 M 14.499999999602643,10.0 M 14.500000000000036,89.00000000000392 M 10.0,89.00000000000449 M 10.000000000001371,99.00000000000438 M 14.500000000001386,99.00000000000392 M 14.500000000245194,178.00000000012523 M 159.49999999917284,178.00000000016456 M 159.50000004831514,99.00000000005383 M 162.50000004831514,99.00000000005349 M 162.50000004831378,89.00000000005349 M 159.50000004831378,89.00000000005394 M 54.46782323288237,21.480585455758103 M 47.02943192329499,26.110984045976238 M 26.432042365061882,26.110984045976295 M 26.285002031232224,26.07204988004065 M 26.125502086876587,25.911887683769237 M 26.091952366708767,25.688355633180834 M 26.25770728037432,25.44138263619419 M 33.69609858996068,20.81098404597634 M 45.81943192250938,20.810984045976284 M 54.293488148194825,20.81098404597617 M 54.440528482024824,20.849918211911756 M 54.460481412776595,20.874713635167723 M 54.50466816531532,20.89157661221077 M 54.62700121252772,21.08164709104284 M 54.63357814654736,21.233612458771688 M 73.6960985899622,26.110984045976295 M 53.09870903172921,26.110984045976238 M 52.95166869789957,26.072049880040538 M 52.79216875354391,25.911887683769407 M 52.75861903337609,25.688355633180834 M 52.92437394704162,25.441382636194362 M 60.36276525662938,20.81098404597634 M 72.48609858917678,20.810984045976284 M 80.96015481486198,20.81098404597617 M 81.17133483198272,20.8915766122106 M 81.29366787919525,21.08164709104301 M 81.3002448132142,21.233612458771574 M 81.13448989954952,21.480585455758217 M 100.33969804442808,26.100000000149976 M 79.742308486195,26.100000000149862 M 79.59526815236536,26.061065834214446 M 79.43576820800983,25.900903637943145 M 79.40221848784202,25.677371587354628 M 79.56797340150757,25.430398590367986 M 87.00636471109546,20.800000000149907 M 99.12969804364263,20.800000000149964 M 107.60375426932785,20.800000000150078 M 107.81493428644859,20.880592566384394 M 107.93726733366113,21.070663045216747 M 107.94384426768005,21.222628412945312 M 107.77808935401538,21.469601409931954 M 127.00636471109391,26.100000000150146 M 106.40897515286174,26.100000000149976 M 106.26193481903134,26.06106583421456 M 106.14382715900007,25.965215379379856 M 106.07546208852857,25.82933695508325 M 106.0688851545091,25.67737158735474 M 106.2346400681742,25.4303985903681 M 113.67303137776068,20.800000000150078 M 134.2704209359946,20.80000000015019 M 134.53556892985478,20.934784620920254 M 134.61051093434656,21.22262841294537 M 134.44475602068152,21.46960140993201 M 41.27645470944737,29.522628412944243 M 41.110699795781926,29.769601409930942 M 33.67230848619488,34.40000000014879 M 20.338975152860606,34.400000000148964 M 20.338975152860648,30.34896140176278 M 20.338975152860627,29.10000000014884 M 40.93636471109468,29.10000000014918 M 41.08340504492405,29.138934166084482 M 41.26987777542682,29.37066304521568 M 60.33897515286212,34.40000000014959 M 52.12564181952829,34.400000000149305 M 52.125641819528376,29.100000000149805 M 67.60303137776094,29.100000000149805 M 67.75007171159163,29.138934166085107 M 67.90957165594676,29.29909636235635 M 67.94312137611325,29.522628412944925 M 67.7773664624492,29.769601409931568 M 41.27645470944735,46.122628412944266 M 41.110699795781926,46.36960140993085 M 33.67230848619488,51.00000000014899 M 20.338975152860556,51.00000000014887 M 20.338975152860648,46.9489614017628 M 20.338975152860606,45.70000000014886 M 40.93636471109468,45.70000000014909 M 41.08340504492405,45.73893416608439 M 41.26987777542682,45.9706630452157 M 54.293488148194825,37.41098404597648 M 54.440528482024824,37.449918211911836 M 54.62700121252775,37.6816470910432 M 54.63357814654738,37.83361245877177 M 54.46782323288237,38.08058545575841 M 47.02943192329491,42.71098404597626 M 26.432042365061882,42.71098404597632 M 26.285002031232224,42.672049880040845 M 26.125502086876587,42.511887683769544 M 26.09195236670879,42.288355633181084 M 26.25770728037432,42.0413826361945 M 33.69609858996068,37.41098404597625 M 153.97000416390793,42.700000000150226 M 138.32656835574898,42.70000000015017 M 135.41889392726395,40.46886293891737 M 140.36667083057483,37.40000000015016 M 153.9700041639082,37.40000000015027 M 41.110699795781954,112.76960140993089 M 33.672308486193344,117.40000000014896 M 20.338975152859,117.40000000014885 M 20.33897515285907,112.1000000001489 M 40.93636471109471,112.10000000014912 M 41.08340504492409,112.13893416608454 M 41.269877775426835,112.37066304521574 M 41.27645470944737,112.52262841294436 M 41.110699795781954,129.3696014099309 M 33.672308486193344,134.00000000014887 M 20.33897515285902,134.00000000014887 M 20.33897515285905,128.70000000014892 M 40.93636471109468,128.70000000014903 M 41.08340504492405,128.73893416608445 M 41.26987777542686,128.97066304521576 M 41.27645470944739,129.12262841294427 M 41.110699795781976,145.96960140993082 M 33.67230848619341,150.600000000149 M 20.338975152859,150.6000000001489 M 20.33897515285905,145.30000000014894 M 40.936364711094754,145.30000000014917 M 41.08340504492407,145.33893416608447 M 41.269877775426885,145.57066304521578 M 41.27645470944739,145.7226284129443 M 67.60303137776093,145.30000000014985 M 67.75007171159166,145.33893416608515 M 67.90957165594682,145.4990963623565 M 67.94312137611327,145.72262841294497 M 67.77736646244915,145.9696014099315 M 60.33897515286213,150.60000000014958 M 39.74158559462945,150.60000000014958 M 39.59454526079774,150.56106583421416 M 39.47643760076886,150.46521537937934 M 39.40149559627653,150.17737158735423 M 39.567250509941864,149.9303985903676 M 47.0056418195284,145.30000000014985 M 94.27042093599368,145.30000000014985 M 94.41746126982436,145.33893416608515 M 94.57696121417948,145.4990963623565 M 94.61051093434597,145.72262841294497 M 94.44475602068188,145.9696014099315 M 87.00636471109483,150.60000000014958 M 66.40897515286208,150.60000000014958 M 66.26193481903027,150.56106583421416 M 66.14382715900146,150.46521537937934 M 66.06888515450913,150.17737158735434 M 66.2346400681745,149.9303985903677 M 73.67303137776098,145.30000000014985 M 76.2023933957717,145.30000000014985 M 100.33969804442803,145.30000000014996 M 120.93708760266144,145.30000000014996 M 121.14826761978176,145.38059256638434 M 121.24362788084551,145.49909636235674 M 121.27717760101366,145.7226284129452 M 121.11142268734787,145.96960140993173 M 113.67303137776081,150.6000000001498 M 93.07564181952812,150.60000000014958 M 92.92860148569815,150.56106583421416 M 92.74212875519528,150.32933695508297 M 92.73555182117485,150.17737158735434 M 92.90130673484069,149.9303985903677 M 54.46782323288241,137.68058545575826 M 50.66146003574489,140.0500465459764 M 50.66146003574489,137.0109840459764 M 54.293488148194854,137.0109840459764 M 54.440528482024845,137.0499182119118 M 54.62700121252775,137.2816470910431 M 54.63357814654741,137.43361245877173 M 33.69609858996061,153.6109840459764 M 54.293488148194896,153.6109840459764 M 54.44052848202489,153.64991821191182 M 54.627001212527794,153.88164709104313 M 54.63357814654745,154.03361245877164 M 54.46782323288243,154.28058545575828 M 47.02943192329491,158.91098404597648 M 26.43204236506186,158.91098404597648 M 26.285002031232267,158.87204988004095 M 26.125502086876658,158.7118876837696 M 26.091952366708767,158.48835563318113 M 26.257707280374277,158.2413826361946 M 41.110699795781954,162.56960140993084 M 33.672308486193316,167.20000000014892 M 20.33897515285905,167.20000000014892 M 20.338975152859113,161.90000000014896 M 40.936364711094775,161.9000000001492 M 41.08340504492405,161.9389341660845 M 41.269877775426885,162.1706630452157 M 41.27645470944742,162.3226284129443 M 39.74158559462943,167.2000000001495 M 39.594545260797716,167.16106583421418 M 39.47643760076886,167.06521537937937 M 39.40149559627653,166.77737158735425 M 39.567250509941864,166.5303985903676 M 47.00564181952838,161.90000000014976 M 67.60303137776098,161.90000000014987 M 67.75007171159163,161.93893416608518 M 67.90957165594673,162.09909636235642 M 67.94312137611327,162.322628412945 M 67.77736646244921,162.56960140993152 M 60.33897515286213,167.2000000001496 M 60.36276525662938,153.6109840459763 M 72.48609858917678,153.6109840459764 M 80.96015481486202,153.6109840459763 M 81.17133483198273,153.69157661221067 M 81.29366787919527,153.88164709104302 M 81.30024481321419,154.03361245877164 M 81.13448989954955,154.28058545575828 M 73.69609858996219,158.91098404597625 M 53.098709031729115,158.91098404597614 M 52.95166869789951,158.87204988004072 M 52.79216875354396,158.71188768376948 M 52.75861903337618,158.4883556331809 M 52.924373947041644,158.24138263619426 M 100.33969804442809,158.90000000014987 M 79.74230848619506,158.90000000014987 M 79.5952681523654,158.86106583421446 M 79.43576820800985,158.7009036379432 M 79.40221848784205,158.47737158735464 M 79.56797340150757,158.230398590368 M 87.00636471109553,153.60000000014992 M 99.12969804364266,153.60000000015003 M 107.60375426932785,153.60000000015003 M 107.81493428644859,153.6805925663843 M 107.93726733366113,153.87066304521665 M 107.94384426768005,154.02262841294527 M 107.77808935401538,154.2696014099319 M 100.33969804442805,161.90000000014987 M 120.93708760266134,161.90000000015 M 121.1482676197817,161.98059256638436 M 121.24362788084544,162.09909636235665 M 121.27717760101358,162.3226284129451 M 121.11142268734775,162.56960140993175 M 113.67303137776082,167.2000000001497 M 93.07564181952816,167.2000000001496 M 92.92860148569821,167.16106583421418 M 92.7421287551953,166.929336955083 M 92.73555182117487,166.77737158735437 M 92.90130673484066,166.53039859036772 M 73.67303137776095,161.90000000014987 M 76.20239339577172,161.90000000014987 M 94.27042093599367,161.90000000014987 M 94.41746126982434,161.93893416608518 M 94.5769612141795,162.09909636235642 M 94.61051093434597,162.322628412945 M 94.4447560206819,162.56960140993152 M 87.00636471109482,167.2000000001495 M 66.40897515286208,167.2000000001495 M 66.26193481903033,167.16106583421418 M 66.14382715900146,167.06521537937948 M 66.06888515450913,166.77737158735425 M 66.23464006817449,166.53039859036772 M 127.006364711094,158.9000000001501 M 106.40897515286179,158.90000000015 M 106.26193481903138,158.86106583421446 M 106.14382715900007,158.76521537937975 M 106.07546208852857,158.62933695508326 M 106.06888515450908,158.47737158735475 M 106.23464006817423,158.2303985903681 M 113.67303137776071,153.60000000015015 M 134.2704209359946,153.60000000015003 M 134.53556892985478,153.73478462092015 M 134.61051093434656,154.02262841294538 M 134.44475602068155,154.2696014099319 M 140.36667083057483,20.800000000150078 M 153.9700041639082,20.80000000015019 M 153.9700041639082,26.100000000150146 M 133.10261460567602,26.100000000149976 M 133.0756418195283,26.100000000150033 M 133.01451757609465,26.07667317356578 M 132.9555742718456,26.06106583421456 M 132.86446180240648,26.019407433915717 M 132.73555182117605,25.6773715873548 M 132.90130673484006,25.430398590368213 M 153.97384801941092,34.212741640722925 M 146.70979179451137,34.212741640722925 M 146.49861177738953,34.13214907448861 M 146.4032515163259,34.01364527851621 M 146.3697017961591,33.79011322792769 M 146.5354567098231,33.54314023094105 M 153.3770948012796,29.28422051900901 M 153.65988986510402,29.192039693878257 M 153.91641816193908,29.34258399156994 M 153.97384801941075,29.634426695976572 M 153.96937605100695,142.28159384789393 M 148.43733707463127,142.3000000001502 M 148.43733707463127,137.00000000015012 M 153.96937605100692,136.98159384789386 M 153.96937605100692,158.88159384789395 M 133.10261460567602,158.90000000015 M 133.07564181952833,158.9000000001501 M 133.01451757609468,158.87667317356596 M 132.95557427184565,158.86106583421457 M 132.86446180240654,158.81940743391573 M 132.7355518211761,158.47737158735487 M 132.9013067348401,158.23039859036822 M 140.3666708305749,153.60000000015015 M 153.96937605100692,153.58159384789388 M 153.97384801941067,50.81274164072295 M 146.7097917945111,50.81274164072295 M 146.49861177738927,50.73214907448863 M 146.40325151632564,50.61364527851623 M 146.36970179615884,50.39011322792771 M 146.53545670982285,50.14314023094107 M 153.37709480127938,45.884220519009034 M 153.65988986510376,45.79203969387828 M 153.91641816193885,45.94258399156996 M 153.97384801941053,46.234426695976595 M 153.9738480194107,133.8127416407229 M 146.70979179451112,133.812741640723 M 146.4986117773893,133.73214907448863 M 146.40325151632564,133.61364527851634 M 146.3697017961589,133.39011322792777 M 146.53545670982285,133.14314023094101 M 153.37709480127938,128.88422051900903 M 153.6598898651038,128.79203969387828 M 153.91641816193885,128.94258399156996 M 153.97384801941055,129.23442669597654 M 153.97384801941095,150.41274164072314 M 146.7097917945114,150.41274164072314 M 146.49861177738956,150.33214907448865 M 146.40325151632592,150.21364527851625 M 146.36970179615915,149.9901132279278 M 146.53545670982317,149.74314023094115 M 153.37709480127967,145.48422051900917 M 153.65988986510405,145.3920396938783 M 153.91641816193913,145.54258399156998 M 153.9738480194108,145.8344266959768 M 153.97384801941095,167.01274164072294 M 146.7097917945114,167.01274164072294 M 146.49861177738958,166.93214907448868 M 146.40325151632595,166.81364527851628 M 146.36970179615915,166.5901132279277 M 146.53545670982314,166.34314023094106 M 153.37709480127967,162.08422051900908 M 153.65988986510408,161.9920396938782 M 153.91641816193913,162.1425839915699 M 153.97384801941078,162.43442669597658 M 119.4087954210757,150.32933695678145 M 119.40221848705703,150.17737158905283 M 119.58130673484068,149.93039859036793 M 127.01969804442811,145.3000000001502 M 147.6170876026614,145.30000000015042 M 147.82826761978174,145.38059256638456 M 147.92362788084546,145.49909636235697 M 147.95717760101363,145.72262841294554 M 147.79142268734782,145.96960140993195 M 140.35303137776086,150.60000000014992 M 119.75564181952817,150.60000000014992 M 119.60860148569822,150.5610658342145 M 119.40879542107567,166.92933695678124 M 119.40221848705703,166.77737158905273 M 119.58130673484068,166.53039859036784 M 127.01969804442811,161.90000000015 M 147.61708760266143,161.90000000015021 M 147.82826761978174,161.9805925663846 M 147.92362788084546,162.09909636235687 M 147.95717760101363,162.32262841294533 M 147.79142268734782,162.56960140993186 M 140.35303137776086,167.20000000014983 M 119.75564181952818,167.2000000001497 M 119.6086014856982,167.1610658342143 M 144.40200395260308,137.00000000015012 M 144.40200395260305,142.3000000001502 M 133.10261460567602,142.30000000014996 M 133.07564181952833,142.30000000015008 M 133.0145175760947,142.27667317356594 M 132.95557427184565,142.26106583421455 M 132.86446180240654,142.2194074339157 M 132.73555182117607,141.87737158735484 M 132.9013067348401,141.6303985903682 M 140.36667083057486,137.00000000015012 M 37.60237868284257,137.0109840459765 M 37.60237868284257,142.31098404597645 M 26.432042365061882,142.31098404597645 M 26.285002031232246,142.27204988004092 M 26.125502086876637,142.11188768376957 M 26.091952366708767,141.88835563318122 M 26.25770728037432,141.64138263619458 M 33.696098589960634,137.0109840459765 M 47.00564181952838,29.10000000014975 M 47.005641819528286,34.40000000014942 M 39.7415855946294,34.40000000014942 M 39.594545260797645,34.361065834213946 M 39.47643760076884,34.2652153793793 M 39.40149559627646,33.977371587354185 M 39.567250509941815,33.730398590367486 M 47.02943192329491,137.0109840459764 M 47.02943192329491,142.31098404597634 M 41.50865877572437,142.31098404597645 M 41.50865877572441,137.0109840459765 M 121.11142268734775,29.769601409931852 M 119.25888648965166,30.922805192997657 M 114.85824547151495,29.100000000150146 M 120.93708760266135,29.100000000150146 M 121.14826761978168,29.18059256638452 M 121.24362788084542,29.299096362356806 M 121.27717760101356,29.522628412945323 M 140.35303137776083,34.40000000014976 M 127.50979776116662,34.40000000014976 M 127.34113961272234,34.27058405110586 M 122.16065232853414,32.124755958293804 M 127.01969804442805,29.100000000149976 M 147.61708760266137,29.100000000150146 M 147.82826761978168,29.18059256638452 M 147.92362788084543,29.299096362356806 M 147.95717760101357,29.522628412945323 M 147.79142268734776,29.769601409931852 M 133.25627771544077,38.80942915494438 M 131.4194738796908,37.40000000015016 M 134.2704209359946,37.40000000015016 M 134.5355689298548,37.53478462092028 M 134.61051093434656,37.82262841294539 M 134.44475602068152,38.069601409932034 M 147.79142268734753,46.36960140993193 M 143.66964372464977,48.935408814211314 M 141.18702722447566,45.70000000015017 M 147.61708760266112,45.70000000015028 M 147.82826761978146,45.7805925663846 M 147.92362788084517,45.899096362356886 M 147.9571776010133,46.1226284129454 M 153.96937605100663,59.28159384789393 M 150.48766111197838,59.30000000015025 M 149.15625367827465,56.08569811665842 M 147.55584122470108,54.000000000150294 M 153.9693760510066,53.981593847893976 M 153.97384801941067,67.41274164072291 M 153.84806872753256,67.41274164072291 M 152.1285445499786,63.26144305044386 M 153.37709480127936,62.48422051900906 M 153.65988986510376,62.392039693878246 M 153.91641816193885,62.54258399156993 M 153.9738480194105,62.83442669597662 M 153.9738480194107,117.21274164072298 M 147.98451197044145,117.21274164072298 M 149.1562536782747,115.68569811665844 M 149.5882446029588,114.64277976746388 M 153.37709480127938,112.28422051900912 M 153.6598898651038,112.19203969387826 M 153.91641816193885,112.34258399156994 M 153.97384801941053,112.63442669597663 M 153.96937605100666,125.68159384789391 M 141.47200957730303,125.70000000015006 M 145.53884261359147,120.4000000001501 M 153.96937605100663,120.38159384789384 M 140.3530313777606,134.0000000001499 M 131.90348687393583,134.00000000014978 M 138.81058134999375,128.70000000015017 M 147.61708760266114,128.70000000015017 M 147.82826761978146,128.78059256638454 M 147.9236278808452,128.89909636235683 M 147.95717760101334,129.1226284129453 M 147.79142268734756,129.36960140993193 M 127.00636471109408,142.30000000015008 M 115.75487529427826,142.30000000014996 M 127.3411396127224,137.50081218221095 M 127.99381075541208,137.00000000015012 M 134.27042093599462,137.00000000015012 M 134.5355689298548,137.13478462092024 M 134.6105109343466,137.42262841294536 M 134.44475602068155,137.669601409932 M 60.362765256629366,137.01098404597616 M 67.10278315724983,137.01098404597627 M 67.74113961272238,137.50081218221095 M 75.95665268809957,140.90378911988574 M 73.69609858996218,142.31098404597623 M 53.09870903172914,142.3109840459761 M 52.95166869789948,142.2720498800407 M 52.792168753544004,142.11188768376945 M 52.758619033376156,141.88835563318088 M 52.924373947041694,141.64138263619424 M 47.00564181952838,128.7000000001497 M 56.271697875450336,128.70000000014983 M 61.90684539591789,133.02400077384738 M 60.338975152862155,134.00000000014956 M 39.74158559462947,134.00000000014956 M 39.59454526079769,133.96106583421414 M 39.47643760076886,133.86521537937932 M 39.40149559627653,133.5773715873542 M 39.567250509941864,133.33039859036757 M 33.696098589960656,120.41098404597648 M 49.55186496665273,120.41098404597636 M 51.488686012431955,122.93509837548874 M 47.02943192329493,125.71098404597643 M 26.432042365061882,125.71098404597643 M 26.285002031232203,125.6720498800409 M 26.125502086876615,125.51188768376954 M 26.091952366708767,125.2883556331812 M 26.257707280374348,125.04138263619467 M 39.567250509941815,116.73039859036754 M 44.96655507782197,113.36933149686212 M 45.92602554716988,115.68569811665844 M 47.241455647915686,117.40000000014953 M 39.7415855946294,117.40000000014942 M 39.594545260797716,117.36106583421412 M 39.47643760076884,117.2652153793793 M 39.40149559627651,116.97737158735418 M 33.696098589960656,103.81098404597657 M 41.00735792979075,103.81098404597657 M 43.20268981036813,109.11098404597641 M 26.43204236506186,109.11098404597641 M 26.28500203123218,109.07204988004099 M 26.125502086876615,108.91188768376963 M 26.09195236670881,108.68835563318129 M 26.25770728037432,108.44138263619465 M 39.432570072173405,97.21423716287728 M 33.672308486193316,100.80000000014894 M 20.338975152859,100.80000000014894 M 20.33897515285907,95.50000000014899 M 39.20688646824313,95.5000000001491 M 33.69609858996068,87.21098404597655 M 38.115616815334576,87.21098404597655 M 38.81337505254779,92.5109840459765 M 26.432042365061903,92.51098404597639 M 26.285002031232246,92.47204988004097 M 26.125502086876615,92.31188768376961 M 26.09195236670879,92.08835563318127 M 26.257707280374298,91.84138263619462 M 38.563954359261984,81.15495044416474 M 33.672308486193316,84.20000000014892 M 20.338975152859,84.20000000014892 M 20.338975152859092,78.90000000014908 M 38.86082421715241,78.90000000014919 M 33.696098589960656,70.61098404597652 M 39.952093870061006,70.61098404597652 M 39.25433563284781,75.91098404597659 M 26.43204236506186,75.91098404597648 M 26.285002031232224,75.87204988004106 M 26.125502086876615,75.7118876837697 M 26.09195236670879,75.48835563318136 M 26.25770728037432,75.24138263619471 M 39.567250509941815,66.9303985903677 M 42.08257469785341,65.36460928339255 M 41.156645545769756,67.60000000014946 M 39.74158559462943,67.60000000014958 M 39.59454526079767,67.56106583421416 M 39.47643760076884,67.46521537937946 M 39.40149559627649,67.17737158735434 M 33.69609858996068,54.01098404597644 M 47.518009645943806,54.01098404597644 M 45.92602554716986,56.08569811665842 M 44.59006837271527,59.31098404597634 M 26.43204236506186,59.31098404597634 M 26.285002031232203,59.272049880040754 M 26.125502086876637,59.11188768376951 M 26.09195236670879,58.888355633181106 M 26.25770728037432,58.641382636194464 M 47.00564181952836,45.700000000149714 M 53.89525200096922,45.700000000149714 M 49.82841896468088,51.0000000001495 M 39.7415855946294,51.00000000014933 M 39.594545260797645,50.961065834214025 M 39.47643760076884,50.865215379379265 M 39.40149559627646,50.577371587354094 M 39.5672505099418,50.33039859036751 M 60.36276525662936,37.41098404597625 M 63.64849065853681,37.41098404597636 M 56.74139618247858,42.71098404597626 M 53.09870903172909,42.71098404597615 M 52.95166869789946,42.67204988004073 M 52.79216875354391,42.511887683769544 M 52.75861903337609,42.28835563318103 M 52.92437394704162,42.04138263619427 M 67.74113961272235,34.2705840511058 M 67.57248146427835,34.40000000014953 M 66.40897515286204,34.40000000014942 M 66.26193481903033,34.361065834214116 M 66.14382715900149,34.26521537937941 M 66.06888515450913,33.9773715873543 M 66.23464006817446,33.730398590367656 M 73.67303137776096,29.100000000149805 M 76.20239339577168,29.100000000149805 M 80.22403375393043,29.10000000014992 M 151.1884910089168,109.20000000015006 M 153.96937605100675,103.88159384789384 M 153.96937605100666,109.18159384789391 M 27.797823232882372,21.480585455758217 M 20.359431923294956,26.110984045976295 M 20.359431923294977,20.810984045976454 M 27.62348814819483,20.81098404597634 M 27.770528482024808,20.849918211911756 M 27.7904814127766,20.874713635167723 M 27.83466816531533,20.8915766122106 M 27.95700121252773,21.081647091042953 M 27.963578146547363,21.233612458771574 M 20.359431923294977,42.71098404597643 M 20.359431923294956,37.41098404597625 M 27.62348814819483,37.41098404597665 M 27.770528482024808,37.44991821191195 M 27.7904814127766,37.474713635167745 M 27.83466816531533,37.49157661221079 M 27.95700121252773,37.681647091043146 M 27.963578146547363,37.83361245877177 M 27.797823232882372,38.080585455758296 M 27.963578146547384,154.03361245877187 M 27.79782323288235,154.2805854557585 M 20.359431923294956,158.9109840459766 M 20.359431923294977,153.61098404597652 M 27.623488148194852,153.61098404597664 M 27.770528482024766,153.64991821191205 M 27.79048141277662,153.67471363516796 M 27.83466816531535,153.691576612211 M 27.957001212527757,153.88164709104336 M 27.95700121252773,87.48164709104338 M 27.96357814654734,87.63361245877178 M 27.79782323288235,87.88058545575842 M 20.359431923294956,92.5109840459765 M 20.359431923294935,87.21098404597655 M 27.623488148194852,87.21098404597666 M 27.770528482024808,87.24991821191196 M 27.79048141277658,87.27471363516787 M 27.834668165315286,87.29157661221092 M 27.963578146547363,120.83361245877182 M 27.79782323288235,121.08058545575847 M 20.359431923294935,125.71098404597655 M 20.359431923294935,120.41098404597648 M 27.623488148194788,120.41098404597659 M 27.77052848202483,120.44991821191212 M 27.790481412776558,120.47471363516792 M 27.834668165315286,120.49157661221096 M 27.957001212527665,120.68164709104332 M 20.359431923294977,109.11098404597664 M 20.359431923294956,103.81098404597657 M 27.62348814819481,103.81098404597668 M 27.770528482024808,103.8499182119121 M 27.7904814127766,103.874713635168 M 27.83466816531533,103.89157661221105 M 27.957001212527757,104.08164709104341 M 27.963578146547363,104.23361245877192 M 27.797823232882372,104.48058545575856 M 27.62348814819483,137.0109840459766 M 27.770528482024787,137.04991821191203 M 27.79048141277662,137.07471363516794 M 27.834668165315286,137.09157661221099 M 27.957001212527707,137.28164709104334 M 27.96357814654732,137.43361245877185 M 27.79782323288228,137.6805854557585 M 20.359431923294977,142.31098404597657 M 20.359431923294935,137.0109840459765 M 27.62348814819483,54.010984045976556 M 27.770528482024808,54.04991821191197 M 27.7904814127766,54.074713635167825 M 27.834668165315286,54.09157661221087 M 27.957001212527707,54.281647091043226 M 27.963578146547363,54.43361245877179 M 27.797823232882372,54.68058545575843 M 20.359431923294977,59.31098404597651 M 20.359431923294956,54.01098404597644 M 27.62348814819483,70.61098404597664 M 27.770528482024787,70.64991821191205 M 27.7904814127766,70.67471363516808 M 27.834668165315307,70.69157661221101 M 27.957001212527707,70.88164709104336 M 27.963578146547363,71.03361245877187 M 27.797823232882372,71.28058545575851 M 20.359431923294935,75.91098404597659 M 20.359431923294956,70.61098404597664 M 33.67230848619485,67.60000000014878 M 20.338975152860556,67.60000000014878 M 20.338975152860606,62.30000000014894 M 40.93636471109471,62.300000000149225 M 41.08340504492407,62.338934166084414 M 41.26987777542686,62.57066304521578 M 41.27645470944737,62.72262841294423 M 41.110699795781926,62.96960140993099 M 150.91373109074058,103.80000000015019 M 150.87230973450323,103.9000000001501 M 148.71839921016297,109.10000000015015 M 148.67697785392562,109.20000000015006 M 147.4757585230436,112.10000000015026 M 146.9923652116073,113.26701468858033 M 146.60147873711057,114.21069811665853 M 141.8522603651584,120.4000000001501 M 137.78542732886996,125.70000000014994 M 137.59873876694004,125.94329727087637 M 134.00613382476988,128.70000000015006 M 127.09903934871187,134.00000000014978 M 125.86613961272211,134.94603724104678 M 120.9074348630861,137.00000000015012 M 112.20323851778016,140.60539617593412 M 106.72200431118496,141.327014349094 M 100.61012641580075,142.13165833897045 M 99.33144455055358,142.30000000014985 M 97.54113961272236,142.53569811665835 M 95.75083467489122,142.30000000014985 M 82.87904070766463,140.60539617593412 M 81.87959686777013,140.19141298261962 M 79.01028298730952,139.00290425862744 M 74.20136219476218,137.0109840459764 M 69.21613961272237,134.94603724104678 M 67.98323987673231,134.00000000014956 M 66.71825883533974,133.02934590780723 M 64.55939300099357,131.37278988968768 M 61.0761454006743,128.70000000014983 M 57.4835404585045,125.94329727087626 M 57.30528025137412,125.7109840459762 M 55.54141732879282,123.41227313105429 M 53.98356279651643,121.38203757739603 M 53.23844721508584,120.41098404597636 M 50.92803789634877,117.40000000014953 M 48.48080048833404,114.21069811665853 M 44.173097875455184,103.81098404597657 M 42.92590744758467,100.80000000014951 M 42.82144155344671,100.54779702171635 M 42.52416036422828,98.28972220607426 M 41.76337505254773,92.5109840459765 M 40.89113961272243,85.88569811665849 M 42.20433563284784,75.91098404597659 M 42.82144155344666,71.22359921160063 M 46.34819643129993,62.70925975432198 M 48.00817527894526,58.70171630708404 M 48.48080048833397,57.56069811665856 M 51.2045918943769,54.01098404597644 M 53.515001213113926,51.00000000014944 M 57.48354045850448,45.82809896244055 M 57.650482276396474,45.700000000149714 M 61.54584370770253,42.71098404597615 M 68.45293818376074,37.41098404597648 M 69.21613961272233,36.825358992269855 M 75.07147418512295,34.40000000014959 M 82.87904070766453,31.166000057382803 M 94.53770549253039,29.631107719920976 M 97.54113961272236,29.23569811665851 M 99.6712187576796,29.516128356150944 M 112.20323851778014,31.16600005738269 M 116.20525619044167,32.82369005425596 M 119.42212875519527,34.12933695508303 M 119.45450765564777,34.169574078704954 M 120.01080504032205,34.4000000001497 M 125.86613961272232,36.82535899226997 M 126.6150263544668,37.40000000015016 M 130.6037301103648,40.460640039103964 M 132.8157033008386,42.15794676484035 M 133.52212083052493,42.700000000150055 M 137.4317969490486,45.70000000015011 M 137.59873876694004,45.82809896244049 M 141.1747669405653,50.48846961230396 M 143.869258976268,54.00000000015018 M 146.60147873711057,57.56069811665844 M 147.32192116631396,59.30000000015025 M 149.61175389627056,64.82814523237727 M 150.68232878186814,67.41274164072291 M 152.0025344211301,70.60000000015015 M 152.26083767199808,71.22359921160051 M 152.8764975155303,75.90000000015021 M 153.3018728180322,79.13104620358075 M 153.944560214793,84.01274164072316 M 154.19113961272234,85.88569811665838 M 153.7000041639082,89.61624222189351 M 153.32035024996364,92.50000000015024 M 152.85865131428625,96.00695158966272 M 152.26083767199805,100.54779702171624 M 152.23393673000226,100.61274164072307 "
  />
</svg>
